<svg xmlns="http://www.w3.org/2000/svg" xmlns:xlink="http://www.w3.org/1999/xlink" version="1.1" class="marks" width="269" height="254" viewBox="0 0 269 254"><rect width="269" height="254" fill="#fff"/><g fill="none" stroke-miterlimit="10" transform="translate(62,11)"><g class="mark-group role-frame root" role="graphics-object" aria-roledescription="group mark container"><g transform="translate(0,0)"><path class="background" aria-hidden="true" d="M0.5,0.5h200v200h-200Z" stroke="#ddd"/><g><g class="mark-group role-axis" aria-hidden="true"><g transform="translate(0.5,200.5)"><path class="background" aria-hidden="true" d="M0,0h0v0h0Z" pointer-events="none"/><g><g class="mark-rule role-axis-grid" pointer-events="none"><line transform="translate(0,-200)" x2="0" y2="200" stroke="#ddd" stroke-width="1" opacity="1"/><line transform="translate(40,-200)" x2="0" y2="200" stroke="#ddd" stroke-width="1" opacity="1"/><line transform="translate(80,-200)" x2="0" y2="200" stroke="#ddd" stroke-width="1" opacity="1"/><line transform="translate(120,-200)" x2="0" y2="200" stroke="#ddd" stroke-width="1" opacity="1"/><line transform="translate(160,-200)" x2="0" y2="200" stroke="#ddd" stroke-width="1" opacity="1"/><line transform="translate(200,-200)" x2="0" y2="200" stroke="#ddd" stroke-width="1" opacity="1"/></g></g><path class="foreground" aria-hidden="true" d="" pointer-events="none" display="none"/></g></g><g class="mark-group role-axis" aria-hidden="true"><g transform="translate(0.5,0.5)"><path class="background" aria-hidden="true" d="M0,0h0v0h0Z" pointer-events="none"/><g><g class="mark-rule role-axis-grid" pointer-events="none"><line transform="translate(0,200)" x2="200" y2="0" stroke="#e1e8f0" stroke-width="1" opacity="1"/><line transform="translate(0,160)" x2="200" y2="0" stroke="#e1e8f0" stroke-width="1" opacity="1"/><line transform="translate(0,120)" x2="200" y2="0" stroke="#e1e8f0" stroke-width="1" opacity="1"/><line transform="translate(0,80)" x2="200" y2="0" stroke="#e1e8f0" stroke-width="1" opacity="1"/><line transform="translate(0,40)" x2="200" y2="0" stroke="#e1e8f0" stroke-width="1" opacity="1"/><line transform="translate(0,0)" x2="200" y2="0" stroke="#e1e8f0" stroke-width="1" opacity="1"/></g></g><path class="foreground" aria-hidden="true" d="" pointer-events="none" display="none"/></g></g><g class="mark-group role-axis" role="graphics-symbol" aria-roledescription="axis" aria-label="X-axis titled 'generation' for a linear scale with values from 0 to 1,000"><g transform="translate(0.5,200.5)"><path class="background" aria-hidden="true" d="M0,0h0v0h0Z" pointer-events="none"/><g><g class="mark-rule role-axis-tick" pointer-events="none"><line transform="translate(0,0)" x2="0" y2="5" stroke="#888" stroke-width="1" opacity="1"/><line transform="translate(40,0)" x2="0" y2="5" stroke="#888" stroke-width="1" opacity="1"/><line transform="translate(80,0)" x2="0" y2="5" stroke="#888" stroke-width="1" opacity="1"/><line transform="translate(120,0)" x2="0" y2="5" stroke="#888" stroke-width="1" opacity="1"/><line transform="translate(160,0)" x2="0" y2="5" stroke="#888" stroke-width="1" opacity="1"/><line transform="translate(200,0)" x2="0" y2="5" stroke="#888" stroke-width="1" opacity="1"/></g><g class="mark-text role-axis-label" pointer-events="none"><text text-anchor="start" transform="translate(0,15)" font-family="sans-serif" font-size="10px" fill="#000" opacity="1">0</text><text text-anchor="middle" transform="translate(40,15)" font-family="sans-serif" font-size="10px" fill="#000" opacity="1">200</text><text text-anchor="middle" transform="translate(80,15)" font-family="sans-serif" font-size="10px" fill="#000" opacity="1">400</text><text text-anchor="middle" transform="translate(120,15)" font-family="sans-serif" font-size="10px" fill="#000" opacity="1">600</text><text text-anchor="middle" transform="translate(160,15)" font-family="sans-serif" font-size="10px" fill="#000" opacity="1">800</text><text text-anchor="end" transform="translate(200,15)" font-family="sans-serif" font-size="10px" fill="#000" opacity="1">1,000</text></g><g class="mark-rule role-axis-domain" pointer-events="none"><line transform="translate(0,0)" x2="200" y2="0" stroke="#e1e8f0" stroke-width="1" opacity="1"/></g><g class="mark-text role-axis-title" pointer-events="none"><text text-anchor="middle" transform="translate(100,36)" font-family="sans-serif" font-size="11px" font-weight="400" fill="#1c2a3a" opacity="1">generation</text></g></g><path class="foreground" aria-hidden="true" d="" pointer-events="none" display="none"/></g></g><g class="mark-group role-axis" role="graphics-symbol" aria-roledescription="axis" aria-label="Y-axis titled 'distance' for a linear scale with values from 80 to 180"><g transform="translate(0.5,0.5)"><path class="background" aria-hidden="true" d="M0,0h0v0h0Z" pointer-events="none"/><g><g class="mark-rule role-axis-tick" pointer-events="none"><line transform="translate(0,200)" x2="-5" y2="0" stroke="#888" stroke-width="1" opacity="1"/><line transform="translate(0,160)" x2="-5" y2="0" stroke="#888" stroke-width="1" opacity="1"/><line transform="translate(0,120)" x2="-5" y2="0" stroke="#888" stroke-width="1" opacity="1"/><line transform="translate(0,80)" x2="-5" y2="0" stroke="#888" stroke-width="1" opacity="1"/><line transform="translate(0,40)" x2="-5" y2="0" stroke="#888" stroke-width="1" opacity="1"/><line transform="translate(0,0)" x2="-5" y2="0" stroke="#888" stroke-width="1" opacity="1"/></g><g class="mark-text role-axis-label" pointer-events="none"><text text-anchor="end" transform="translate(-13,204)" font-family="sans-serif" font-size="12px" fill="#000" opacity="1">80</text><text text-anchor="end" transform="translate(-13,164)" font-family="sans-serif" font-size="12px" fill="#000" opacity="1">100</text><text text-anchor="end" transform="translate(-13,124)" font-family="sans-serif" font-size="12px" fill="#000" opacity="1">120</text><text text-anchor="end" transform="translate(-13,84)" font-family="sans-serif" font-size="12px" fill="#000" opacity="1">140</text><text text-anchor="end" transform="translate(-13,43.99999999999999)" font-family="sans-serif" font-size="12px" fill="#000" opacity="1">160</text><text text-anchor="end" transform="translate(-13,4)" font-family="sans-serif" font-size="12px" fill="#000" opacity="1">180</text></g><g class="mark-rule role-axis-domain" pointer-events="none"><line transform="translate(0,200)" x2="0" y2="-200" stroke="#888" stroke-width="1" opacity="1"/></g><g class="mark-text role-axis-title" pointer-events="none"><text text-anchor="middle" transform="translate(-43.021484375,100) rotate(-90) translate(0,-3)" font-family="sans-serif" font-size="12px" font-weight="400" fill="#1c2a3a" opacity="1">distance</text></g></g><path class="foreground" aria-hidden="true" d="" pointer-events="none" display="none"/></g></g><g class="mark-line role-mark marks" role="graphics-object" aria-roledescription="line mark container"><path aria-label="generation: 0; distance: 159.241081685" role="graphics-symbol" aria-roledescription="line mark" d="M0,41.518L0.2,41.518L0.4,41.518L0.6,41.518L0.8,44.911L1,44.911L1.2,44.911L1.4,44.911L1.6,44.911L1.8,44.911L2,44.911L2.2,44.911L2.4,44.911L2.6,44.911L2.8,44.911L3,44.911L3.2,44.911L3.4,44.911L3.6,44.911L3.8,44.911L4,65.03L4.2,65.03L4.4,65.03L4.6,65.03L4.8,65.03L5,77.099L5.2,77.099L5.4,77.099L5.6,77.099L5.8,77.099L6,77.099L6.2,77.099L6.4,77.099L6.6,77.099L6.8,77.099L7,77.099L7.2,77.099L7.4,77.814L7.6,89.528L7.8,89.528L8,89.528L8.2,89.528L8.4,89.528L8.6,89.528L8.8,89.528L9,89.528L9.2,89.528L9.4,89.528L9.6,89.528L9.8,89.528L10,89.528L10.2,89.528L10.4,95.367L10.6,95.367L10.8,95.367L11,95.367L11.2,95.367L11.4,95.367L11.6,95.367L11.8,95.367L12,95.367L12.2,95.367L12.4,95.367L12.6,95.367L12.8,95.367L13,95.367L13.2,95.367L13.4,95.367L13.6,95.367L13.8,95.367L14,95.367L14.2,95.367L14.4,95.367L14.6,95.367L14.8,95.367L15,95.367L15.2,95.367L15.4,95.367L15.6,95.367L15.8,95.367L16,102.813L16.2,102.813L16.4,102.813L16.6,102.813L16.8,102.813L17,102.813L17.2,102.813L17.4,102.813L17.6,102.813L17.8,102.813L18,102.813L18.2,111.766L18.4,111.766L18.6,111.766L18.8,111.766L19,111.766L19.2,111.766L19.4,111.766L19.6,111.766L19.8,111.766L20,111.766L20.2,111.766L20.4,111.766L20.6,111.766L20.8,150.748L21,150.748L21.2,150.748L21.4,150.748L21.6,150.748L21.8,150.748L22,150.748L22.2,150.748L22.4,150.748L22.6,150.748L22.8,150.748L23,150.748L23.2,150.748L23.4,150.787L23.6,150.787L23.8,150.787L24,150.787L24.2,150.787L24.4,150.787L24.6,150.787L24.8,150.787L25,150.787L25.2,150.787L25.4,150.787L25.6,150.787L25.8,150.787L26,150.787L26.2,150.787L26.4,150.787L26.6,150.787L26.8,150.787L27,150.787L27.2,150.787L27.4,150.787L27.6,150.787L27.8,150.787L28,150.787L28.2,150.787L28.4,150.787L28.6,150.787L28.8,150.787L29,150.787L29.2,150.787L29.4,150.787L29.6,150.787L29.8,150.787L30,150.787L30.2,150.787L30.4,150.787L30.6,150.787L30.8,150.787L31,150.787L31.2,150.787L31.4,150.787L31.6,150.787L31.8,150.787L32,150.787L32.2,150.787L32.4,150.787L32.6,150.787L32.8,150.787L33,150.787L33.2,150.787L33.4,150.787L33.6,150.787L33.8,150.787L34,150.787L34.2,150.787L34.4,150.787L34.6,150.787L34.8,150.787L35,150.787L35.2,150.787L35.4,150.787L35.6,150.787L35.8,150.787L36,150.787L36.2,150.787L36.4,150.787L36.6,150.787L36.8,150.787L37,150.787L37.2,166.302L37.4,166.302L37.6,166.302L37.8,166.302L38,166.302L38.2,166.302L38.4,166.302L38.6,166.302L38.8,166.302L39,166.302L39.2,166.302L39.4,166.302L39.6,166.729L39.8,166.729L40,166.729L40.2,166.729L40.4,166.729L40.6,166.729L40.8,166.729L41,166.729L41.2,166.729L41.4,166.729L41.6,166.729L41.8,166.729L42,166.729L42.2,166.729L42.4,166.729L42.6,166.729L42.8,166.729L43,166.729L43.2,166.729L43.4,166.729L43.6,166.729L43.8,166.729L44,166.729L44.2,166.729L44.4,166.729L44.6,166.729L44.8,166.729L45,166.729L45.2,166.729L45.4,166.729L45.6,168.393L45.8,168.393L46,168.393L46.2,168.393L46.4,168.393L46.6,168.393L46.8,168.393L47,168.393L47.2,168.393L47.4,168.393L47.6,168.393L47.8,168.393L48,168.393L48.2,168.393L48.4,168.393L48.6,168.393L48.8,168.393L49,168.393L49.2,168.393L49.4,168.393L49.6,168.393L49.8,168.393L50,168.393L50.2,168.393L50.4,168.393L50.6,168.393L50.8,168.393L51,168.393L51.2,168.393L51.4,168.393L51.6,168.393L51.8,168.393L52,168.393L52.2,168.393L52.4,168.393L52.6,168.393L52.8,168.393L53,168.393L53.2,168.393L53.4,168.393L53.6,168.393L53.8,168.393L54,168.393L54.2,168.393L54.4,168.393L54.6,168.393L54.8,168.393L55,168.393L55.2,168.393L55.4,168.393L55.6,168.393L55.8,168.393L56,168.393L56.2,168.393L56.4,168.393L56.6,168.393L56.8,168.393L57,168.393L57.2,168.393L57.4,168.393L57.6,168.393L57.8,168.393L58,168.393L58.2,168.393L58.4,168.393L58.6,168.393L58.8,168.393L59,168.393L59.2,168.393L59.4,168.393L59.6,168.393L59.8,168.393L60,168.393L60.2,168.393L60.4,168.393L60.6,168.393L60.8,168.393L61,168.393L61.2,168.393L61.4,168.393L61.6,168.393L61.8,168.393L62,168.393L62.2,168.393L62.4,168.393L62.6,168.393L62.8,168.393L63,168.393L63.2,168.393L63.4,168.393L63.6,168.393L63.8,168.393L64,168.393L64.2,168.393L64.4,168.393L64.6,168.393L64.8,168.393L65,168.393L65.2,168.393L65.4,168.393L65.6,168.393L65.8,168.393L66,168.393L66.2,168.393L66.4,168.393L66.6,168.393L66.8,168.393L67,168.393L67.2,168.393L67.4,168.393L67.6,168.393L67.8,168.393L68,168.393L68.2,168.393L68.4,168.393L68.6,168.393L68.8,168.393L69,168.393L69.2,168.393L69.4,168.393L69.6,168.393L69.8,168.393L70,168.393L70.2,168.393L70.4,168.393L70.6,168.393L70.8,168.393L71,168.393L71.2,168.393L71.4,168.393L71.6,168.393L71.8,168.393L72,168.393L72.2,168.393L72.4,168.393L72.6,168.393L72.8,168.393L73,168.393L73.2,168.393L73.4,168.393L73.6,168.393L73.8,168.393L74,168.393L74.2,168.393L74.4,168.393L74.6,168.393L74.8,168.393L75,168.393L75.2,168.393L75.4,168.393L75.6,168.393L75.8,168.393L76,168.393L76.2,168.393L76.4,168.393L76.6,168.393L76.8,168.393L77,168.393L77.2,168.393L77.4,168.393L77.6,168.393L77.8,168.393L78,168.393L78.2,168.393L78.4,168.393L78.6,168.393L78.8,168.393L79,168.393L79.2,168.393L79.4,168.393L79.6,168.393L79.8,168.393L80,168.393L80.2,168.393L80.4,168.393L80.6,168.393L80.8,168.393L81,168.393L81.2,168.393L81.4,168.393L81.6,168.393L81.8,168.393L82,168.393L82.2,168.393L82.4,168.393L82.6,168.393L82.8,168.393L83,168.393L83.2,168.393L83.4,168.393L83.6,168.393L83.8,168.393L84,168.393L84.2,168.393L84.4,168.393L84.6,168.393L84.8,168.393L85,168.393L85.2,168.393L85.4,168.393L85.6,168.393L85.8,168.393L86,181.219L86.2,181.219L86.4,181.219L86.6,181.219L86.8,181.219L87,181.219L87.2,181.219L87.4,181.219L87.6,181.219L87.8,181.219L88,181.219L88.2,181.219L88.4,181.219L88.6,181.219L88.8,181.219L89,181.219L89.2,181.219L89.4,181.219L89.6,181.219L89.8,181.219L90,181.219L90.2,181.219L90.4,181.219L90.6,181.219L90.8,181.219L91,181.219L91.2,181.219L91.4,181.219L91.6,181.219L91.8,181.219L92,181.219L92.2,181.219L92.4,181.219L92.6,181.219L92.8,181.219L93,181.219L93.2,181.219L93.4,181.219L93.6,181.219L93.8,181.219L94,181.219L94.2,181.219L94.4,181.219L94.6,181.219L94.8,181.219L95,181.219L95.2,181.219L95.4,181.219L95.6,181.219L95.8,181.219L96,181.219L96.2,181.219L96.4,181.219L96.6,181.219L96.8,181.219L97,181.219L97.2,181.219L97.4,181.219L97.6,181.219L97.8,181.219L98,181.219L98.2,181.219L98.4,181.219L98.6,181.219L98.8,181.219L99,181.219L99.2,181.219L99.4,181.219L99.6,181.219L99.8,181.219L100,181.219L100.2,181.219L100.4,181.219L100.6,181.219L100.8,181.219L101,181.219L101.2,181.219L101.4,181.219L101.6,181.219L101.8,181.219L102,181.219L102.2,181.219L102.4,181.219L102.6,181.219L102.8,181.219L103,181.219L103.2,181.219L103.4,181.219L103.6,181.219L103.8,181.219L104,181.219L104.2,181.219L104.4,181.219L104.6,181.219L104.8,181.219L105,181.219L105.2,181.219L105.4,181.219L105.6,181.219L105.8,181.219L106,181.219L106.2,181.219L106.4,181.219L106.6,181.219L106.8,181.219L107,181.219L107.2,181.219L107.4,181.219L107.6,181.219L107.8,181.219L108,181.219L108.2,181.219L108.4,181.219L108.6,181.219L108.8,181.219L109,181.219L109.2,181.219L109.4,181.219L109.6,181.219L109.8,181.219L110,181.219L110.2,181.219L110.4,181.219L110.6,181.219L110.8,181.219L111,181.219L111.2,181.219L111.4,181.219L111.6,181.219L111.8,181.219L112,181.219L112.2,181.219L112.4,181.219L112.6,181.219L112.8,181.219L113,181.219L113.2,181.219L113.4,181.219L113.6,181.219L113.8,181.219L114,181.219L114.2,181.219L114.4,181.219L114.6,181.219L114.8,181.219L115,181.219L115.2,181.219L115.4,181.219L115.6,181.219L115.8,181.219L116,181.219L116.2,181.219L116.4,181.219L116.6,181.219L116.8,181.219L117,181.219L117.2,181.219L117.4,181.219L117.6,181.219L117.8,181.219L118,181.219L118.2,181.219L118.4,181.219L118.6,181.219L118.8,181.219L119,181.219L119.2,181.219L119.4,181.219L119.6,181.219L119.8,181.219L120,181.219L120.2,181.219L120.4,181.219L120.6,181.219L120.8,181.219L121,181.219L121.2,181.219L121.4,181.219L121.6,181.219L121.8,181.219L122,181.219L122.2,181.219L122.4,181.219L122.6,181.219L122.8,181.219L123,181.219L123.2,181.219L123.4,181.219L123.6,181.219L123.8,181.219L124,181.219L124.2,181.219L124.4,181.219L124.6,181.219L124.8,181.219L125,181.219L125.2,181.219L125.4,181.219L125.6,181.219L125.8,181.219L126,181.219L126.2,181.219L126.4,181.219L126.6,181.219L126.8,181.219L127,181.219L127.2,181.219L127.4,181.219L127.6,181.219L127.8,181.219L128,181.219L128.2,181.219L128.4,181.219L128.6,181.219L128.8,181.219L129,181.219L129.2,181.219L129.4,181.219L129.6,181.219L129.8,181.219L130,181.219L130.2,181.219L130.4,181.219L130.6,181.219L130.8,181.219L131,181.219L131.2,181.219L131.4,181.219L131.6,181.219L131.8,181.219L132,181.219L132.2,181.219L132.4,181.219L132.6,181.219L132.8,181.219L133,181.219L133.2,181.219L133.4,181.219L133.6,181.219L133.8,181.219L134,181.219L134.2,181.219L134.4,183.392L134.6,183.392L134.8,183.392L135,183.392L135.2,183.392L135.4,183.392L135.6,183.392L135.8,183.392L136,183.392L136.2,183.392L136.4,183.392L136.6,183.392L136.8,183.392L137,183.392L137.2,183.392L137.4,183.392L137.6,183.392L137.8,183.392L138,183.392L138.2,183.392L138.4,183.392L138.6,183.392L138.8,183.392L139,183.392L139.2,183.392L139.4,183.392L139.6,183.392L139.8,183.392L140,183.392L140.2,183.392L140.4,183.392L140.6,183.392L140.8,183.392L141,183.392L141.2,183.392L141.4,183.392L141.6,183.392L141.8,183.392L142,183.392L142.2,183.392L142.4,183.392L142.6,183.392L142.8,183.392L143,183.392L143.2,183.392L143.4,183.392L143.6,183.392L143.8,183.392L144,183.392L144.2,183.392L144.4,183.392L144.6,183.392L144.8,183.392L145,183.392L145.2,183.392L145.4,183.392L145.6,183.392L145.8,183.392L146,183.392L146.2,183.392L146.4,183.392L146.6,183.392L146.8,183.392L147,183.392L147.2,183.392L147.4,184.962L147.6,184.962L147.8,184.962L148,184.962L148.2,184.962L148.4,184.962L148.6,184.962L148.8,184.962L149,184.962L149.2,184.962L149.4,184.962L149.6,184.962L149.8,184.962L150,184.962L150.2,184.962L150.4,184.962L150.6,184.962L150.8,184.962L151,184.962L151.2,184.962L151.4,184.962L151.6,184.962L151.8,184.962L152,184.962L152.2,184.962L152.4,184.962L152.6,184.962L152.8,184.962L153,184.962L153.2,184.962L153.4,184.962L153.6,184.962L153.8,184.962L154,184.962L154.2,184.962L154.4,184.962L154.6,184.962L154.8,184.962L155,184.962L155.2,184.962L155.4,184.962L155.6,184.962L155.8,184.962L156,184.962L156.2,184.962L156.4,184.962L156.6,184.962L156.8,184.962L157,184.962L157.2,184.962L157.4,184.962L157.6,184.962L157.8,184.962L158,184.962L158.2,184.962L158.4,184.962L158.6,184.962L158.8,184.962L159,184.962L159.2,184.962L159.4,184.962L159.6,184.962L159.8,184.962L160,184.962L160.2,184.962L160.4,184.962L160.6,184.962L160.8,184.962L161,184.962L161.2,184.962L161.4,184.962L161.6,184.962L161.8,184.962L162,184.962L162.2,184.962L162.4,184.962L162.6,184.962L162.8,184.962L163,184.962L163.2,184.962L163.4,184.962L163.6,184.962L163.8,184.962L164,184.962L164.2,184.962L164.4,184.962L164.6,184.962L164.8,184.962L165,184.962L165.2,184.962L165.4,184.962L165.6,184.962L165.8,184.962L166,184.962L166.2,184.962L166.4,184.962L166.6,184.962L166.8,184.962L167,184.962L167.2,184.962L167.4,184.962L167.6,184.962L167.8,184.962L168,184.962L168.2,184.962L168.4,184.962L168.6,184.962L168.8,184.962L169,184.962L169.2,184.962L169.4,184.962L169.6,184.962L169.8,184.962L170,184.962L170.2,184.962L170.4,184.962L170.6,184.962L170.8,184.962L171,184.962L171.2,184.962L171.4,184.962L171.6,184.962L171.8,184.962L172,184.962L172.2,184.962L172.4,184.962L172.6,184.962L172.8,184.962L173,184.962L173.2,184.962L173.4,184.962L173.6,184.962L173.8,184.962L174,184.962L174.2,184.962L174.4,184.962L174.6,184.962L174.8,184.962L175,184.962L175.2,184.962L175.4,184.962L175.6,184.962L175.8,184.962L176,184.962L176.2,184.962L176.4,184.962L176.6,184.962L176.8,184.962L177,184.962L177.2,184.962L177.4,184.962L177.6,184.962L177.8,184.962L178,184.962L178.2,184.962L178.4,184.962L178.6,184.962L178.8,184.962L179,184.962L179.2,184.962L179.4,184.962L179.6,184.962L179.8,184.962L180,184.962L180.2,184.962L180.4,184.962L180.6,184.962L180.8,184.962L181,184.962L181.2,184.962L181.4,184.962L181.6,184.962L181.8,184.962L182,184.962L182.2,184.962L182.4,184.962L182.6,184.962L182.8,184.962L183,184.962L183.2,184.962L183.4,184.962L183.6,184.962L183.8,184.962L184,184.962L184.2,184.962L184.4,184.962L184.6,184.962L184.8,184.962L185,184.962L185.2,184.962L185.4,184.962L185.6,184.962L185.8,184.962L186,184.962L186.2,184.962L186.4,184.962L186.6,184.962L186.8,184.962L187,184.962L187.2,184.962L187.4,184.962L187.6,184.962L187.8,184.962L188,184.962L188.2,184.962L188.4,184.962L188.6,184.962L188.8,184.962L189,184.962L189.2,184.962L189.4,184.962L189.6,184.962L189.8,184.962L190,184.962L190.2,184.962L190.4,184.962L190.6,184.962L190.8,184.962L191,184.962L191.2,184.962L191.4,184.962L191.6,184.962L191.8,184.962L192,184.962L192.2,184.962L192.4,184.962L192.6,184.962L192.8,184.962L193,184.962L193.2,184.962L193.4,184.962L193.6,184.962L193.8,184.962L194,184.962L194.2,184.962L194.4,184.962L194.6,184.962L194.8,184.962L195,184.962L195.2,184.962L195.4,184.962L195.6,184.962L195.8,184.962L196,184.962L196.2,184.962L196.4,184.962L196.6,184.962L196.8,184.962L197,184.962L197.2,184.962L197.4,184.962L197.6,184.962L197.8,184.962L198,184.962L198.2,184.962L198.4,184.962L198.6,184.962L198.8,184.962L199,184.962L199.2,184.962L199.4,184.962L199.6,184.962L199.8,184.962L200,184.962" stroke="#6583ff" stroke-width="2"/></g></g><path class="foreground" aria-hidden="true" d="" display="none"/></g></g></g></svg>