<svg xmlns="http://www.w3.org/2000/svg" xmlns:xlink="http://www.w3.org/1999/xlink" version="1.1" class="marks" width="269" height="254" viewBox="0 0 269 254"><rect width="269" height="254" fill="#fff"/><g fill="none" stroke-miterlimit="10" transform="translate(62,11)"><g class="mark-group role-frame root" role="graphics-object" aria-roledescription="group mark container"><g transform="translate(0,0)"><path class="background" aria-hidden="true" d="M0.5,0.5h200v200h-200Z" stroke="#ddd"/><g><g class="mark-group role-axis" aria-hidden="true"><g transform="translate(0.5,200.5)"><path class="background" aria-hidden="true" d="M0,0h0v0h0Z" pointer-events="none"/><g><g class="mark-rule role-axis-grid" pointer-events="none"><line transform="translate(0,-200)" x2="0" y2="200" stroke="#ddd" stroke-width="1" opacity="1"/><line transform="translate(40,-200)" x2="0" y2="200" stroke="#ddd" stroke-width="1" opacity="1"/><line transform="translate(80,-200)" x2="0" y2="200" stroke="#ddd" stroke-width="1" opacity="1"/><line transform="translate(120,-200)" x2="0" y2="200" stroke="#ddd" stroke-width="1" opacity="1"/><line transform="translate(160,-200)" x2="0" y2="200" stroke="#ddd" stroke-width="1" opacity="1"/><line transform="translate(200,-200)" x2="0" y2="200" stroke="#ddd" stroke-width="1" opacity="1"/></g></g><path class="foreground" aria-hidden="true" d="" pointer-events="none" display="none"/></g></g><g class="mark-group role-axis" aria-hidden="true"><g transform="translate(0.5,0.5)"><path class="background" aria-hidden="true" d="M0,0h0v0h0Z" pointer-events="none"/><g><g class="mark-rule role-axis-grid" pointer-events="none"><line transform="translate(0,200)" x2="200" y2="0" stroke="#e1e8f0" stroke-width="1" opacity="1"/><line transform="translate(0,160)" x2="200" y2="0" stroke="#e1e8f0" stroke-width="1" opacity="1"/><line transform="translate(0,120)" x2="200" y2="0" stroke="#e1e8f0" stroke-width="1" opacity="1"/><line transform="translate(0,80)" x2="200" y2="0" stroke="#e1e8f0" stroke-width="1" opacity="1"/><line transform="translate(0,40)" x2="200" y2="0" stroke="#e1e8f0" stroke-width="1" opacity="1"/><line transform="translate(0,0)" x2="200" y2="0" stroke="#e1e8f0" stroke-width="1" opacity="1"/></g></g><path class="foreground" aria-hidden="true" d="" pointer-events="none" display="none"/></g></g><g class="mark-group role-axis" role="graphics-symbol" aria-roledescription="axis" aria-label="X-axis titled 'generation' for a linear scale with values from 0 to 1,000"><g transform="translate(0.5,200.5)"><path class="background" aria-hidden="true" d="M0,0h0v0h0Z" pointer-events="none"/><g><g class="mark-rule role-axis-tick" pointer-events="none"><line transform="translate(0,0)" x2="0" y2="5" stroke="#888" stroke-width="1" opacity="1"/><line transform="translate(40,0)" x2="0" y2="5" stroke="#888" stroke-width="1" opacity="1"/><line transform="translate(80,0)" x2="0" y2="5" stroke="#888" stroke-width="1" opacity="1"/><line transform="translate(120,0)" x2="0" y2="5" stroke="#888" stroke-width="1" opacity="1"/><line transform="translate(160,0)" x2="0" y2="5" stroke="#888" stroke-width="1" opacity="1"/><line transform="translate(200,0)" x2="0" y2="5" stroke="#888" stroke-width="1" opacity="1"/></g><g class="mark-text role-axis-label" pointer-events="none"><text text-anchor="start" transform="translate(0,15)" font-family="sans-serif" font-size="10px" fill="#000" opacity="1">0</text><text text-anchor="middle" transform="translate(40,15)" font-family="sans-serif" font-size="10px" fill="#000" opacity="1">200</text><text text-anchor="middle" transform="translate(80,15)" font-family="sans-serif" font-size="10px" fill="#000" opacity="1">400</text><text text-anchor="middle" transform="translate(120,15)" font-family="sans-serif" font-size="10px" fill="#000" opacity="1">600</text><text text-anchor="middle" transform="translate(160,15)" font-family="sans-serif" font-size="10px" fill="#000" opacity="1">800</text><text text-anchor="end" transform="translate(200,15)" font-family="sans-serif" font-size="10px" fill="#000" opacity="1">1,000</text></g><g class="mark-rule role-axis-domain" pointer-events="none"><line transform="translate(0,0)" x2="200" y2="0" stroke="#e1e8f0" stroke-width="1" opacity="1"/></g><g class="mark-text role-axis-title" pointer-events="none"><text text-anchor="middle" transform="translate(100,36)" font-family="sans-serif" font-size="11px" font-weight="400" fill="#1c2a3a" opacity="1">generation</text></g></g><path class="foreground" aria-hidden="true" d="" pointer-events="none" display="none"/></g></g><g class="mark-group role-axis" role="graphics-symbol" aria-roledescription="axis" aria-label="Y-axis titled 'distance' for a linear scale with values from 80 to 180"><g transform="translate(0.5,0.5)"><path class="background" aria-hidden="true" d="M0,0h0v0h0Z" pointer-events="none"/><g><g class="mark-rule role-axis-tick" pointer-events="none"><line transform="translate(0,200)" x2="-5" y2="0" stroke="#888" stroke-width="1" opacity="1"/><line transform="translate(0,160)" x2="-5" y2="0" stroke="#888" stroke-width="1" opacity="1"/><line transform="translate(0,120)" x2="-5" y2="0" stroke="#888" stroke-width="1" opacity="1"/><line transform="translate(0,80)" x2="-5" y2="0" stroke="#888" stroke-width="1" opacity="1"/><line transform="translate(0,40)" x2="-5" y2="0" stroke="#888" stroke-width="1" opacity="1"/><line transform="translate(0,0)" x2="-5" y2="0" stroke="#888" stroke-width="1" opacity="1"/></g><g class="mark-text role-axis-label" pointer-events="none"><text text-anchor="end" transform="translate(-13,204)" font-family="sans-serif" font-size="12px" fill="#000" opacity="1">80</text><text text-anchor="end" transform="translate(-13,164)" font-family="sans-serif" font-size="12px" fill="#000" opacity="1">100</text><text text-anchor="end" transform="translate(-13,124)" font-family="sans-serif" font-size="12px" fill="#000" opacity="1">120</text><text text-anchor="end" transform="translate(-13,84)" font-family="sans-serif" font-size="12px" fill="#000" opacity="1">140</text><text text-anchor="end" transform="translate(-13,43.99999999999999)" font-family="sans-serif" font-size="12px" fill="#000" opacity="1">160</text><text text-anchor="end" transform="translate(-13,4)" font-family="sans-serif" font-size="12px" fill="#000" opacity="1">180</text></g><g class="mark-rule role-axis-domain" pointer-events="none"><line transform="translate(0,200)" x2="0" y2="-200" stroke="#888" stroke-width="1" opacity="1"/></g><g class="mark-text role-axis-title" pointer-events="none"><text text-anchor="middle" transform="translate(-43.021484375,100) rotate(-90) translate(0,-3)" font-family="sans-serif" font-size="12px" font-weight="400" fill="#1c2a3a" opacity="1">distance</text></g></g><path class="foreground" aria-hidden="true" d="" pointer-events="none" display="none"/></g></g><g class="mark-line role-mark marks" role="graphics-object" aria-roledescription="line mark container"><path aria-label="generation: 0; distance: 166.810418403" role="graphics-symbol" aria-roledescription="line mark" d="M0,26.379L0.2,26.379L0.4,26.379L0.6,26.379L0.8,26.379L1,26.379L1.2,26.379L1.4,26.379L1.6,26.379L1.8,26.379L2,26.379L2.2,26.379L2.4,26.379L2.6,26.379L2.8,26.379L3,26.379L3.2,26.379L3.4,26.379L3.6,26.379L3.8,26.379L4,26.379L4.2,26.379L4.4,26.379L4.6,26.379L4.8,26.379L5,26.379L5.2,26.379L5.4,26.379L5.6,26.379L5.8,26.379L6,26.379L6.2,26.379L6.4,26.379L6.6,26.379L6.8,26.379L7,26.379L7.2,26.379L7.4,26.379L7.6,26.379L7.8,26.379L8,26.379L8.2,26.379L8.4,26.379L8.6,26.379L8.8,26.379L9,26.379L9.2,26.379L9.4,26.379L9.6,26.379L9.8,26.379L10,26.379L10.2,26.379L10.4,26.379L10.6,26.379L10.8,26.379L11,26.379L11.2,26.379L11.4,26.379L11.6,26.379L11.8,26.379L12,26.379L12.2,26.379L12.4,26.379L12.6,26.379L12.8,26.379L13,26.379L13.2,26.379L13.4,26.379L13.6,26.379L13.8,26.379L14,26.379L14.2,26.379L14.4,26.379L14.6,26.379L14.8,26.379L15,26.379L15.2,26.379L15.4,26.379L15.6,26.379L15.8,26.379L16,26.379L16.2,26.379L16.4,26.379L16.6,26.379L16.8,26.379L17,26.379L17.2,26.379L17.4,26.379L17.6,26.379L17.8,26.379L18,26.379L18.2,26.379L18.4,26.379L18.6,26.379L18.8,26.379L19,26.379L19.2,26.379L19.4,26.379L19.6,26.379L19.8,26.379L20,26.379L20.2,26.379L20.4,26.379L20.6,26.379L20.8,26.379L21,26.379L21.2,26.379L21.4,26.379L21.6,26.379L21.8,61.14L22,61.14L22.2,61.14L22.4,61.14L22.6,61.14L22.8,61.14L23,61.14L23.2,61.14L23.4,61.14L23.6,61.14L23.8,61.14L24,61.14L24.2,61.14L24.4,61.14L24.6,61.14L24.8,61.14L25,61.14L25.2,61.14L25.4,61.14L25.6,61.14L25.8,61.14L26,61.14L26.2,61.14L26.4,61.14L26.6,61.14L26.8,61.14L27,61.14L27.2,61.14L27.4,63.247L27.6,63.247L27.8,63.247L28,63.247L28.2,63.247L28.4,63.247L28.6,63.247L28.8,63.247L29,63.247L29.2,63.247L29.4,63.247L29.6,63.247L29.8,63.247L30,63.247L30.2,63.247L30.4,63.247L30.6,63.247L30.8,63.247L31,63.247L31.2,63.247L31.4,63.247L31.6,63.247L31.8,71.778L32,71.778L32.2,71.778L32.4,71.778L32.6,71.778L32.8,71.778L33,71.778L33.2,71.778L33.4,71.778L33.6,71.778L33.8,71.778L34,71.778L34.2,71.778L34.4,71.778L34.6,71.778L34.8,71.778L35,71.778L35.2,71.778L35.4,71.778L35.6,71.778L35.8,71.778L36,71.778L36.2,71.778L36.4,71.778L36.6,71.778L36.8,71.778L37,71.778L37.2,71.778L37.4,71.778L37.6,71.778L37.8,71.778L38,71.778L38.2,71.778L38.4,100.411L38.6,100.411L38.8,100.411L39,100.411L39.2,100.411L39.4,100.411L39.6,100.411L39.8,100.411L40,100.411L40.2,100.411L40.4,100.411L40.6,100.411L40.8,100.411L41,100.411L41.2,100.411L41.4,100.411L41.6,100.411L41.8,100.411L42,100.411L42.2,100.411L42.4,100.411L42.6,100.411L42.8,100.411L43,100.411L43.2,100.411L43.4,100.411L43.6,100.411L43.8,100.411L44,100.411L44.2,100.411L44.4,100.411L44.6,100.411L44.8,100.411L45,100.411L45.2,100.411L45.4,100.411L45.6,100.411L45.8,100.411L46,100.411L46.2,100.411L46.4,100.411L46.6,100.411L46.8,100.411L47,100.411L47.2,100.411L47.4,100.411L47.6,100.411L47.8,100.411L48,100.411L48.2,100.411L48.4,100.411L48.6,100.411L48.8,100.411L49,100.411L49.2,100.411L49.4,100.411L49.6,100.411L49.8,100.411L50,100.411L50.2,100.411L50.4,100.411L50.6,100.411L50.8,100.411L51,100.411L51.2,100.411L51.4,100.411L51.6,100.411L51.8,100.411L52,100.411L52.2,100.411L52.4,100.411L52.6,100.411L52.8,100.411L53,100.411L53.2,100.411L53.4,100.411L53.6,100.411L53.8,100.411L54,100.411L54.2,100.411L54.4,100.411L54.6,100.411L54.8,100.411L55,100.411L55.2,100.411L55.4,100.411L55.6,100.411L55.8,100.411L56,100.411L56.2,100.411L56.4,100.411L56.6,100.411L56.8,100.411L57,100.411L57.2,100.411L57.4,100.411L57.6,100.411L57.8,100.411L58,100.411L58.2,100.411L58.4,100.411L58.6,100.411L58.8,100.411L59,100.411L59.2,100.411L59.4,100.411L59.6,100.411L59.8,100.411L60,100.411L60.2,100.411L60.4,100.411L60.6,100.411L60.8,100.411L61,100.411L61.2,100.411L61.4,100.411L61.6,100.411L61.8,100.411L62,100.411L62.2,100.411L62.4,100.411L62.6,100.411L62.8,100.411L63,100.411L63.2,100.411L63.4,100.411L63.6,100.411L63.8,100.411L64,100.411L64.2,100.411L64.4,100.411L64.6,100.411L64.8,100.411L65,100.411L65.2,100.411L65.4,100.411L65.6,100.411L65.8,100.411L66,100.411L66.2,100.411L66.4,100.411L66.6,100.411L66.8,100.411L67,100.411L67.2,100.411L67.4,100.411L67.6,100.411L67.8,100.411L68,100.411L68.2,100.411L68.4,100.411L68.6,100.411L68.8,100.411L69,100.411L69.2,100.411L69.4,100.411L69.6,100.411L69.8,100.411L70,100.411L70.2,100.411L70.4,100.411L70.6,100.411L70.8,100.411L71,100.411L71.2,100.411L71.4,100.411L71.6,100.411L71.8,100.411L72,100.411L72.2,100.411L72.4,100.411L72.6,100.411L72.8,100.411L73,100.411L73.2,100.411L73.4,100.411L73.6,100.411L73.8,100.411L74,100.411L74.2,100.411L74.4,100.411L74.6,100.411L74.8,100.411L75,100.411L75.2,100.411L75.4,100.411L75.6,100.411L75.8,100.411L76,100.411L76.2,100.411L76.4,100.411L76.6,100.411L76.8,100.411L77,100.411L77.2,100.411L77.4,100.411L77.6,100.411L77.8,100.411L78,100.411L78.2,100.411L78.4,100.411L78.6,100.411L78.8,100.411L79,100.411L79.2,100.411L79.4,100.411L79.6,100.411L79.8,100.411L80,100.411L80.2,100.411L80.4,100.411L80.6,100.411L80.8,100.411L81,100.411L81.2,100.411L81.4,100.411L81.6,100.411L81.8,100.411L82,100.411L82.2,100.411L82.4,100.411L82.6,100.411L82.8,100.411L83,100.411L83.2,100.411L83.4,100.411L83.6,100.411L83.8,100.502L84,100.502L84.2,100.502L84.4,100.502L84.6,100.502L84.8,100.502L85,100.502L85.2,100.502L85.4,100.502L85.6,100.502L85.8,100.502L86,100.502L86.2,100.502L86.4,100.502L86.6,100.502L86.8,100.502L87,100.502L87.2,100.502L87.4,100.502L87.6,100.502L87.8,100.502L88,100.502L88.2,100.502L88.4,100.502L88.6,100.502L88.8,100.502L89,100.502L89.2,100.502L89.4,100.502L89.6,100.502L89.8,100.502L90,100.502L90.2,100.502L90.4,100.502L90.6,100.502L90.8,100.502L91,100.502L91.2,100.502L91.4,100.502L91.6,100.502L91.8,100.502L92,100.502L92.2,100.502L92.4,100.502L92.6,100.502L92.8,100.502L93,100.502L93.2,100.502L93.4,100.502L93.6,100.502L93.8,100.502L94,100.502L94.2,100.502L94.4,100.502L94.6,100.502L94.8,100.502L95,100.502L95.2,100.502L95.4,100.502L95.6,100.502L95.8,100.502L96,100.502L96.2,100.502L96.4,100.502L96.6,100.502L96.8,100.502L97,100.502L97.2,100.502L97.4,100.502L97.6,100.502L97.8,100.502L98,101.946L98.2,101.946L98.4,101.946L98.6,101.946L98.8,101.946L99,101.946L99.2,101.946L99.4,101.946L99.6,101.946L99.8,101.946L100,101.946L100.2,101.946L100.4,101.946L100.6,101.946L100.8,101.946L101,101.946L101.2,101.946L101.4,101.946L101.6,101.946L101.8,101.946L102,101.946L102.2,101.946L102.4,101.946L102.6,101.946L102.8,101.946L103,101.946L103.2,101.946L103.4,101.946L103.6,101.946L103.8,101.946L104,101.946L104.2,101.946L104.4,101.946L104.6,101.946L104.8,101.946L105,101.946L105.2,101.946L105.4,101.946L105.6,101.946L105.8,101.946L106,101.946L106.2,101.946L106.4,101.946L106.6,101.946L106.8,101.946L107,101.946L107.2,101.946L107.4,101.946L107.6,101.946L107.8,101.946L108,101.946L108.2,101.946L108.4,101.946L108.6,101.946L108.8,101.946L109,101.946L109.2,101.946L109.4,101.946L109.6,101.946L109.8,101.946L110,101.946L110.2,101.946L110.4,101.946L110.6,101.946L110.8,101.946L111,101.946L111.2,101.946L111.4,101.946L111.6,101.946L111.8,101.946L112,101.946L112.2,101.946L112.4,101.946L112.6,101.946L112.8,101.946L113,101.946L113.2,101.946L113.4,101.946L113.6,101.946L113.8,101.946L114,101.946L114.2,101.946L114.4,101.946L114.6,101.946L114.8,101.946L115,101.946L115.2,101.946L115.4,101.946L115.6,101.946L115.8,101.946L116,101.946L116.2,101.946L116.4,101.946L116.6,101.946L116.8,101.946L117,101.946L117.2,101.946L117.4,101.946L117.6,101.946L117.8,101.946L118,101.946L118.2,101.946L118.4,101.946L118.6,101.946L118.8,101.946L119,101.946L119.2,101.946L119.4,101.946L119.6,101.946L119.8,101.946L120,101.946L120.2,101.946L120.4,101.946L120.6,101.946L120.8,101.946L121,101.946L121.2,101.946L121.4,101.946L121.6,101.946L121.8,101.946L122,101.946L122.2,114.855L122.4,114.855L122.6,114.855L122.8,114.855L123,114.855L123.2,114.855L123.4,114.855L123.6,114.855L123.8,114.855L124,114.855L124.2,114.855L124.4,114.855L124.6,114.855L124.8,114.855L125,114.855L125.2,114.855L125.4,114.855L125.6,114.855L125.8,114.855L126,114.855L126.2,114.855L126.4,114.855L126.6,114.855L126.8,114.855L127,114.855L127.2,114.855L127.4,114.855L127.6,114.855L127.8,114.855L128,114.855L128.2,114.855L128.4,114.855L128.6,114.855L128.8,114.855L129,114.855L129.2,114.855L129.4,114.855L129.6,114.855L129.8,114.855L130,114.855L130.2,114.855L130.4,114.855L130.6,114.855L130.8,114.855L131,114.855L131.2,114.855L131.4,114.855L131.6,114.855L131.8,114.855L132,114.855L132.2,114.855L132.4,114.855L132.6,114.855L132.8,114.855L133,114.855L133.2,114.855L133.4,114.855L133.6,114.855L133.8,114.855L134,114.855L134.2,114.855L134.4,114.855L134.6,114.855L134.8,114.855L135,114.855L135.2,114.855L135.4,114.855L135.6,114.855L135.8,114.855L136,114.855L136.2,114.855L136.4,114.855L136.6,114.855L136.8,114.855L137,114.855L137.2,114.855L137.4,114.855L137.6,114.855L137.8,114.855L138,114.855L138.2,114.855L138.4,114.855L138.6,114.855L138.8,114.855L139,114.855L139.2,114.855L139.4,114.855L139.6,114.855L139.8,114.855L140,114.855L140.2,114.855L140.4,114.855L140.6,114.855L140.8,114.855L141,114.855L141.2,114.855L141.4,114.855L141.6,114.855L141.8,114.855L142,114.855L142.2,114.855L142.4,114.855L142.6,114.855L142.8,114.855L143,114.855L143.2,114.855L143.4,114.855L143.6,114.855L143.8,114.855L144,114.855L144.2,114.855L144.4,114.855L144.6,114.855L144.8,114.855L145,114.855L145.2,114.855L145.4,114.855L145.6,114.855L145.8,114.855L146,114.855L146.2,114.855L146.4,114.855L146.6,114.855L146.8,114.855L147,114.855L147.2,114.855L147.4,114.855L147.6,114.855L147.8,114.855L148,114.855L148.2,114.855L148.4,114.855L148.6,114.855L148.8,114.855L149,114.855L149.2,114.855L149.4,114.855L149.6,114.855L149.8,114.855L150,129.298L150.2,129.298L150.4,129.298L150.6,129.298L150.8,129.298L151,129.298L151.2,129.298L151.4,129.298L151.6,129.298L151.8,129.298L152,129.298L152.2,129.298L152.4,129.298L152.6,129.298L152.8,129.298L153,129.298L153.2,129.298L153.4,129.298L153.6,129.298L153.8,129.298L154,129.298L154.2,129.298L154.4,129.298L154.6,129.298L154.8,129.298L155,129.298L155.2,129.298L155.4,129.298L155.6,129.298L155.8,129.298L156,129.298L156.2,129.298L156.4,129.298L156.6,129.298L156.8,129.298L157,129.298L157.2,129.298L157.4,129.298L157.6,129.298L157.8,129.298L158,129.298L158.2,129.298L158.4,129.298L158.6,129.298L158.8,129.298L159,129.298L159.2,129.298L159.4,129.298L159.6,129.298L159.8,129.298L160,129.298L160.2,129.298L160.4,129.298L160.6,129.298L160.8,129.298L161,129.298L161.2,129.298L161.4,129.298L161.6,129.298L161.8,129.298L162,129.298L162.2,129.298L162.4,129.298L162.6,129.298L162.8,129.298L163,129.298L163.2,129.298L163.4,129.298L163.6,129.298L163.8,129.298L164,129.298L164.2,129.298L164.4,129.298L164.6,129.298L164.8,129.298L165,129.298L165.2,129.298L165.4,129.298L165.6,129.298L165.8,129.298L166,129.298L166.2,129.298L166.4,129.298L166.6,129.298L166.8,129.298L167,129.298L167.2,129.298L167.4,129.298L167.6,129.298L167.8,129.298L168,129.298L168.2,129.298L168.4,129.298L168.6,129.298L168.8,129.298L169,129.298L169.2,129.298L169.4,129.298L169.6,129.298L169.8,129.298L170,129.298L170.2,129.298L170.4,129.298L170.6,129.298L170.8,129.298L171,129.298L171.2,129.298L171.4,129.298L171.6,129.298L171.8,129.298L172,129.298L172.2,129.298L172.4,129.298L172.6,129.298L172.8,129.298L173,129.298L173.2,129.298L173.4,129.298L173.6,129.298L173.8,129.298L174,129.298L174.2,129.298L174.4,129.298L174.6,129.298L174.8,129.298L175,129.298L175.2,129.298L175.4,129.298L175.6,129.298L175.8,129.298L176,129.298L176.2,129.298L176.4,129.298L176.6,129.298L176.8,129.298L177,129.298L177.2,129.298L177.4,129.298L177.6,129.298L177.8,129.298L178,129.298L178.2,129.298L178.4,129.298L178.6,129.298L178.8,129.298L179,129.298L179.2,129.298L179.4,129.298L179.6,129.298L179.8,129.298L180,129.298L180.2,129.298L180.4,129.298L180.6,129.298L180.8,129.298L181,129.298L181.2,129.298L181.4,129.298L181.6,129.298L181.8,129.298L182,129.298L182.2,129.298L182.4,129.298L182.6,129.298L182.8,129.298L183,129.298L183.2,129.298L183.4,129.298L183.6,129.298L183.8,129.298L184,129.298L184.2,129.298L184.4,129.298L184.6,129.298L184.8,129.298L185,129.298L185.2,129.298L185.4,129.298L185.6,129.298L185.8,129.298L186,129.298L186.2,129.298L186.4,129.298L186.6,129.298L186.8,129.298L187,129.298L187.2,129.298L187.4,129.298L187.6,129.298L187.8,129.298L188,129.298L188.2,129.298L188.4,129.298L188.6,129.298L188.8,129.298L189,129.298L189.2,129.298L189.4,129.298L189.6,129.298L189.8,129.298L190,129.298L190.2,129.298L190.4,129.298L190.6,129.298L190.8,129.298L191,129.298L191.2,129.298L191.4,129.298L191.6,129.298L191.8,129.298L192,129.298L192.2,129.298L192.4,129.298L192.6,129.298L192.8,129.298L193,129.298L193.2,129.298L193.4,129.298L193.6,129.298L193.8,129.298L194,129.298L194.2,129.298L194.4,129.298L194.6,129.298L194.8,129.298L195,129.298L195.2,129.298L195.4,129.298L195.6,129.298L195.8,129.298L196,129.298L196.2,129.298L196.4,129.298L196.6,129.298L196.8,129.298L197,129.298L197.2,129.298L197.4,129.298L197.6,129.298L197.8,129.298L198,129.298L198.2,129.298L198.4,129.298L198.6,129.298L198.8,129.298L199,129.298L199.2,129.298L199.4,129.298L199.6,129.298L199.8,129.298L200,129.298" stroke="#6583ff" stroke-width="2"/></g></g><path class="foreground" aria-hidden="true" d="" display="none"/></g></g></g></svg>