<svg xmlns="http://www.w3.org/2000/svg" xmlns:xlink="http://www.w3.org/1999/xlink" version="1.1" class="marks" width="269" height="254" viewBox="0 0 269 254"><rect width="269" height="254" fill="#fff"/><g fill="none" stroke-miterlimit="10" transform="translate(62,11)"><g class="mark-group role-frame root" role="graphics-object" aria-roledescription="group mark container"><g transform="translate(0,0)"><path class="background" aria-hidden="true" d="M0.5,0.5h200v200h-200Z" stroke="#ddd"/><g><g class="mark-group role-axis" aria-hidden="true"><g transform="translate(0.5,200.5)"><path class="background" aria-hidden="true" d="M0,0h0v0h0Z" pointer-events="none"/><g><g class="mark-rule role-axis-grid" pointer-events="none"><line transform="translate(0,-200)" x2="0" y2="200" stroke="#ddd" stroke-width="1" opacity="1"/><line transform="translate(40,-200)" x2="0" y2="200" stroke="#ddd" stroke-width="1" opacity="1"/><line transform="translate(80,-200)" x2="0" y2="200" stroke="#ddd" stroke-width="1" opacity="1"/><line transform="translate(120,-200)" x2="0" y2="200" stroke="#ddd" stroke-width="1" opacity="1"/><line transform="translate(160,-200)" x2="0" y2="200" stroke="#ddd" stroke-width="1" opacity="1"/><line transform="translate(200,-200)" x2="0" y2="200" stroke="#ddd" stroke-width="1" opacity="1"/></g></g><path class="foreground" aria-hidden="true" d="" pointer-events="none" display="none"/></g></g><g class="mark-group role-axis" aria-hidden="true"><g transform="translate(0.5,0.5)"><path class="background" aria-hidden="true" d="M0,0h0v0h0Z" pointer-events="none"/><g><g class="mark-rule role-axis-grid" pointer-events="none"><line transform="translate(0,200)" x2="200" y2="0" stroke="#e1e8f0" stroke-width="1" opacity="1"/><line transform="translate(0,160)" x2="200" y2="0" stroke="#e1e8f0" stroke-width="1" opacity="1"/><line transform="translate(0,120)" x2="200" y2="0" stroke="#e1e8f0" stroke-width="1" opacity="1"/><line transform="translate(0,80)" x2="200" y2="0" stroke="#e1e8f0" stroke-width="1" opacity="1"/><line transform="translate(0,40)" x2="200" y2="0" stroke="#e1e8f0" stroke-width="1" opacity="1"/><line transform="translate(0,0)" x2="200" y2="0" stroke="#e1e8f0" stroke-width="1" opacity="1"/></g></g><path class="foreground" aria-hidden="true" d="" pointer-events="none" display="none"/></g></g><g class="mark-group role-axis" role="graphics-symbol" aria-roledescription="axis" aria-label="X-axis titled 'generation' for a linear scale with values from 0 to 1,000"><g transform="translate(0.5,200.5)"><path class="background" aria-hidden="true" d="M0,0h0v0h0Z" pointer-events="none"/><g><g class="mark-rule role-axis-tick" pointer-events="none"><line transform="translate(0,0)" x2="0" y2="5" stroke="#888" stroke-width="1" opacity="1"/><line transform="translate(40,0)" x2="0" y2="5" stroke="#888" stroke-width="1" opacity="1"/><line transform="translate(80,0)" x2="0" y2="5" stroke="#888" stroke-width="1" opacity="1"/><line transform="translate(120,0)" x2="0" y2="5" stroke="#888" stroke-width="1" opacity="1"/><line transform="translate(160,0)" x2="0" y2="5" stroke="#888" stroke-width="1" opacity="1"/><line transform="translate(200,0)" x2="0" y2="5" stroke="#888" stroke-width="1" opacity="1"/></g><g class="mark-text role-axis-label" pointer-events="none"><text text-anchor="start" transform="translate(0,15)" font-family="sans-serif" font-size="10px" fill="#000" opacity="1">0</text><text text-anchor="middle" transform="translate(40,15)" font-family="sans-serif" font-size="10px" fill="#000" opacity="1">200</text><text text-anchor="middle" transform="translate(80,15)" font-family="sans-serif" font-size="10px" fill="#000" opacity="1">400</text><text text-anchor="middle" transform="translate(120,15)" font-family="sans-serif" font-size="10px" fill="#000" opacity="1">600</text><text text-anchor="middle" transform="translate(160,15)" font-family="sans-serif" font-size="10px" fill="#000" opacity="1">800</text><text text-anchor="end" transform="translate(200,15)" font-family="sans-serif" font-size="10px" fill="#000" opacity="1">1,000</text></g><g class="mark-rule role-axis-domain" pointer-events="none"><line transform="translate(0,0)" x2="200" y2="0" stroke="#e1e8f0" stroke-width="1" opacity="1"/></g><g class="mark-text role-axis-title" pointer-events="none"><text text-anchor="middle" transform="translate(100,36)" font-family="sans-serif" font-size="11px" font-weight="400" fill="#1c2a3a" opacity="1">generation</text></g></g><path class="foreground" aria-hidden="true" d="" pointer-events="none" display="none"/></g></g><g class="mark-group role-axis" role="graphics-symbol" aria-roledescription="axis" aria-label="Y-axis titled 'distance' for a linear scale with values from 80 to 180"><g transform="translate(0.5,0.5)"><path class="background" aria-hidden="true" d="M0,0h0v0h0Z" pointer-events="none"/><g><g class="mark-rule role-axis-tick" pointer-events="none"><line transform="translate(0,200)" x2="-5" y2="0" stroke="#888" stroke-width="1" opacity="1"/><line transform="translate(0,160)" x2="-5" y2="0" stroke="#888" stroke-width="1" opacity="1"/><line transform="translate(0,120)" x2="-5" y2="0" stroke="#888" stroke-width="1" opacity="1"/><line transform="translate(0,80)" x2="-5" y2="0" stroke="#888" stroke-width="1" opacity="1"/><line transform="translate(0,40)" x2="-5" y2="0" stroke="#888" stroke-width="1" opacity="1"/><line transform="translate(0,0)" x2="-5" y2="0" stroke="#888" stroke-width="1" opacity="1"/></g><g class="mark-text role-axis-label" pointer-events="none"><text text-anchor="end" transform="translate(-13,204)" font-family="sans-serif" font-size="12px" fill="#000" opacity="1">80</text><text text-anchor="end" transform="translate(-13,164)" font-family="sans-serif" font-size="12px" fill="#000" opacity="1">100</text><text text-anchor="end" transform="translate(-13,124)" font-family="sans-serif" font-size="12px" fill="#000" opacity="1">120</text><text text-anchor="end" transform="translate(-13,84)" font-family="sans-serif" font-size="12px" fill="#000" opacity="1">140</text><text text-anchor="end" transform="translate(-13,43.99999999999999)" font-family="sans-serif" font-size="12px" fill="#000" opacity="1">160</text><text text-anchor="end" transform="translate(-13,4)" font-family="sans-serif" font-size="12px" fill="#000" opacity="1">180</text></g><g class="mark-rule role-axis-domain" pointer-events="none"><line transform="translate(0,200)" x2="0" y2="-200" stroke="#888" stroke-width="1" opacity="1"/></g><g class="mark-text role-axis-title" pointer-events="none"><text text-anchor="middle" transform="translate(-43.021484375,100) rotate(-90) translate(0,-3)" font-family="sans-serif" font-size="12px" font-weight="400" fill="#1c2a3a" opacity="1">distance</text></g></g><path class="foreground" aria-hidden="true" d="" pointer-events="none" display="none"/></g></g><g class="mark-line role-mark marks" role="graphics-object" aria-roledescription="line mark container"><path aria-label="generation: 0; distance: 157.030806191" role="graphics-symbol" aria-roledescription="line mark" d="M0,45.938L0.2,62.585L0.4,62.585L0.6,62.585L0.8,62.585L1,62.585L1.2,62.585L1.4,81.212L1.6,81.212L1.8,81.212L2,81.212L2.2,81.212L2.4,81.212L2.6,81.212L2.8,81.212L3,81.212L3.2,98.657L3.4,98.657L3.6,98.657L3.8,98.657L4,98.657L4.2,98.657L4.4,104.146L4.6,104.146L4.8,104.146L5,104.146L5.2,104.146L5.4,104.146L5.6,104.146L5.8,104.146L6,104.146L6.2,104.146L6.4,104.146L6.6,104.146L6.8,104.146L7,104.146L7.2,104.146L7.4,104.146L7.6,107.251L7.8,107.251L8,107.251L8.2,107.471L8.4,107.471L8.6,107.471L8.8,107.471L9,107.471L9.2,107.471L9.4,107.471L9.6,107.471L9.8,107.471L10,107.471L10.2,107.471L10.4,107.471L10.6,107.471L10.8,107.471L11,108.539L11.2,108.539L11.4,108.539L11.6,108.539L11.8,108.539L12,108.539L12.2,108.539L12.4,108.539L12.6,108.539L12.8,117.56L13,117.56L13.2,117.751L13.4,117.751L13.6,117.751L13.8,117.751L14,117.751L14.2,117.751L14.4,117.751L14.6,117.751L14.8,117.751L15,117.751L15.2,117.751L15.4,117.751L15.6,117.751L15.8,117.751L16,117.751L16.2,120.345L16.4,120.345L16.6,120.345L16.8,120.345L17,120.345L17.2,120.345L17.4,120.345L17.6,121.493L17.8,121.493L18,121.493L18.2,121.493L18.4,121.493L18.6,121.493L18.8,121.493L19,121.493L19.2,121.493L19.4,121.493L19.6,121.493L19.8,121.493L20,121.493L20.2,121.493L20.4,121.493L20.6,121.493L20.8,121.493L21,121.493L21.2,121.493L21.4,121.493L21.6,121.493L21.8,121.493L22,121.493L22.2,121.493L22.4,121.493L22.6,121.493L22.8,130.026L23,130.026L23.2,130.026L23.4,130.026L23.6,130.026L23.8,130.026L24,130.026L24.2,130.026L24.4,130.026L24.6,130.026L24.8,130.026L25,130.026L25.2,130.026L25.4,130.026L25.6,130.026L25.8,130.026L26,130.026L26.2,130.026L26.4,130.026L26.6,130.026L26.8,130.026L27,130.026L27.2,130.858L27.4,130.858L27.6,130.858L27.8,130.858L28,130.858L28.2,130.858L28.4,130.858L28.6,130.858L28.8,130.858L29,130.858L29.2,130.858L29.4,130.858L29.6,130.858L29.8,130.858L30,130.858L30.2,130.858L30.4,130.858L30.6,130.858L30.8,130.858L31,130.858L31.2,140.003L31.4,140.003L31.6,140.003L31.8,140.003L32,140.003L32.2,140.003L32.4,140.003L32.6,140.003L32.8,140.003L33,140.003L33.2,140.003L33.4,146.577L33.6,146.577L33.8,146.577L34,146.577L34.2,146.577L34.4,146.577L34.6,146.577L34.8,146.577L35,146.577L35.2,146.577L35.4,146.577L35.6,146.577L35.8,146.577L36,146.577L36.2,146.577L36.4,146.577L36.6,146.577L36.8,146.577L37,146.577L37.2,146.577L37.4,146.577L37.6,146.577L37.8,146.577L38,146.577L38.2,146.577L38.4,146.577L38.6,146.577L38.8,146.577L39,146.577L39.2,146.577L39.4,146.577L39.6,146.577L39.8,146.577L40,146.577L40.2,146.577L40.4,146.577L40.6,146.577L40.8,146.577L41,146.577L41.2,146.577L41.4,146.577L41.6,146.577L41.8,146.577L42,146.577L42.2,146.577L42.4,146.577L42.6,146.577L42.8,146.577L43,146.577L43.2,146.577L43.4,146.577L43.6,146.577L43.8,146.577L44,146.577L44.2,146.577L44.4,146.577L44.6,146.577L44.8,146.577L45,146.577L45.2,146.577L45.4,146.577L45.6,146.577L45.8,146.577L46,146.577L46.2,146.577L46.4,146.577L46.6,146.577L46.8,146.577L47,146.577L47.2,146.577L47.4,146.577L47.6,146.577L47.8,146.577L48,146.577L48.2,146.577L48.4,146.577L48.6,146.577L48.8,146.577L49,146.577L49.2,146.577L49.4,146.577L49.6,146.577L49.8,146.577L50,146.577L50.2,146.577L50.4,146.577L50.6,146.577L50.8,146.577L51,146.577L51.2,146.577L51.4,146.577L51.6,146.577L51.8,146.577L52,146.577L52.2,146.577L52.4,146.577L52.6,146.577L52.8,146.577L53,146.577L53.2,146.577L53.4,146.577L53.6,146.577L53.8,146.577L54,146.577L54.2,146.577L54.4,146.577L54.6,146.577L54.8,146.577L55,146.577L55.2,146.577L55.4,146.577L55.6,146.577L55.8,146.577L56,146.577L56.2,146.577L56.4,146.577L56.6,146.577L56.8,146.577L57,161.789L57.2,161.789L57.4,161.789L57.6,161.789L57.8,161.789L58,161.789L58.2,161.789L58.4,161.789L58.6,161.789L58.8,161.789L59,161.789L59.2,161.789L59.4,161.789L59.6,161.789L59.8,161.789L60,161.789L60.2,161.789L60.4,161.789L60.6,161.789L60.8,161.789L61,161.789L61.2,161.789L61.4,161.789L61.6,161.789L61.8,161.789L62,161.789L62.2,161.789L62.4,161.789L62.6,161.789L62.8,161.789L63,161.789L63.2,161.789L63.4,161.789L63.6,161.789L63.8,161.789L64,161.789L64.2,161.789L64.4,161.789L64.6,161.789L64.8,161.789L65,161.789L65.2,161.789L65.4,161.789L65.6,161.789L65.8,161.789L66,161.789L66.2,161.789L66.4,161.789L66.6,161.789L66.8,161.789L67,161.789L67.2,161.789L67.4,161.789L67.6,161.789L67.8,161.789L68,161.789L68.2,161.789L68.4,161.789L68.6,161.789L68.8,161.789L69,161.789L69.2,161.789L69.4,161.789L69.6,161.789L69.8,161.789L70,161.789L70.2,161.789L70.4,161.789L70.6,161.789L70.8,161.789L71,161.789L71.2,161.789L71.4,161.789L71.6,161.789L71.8,161.789L72,161.789L72.2,161.789L72.4,161.789L72.6,161.789L72.8,161.789L73,161.789L73.2,161.789L73.4,161.789L73.6,161.789L73.8,161.789L74,161.789L74.2,161.789L74.4,161.789L74.6,161.789L74.8,161.789L75,161.789L75.2,161.789L75.4,161.789L75.6,161.789L75.8,161.789L76,161.789L76.2,161.789L76.4,161.789L76.6,161.789L76.8,161.789L77,161.789L77.2,161.789L77.4,161.789L77.6,161.789L77.8,161.789L78,161.789L78.2,161.789L78.4,161.789L78.6,161.789L78.8,161.789L79,161.789L79.2,161.789L79.4,161.789L79.6,161.789L79.8,161.789L80,161.789L80.2,161.789L80.4,161.789L80.6,161.789L80.8,161.789L81,161.789L81.2,161.789L81.4,161.789L81.6,161.789L81.8,161.789L82,161.789L82.2,161.789L82.4,161.789L82.6,161.789L82.8,161.789L83,161.789L83.2,161.789L83.4,161.789L83.6,161.789L83.8,161.789L84,161.789L84.2,161.789L84.4,161.789L84.6,161.789L84.8,161.789L85,161.789L85.2,161.789L85.4,161.789L85.6,161.789L85.8,161.789L86,161.789L86.2,161.789L86.4,161.789L86.6,161.789L86.8,161.789L87,161.789L87.2,161.789L87.4,161.789L87.6,161.789L87.8,161.789L88,161.789L88.2,161.789L88.4,161.789L88.6,161.789L88.8,161.789L89,161.789L89.2,161.789L89.4,161.789L89.6,161.789L89.8,161.789L90,161.789L90.2,161.789L90.4,161.789L90.6,161.789L90.8,161.789L91,161.789L91.2,161.789L91.4,161.789L91.6,161.789L91.8,161.789L92,161.789L92.2,161.789L92.4,161.789L92.6,161.789L92.8,161.789L93,161.789L93.2,161.789L93.4,161.789L93.6,161.789L93.8,161.789L94,161.789L94.2,161.789L94.4,161.789L94.6,161.789L94.8,161.789L95,161.789L95.2,161.789L95.4,161.789L95.6,161.789L95.8,161.789L96,161.789L96.2,161.789L96.4,161.789L96.6,161.789L96.8,161.789L97,161.789L97.2,161.789L97.4,161.789L97.6,161.789L97.8,161.789L98,161.789L98.2,161.789L98.4,161.789L98.6,161.789L98.8,161.789L99,161.789L99.2,161.789L99.4,161.789L99.6,161.789L99.8,161.789L100,161.789L100.2,161.789L100.4,161.789L100.6,161.789L100.8,161.789L101,161.789L101.2,161.789L101.4,161.789L101.6,161.789L101.8,161.789L102,161.789L102.2,161.789L102.4,161.789L102.6,161.789L102.8,161.789L103,161.789L103.2,161.789L103.4,161.789L103.6,161.789L103.8,161.789L104,161.789L104.2,161.789L104.4,161.789L104.6,161.789L104.8,161.789L105,161.789L105.2,161.789L105.4,161.789L105.6,161.789L105.8,161.789L106,161.789L106.2,161.789L106.4,161.789L106.6,161.789L106.8,161.789L107,161.789L107.2,161.789L107.4,161.789L107.6,161.789L107.8,161.789L108,161.789L108.2,161.789L108.4,161.789L108.6,161.789L108.8,161.789L109,161.789L109.2,161.789L109.4,161.789L109.6,161.789L109.8,161.789L110,161.789L110.2,161.789L110.4,161.789L110.6,161.789L110.8,161.789L111,161.789L111.2,161.789L111.4,161.789L111.6,161.789L111.8,161.789L112,161.789L112.2,161.789L112.4,161.789L112.6,161.789L112.8,161.789L113,161.789L113.2,161.789L113.4,161.789L113.6,161.789L113.8,161.789L114,161.789L114.2,161.789L114.4,161.789L114.6,161.789L114.8,161.789L115,161.789L115.2,161.789L115.4,161.789L115.6,161.789L115.8,161.789L116,161.789L116.2,161.789L116.4,161.789L116.6,161.789L116.8,161.789L117,161.789L117.2,161.789L117.4,161.789L117.6,161.789L117.8,161.789L118,161.789L118.2,161.789L118.4,161.789L118.6,162.424L118.8,162.424L119,162.424L119.2,162.424L119.4,162.424L119.6,162.424L119.8,162.424L120,162.424L120.2,162.424L120.4,162.424L120.6,162.424L120.8,162.424L121,162.424L121.2,162.424L121.4,162.424L121.6,162.424L121.8,162.424L122,162.424L122.2,162.424L122.4,162.424L122.6,162.424L122.8,162.424L123,162.424L123.2,162.424L123.4,162.424L123.6,162.424L123.8,162.424L124,162.424L124.2,162.424L124.4,162.424L124.6,162.424L124.8,162.424L125,162.424L125.2,162.424L125.4,162.424L125.6,162.424L125.8,162.424L126,162.424L126.2,162.424L126.4,162.424L126.6,162.424L126.8,162.424L127,162.424L127.2,167.801L127.4,167.801L127.6,167.801L127.8,167.801L128,167.801L128.2,167.801L128.4,167.801L128.6,167.801L128.8,167.801L129,167.801L129.2,167.801L129.4,167.801L129.6,167.801L129.8,167.801L130,167.801L130.2,167.801L130.4,167.801L130.6,167.801L130.8,167.801L131,167.801L131.2,167.801L131.4,167.801L131.6,167.801L131.8,167.801L132,167.801L132.2,167.801L132.4,167.801L132.6,167.801L132.8,167.801L133,167.801L133.2,167.801L133.4,167.801L133.6,169.825L133.8,169.825L134,169.825L134.2,169.825L134.4,169.825L134.6,169.825L134.8,169.825L135,169.825L135.2,169.825L135.4,169.825L135.6,169.825L135.8,169.825L136,169.825L136.2,169.825L136.4,169.825L136.6,169.825L136.8,169.825L137,169.825L137.2,169.825L137.4,169.825L137.6,169.825L137.8,169.825L138,169.825L138.2,169.825L138.4,169.825L138.6,169.825L138.8,169.825L139,169.825L139.2,169.825L139.4,169.825L139.6,169.825L139.8,169.825L140,169.825L140.2,169.825L140.4,169.825L140.6,169.825L140.8,169.825L141,169.825L141.2,169.825L141.4,169.825L141.6,169.825L141.8,169.825L142,169.825L142.2,169.825L142.4,169.825L142.6,169.825L142.8,169.825L143,169.825L143.2,169.825L143.4,169.825L143.6,169.825L143.8,169.825L144,169.825L144.2,169.825L144.4,169.825L144.6,169.825L144.8,169.825L145,169.825L145.2,169.825L145.4,169.825L145.6,169.825L145.8,169.825L146,169.825L146.2,169.825L146.4,169.825L146.6,169.825L146.8,169.825L147,169.825L147.2,169.825L147.4,169.825L147.6,169.825L147.8,169.825L148,169.825L148.2,169.825L148.4,169.825L148.6,169.825L148.8,169.825L149,169.825L149.2,169.825L149.4,169.825L149.6,169.825L149.8,169.825L150,169.825L150.2,169.825L150.4,169.825L150.6,169.825L150.8,169.825L151,169.825L151.2,169.825L151.4,169.825L151.6,169.825L151.8,169.825L152,169.825L152.2,169.825L152.4,169.825L152.6,169.825L152.8,169.825L153,169.825L153.2,169.825L153.4,169.825L153.6,169.825L153.8,169.825L154,169.825L154.2,169.825L154.4,169.825L154.6,169.825L154.8,169.825L155,169.825L155.2,169.825L155.4,169.825L155.6,169.825L155.8,169.825L156,169.825L156.2,169.825L156.4,169.825L156.6,169.825L156.8,169.825L157,169.825L157.2,169.825L157.4,169.825L157.6,169.825L157.8,169.825L158,169.825L158.2,169.825L158.4,169.825L158.6,169.825L158.8,169.825L159,169.825L159.2,169.825L159.4,169.825L159.6,169.825L159.8,169.825L160,169.825L160.2,169.825L160.4,169.825L160.6,169.825L160.8,169.825L161,169.825L161.2,169.825L161.4,169.825L161.6,169.825L161.8,169.825L162,169.825L162.2,169.825L162.4,169.825L162.6,169.825L162.8,169.825L163,169.825L163.2,169.825L163.4,169.825L163.6,169.825L163.8,169.825L164,169.825L164.2,169.825L164.4,169.825L164.6,169.825L164.8,169.825L165,169.825L165.2,169.825L165.4,169.825L165.6,169.825L165.8,169.825L166,169.825L166.2,169.825L166.4,169.825L166.6,169.825L166.8,169.825L167,169.825L167.2,169.825L167.4,169.825L167.6,169.825L167.8,169.825L168,169.825L168.2,169.825L168.4,169.825L168.6,169.825L168.8,169.825L169,169.825L169.2,169.825L169.4,169.825L169.6,169.825L169.8,169.825L170,169.825L170.2,169.825L170.4,169.825L170.6,169.825L170.8,169.825L171,169.825L171.2,169.825L171.4,169.825L171.6,169.825L171.8,169.825L172,169.825L172.2,169.825L172.4,169.825L172.6,169.825L172.8,169.825L173,169.825L173.2,169.825L173.4,169.825L173.6,169.825L173.8,169.825L174,169.825L174.2,169.825L174.4,169.825L174.6,169.825L174.8,169.825L175,169.825L175.2,169.825L175.4,169.825L175.6,169.825L175.8,169.825L176,169.825L176.2,169.825L176.4,169.825L176.6,177.366L176.8,177.366L177,177.366L177.2,177.366L177.4,177.366L177.6,177.366L177.8,177.366L178,177.366L178.2,177.366L178.4,177.366L178.6,177.366L178.8,177.366L179,177.366L179.2,177.366L179.4,177.366L179.6,177.366L179.8,177.366L180,179.276L180.2,179.276L180.4,179.276L180.6,179.276L180.8,179.276L181,179.276L181.2,179.276L181.4,179.276L181.6,179.276L181.8,179.276L182,179.276L182.2,179.276L182.4,179.276L182.6,179.276L182.8,179.276L183,179.276L183.2,179.276L183.4,179.276L183.6,179.276L183.8,179.276L184,179.276L184.2,179.276L184.4,179.276L184.6,179.276L184.8,179.276L185,179.276L185.2,179.276L185.4,179.276L185.6,179.276L185.8,179.276L186,179.276L186.2,179.276L186.4,179.276L186.6,179.276L186.8,179.276L187,179.276L187.2,179.276L187.4,179.276L187.6,179.276L187.8,179.276L188,179.276L188.2,179.276L188.4,179.276L188.6,179.276L188.8,179.276L189,179.276L189.2,179.276L189.4,179.276L189.6,179.276L189.8,179.276L190,179.276L190.2,179.276L190.4,179.276L190.6,179.276L190.8,179.276L191,179.276L191.2,179.276L191.4,179.276L191.6,179.276L191.8,179.276L192,179.276L192.2,179.276L192.4,179.276L192.6,179.276L192.8,179.276L193,179.276L193.2,179.276L193.4,179.276L193.6,179.276L193.8,179.276L194,179.276L194.2,179.276L194.4,179.276L194.6,179.276L194.8,179.276L195,179.276L195.2,179.276L195.4,179.276L195.6,179.276L195.8,179.276L196,179.276L196.2,179.276L196.4,179.276L196.6,179.276L196.8,179.276L197,179.276L197.2,179.276L197.4,179.276L197.6,179.276L197.8,179.276L198,179.276L198.2,179.276L198.4,179.276L198.6,179.276L198.8,179.276L199,179.276L199.2,179.276L199.4,179.276L199.6,179.276L199.8,179.276L200,179.276" stroke="#6583ff" stroke-width="2"/></g></g><path class="foreground" aria-hidden="true" d="" display="none"/></g></g></g></svg>