<svg xmlns="http://www.w3.org/2000/svg" xmlns:xlink="http://www.w3.org/1999/xlink" version="1.1" class="marks" width="269" height="254" viewBox="0 0 269 254"><rect width="269" height="254" fill="#fff"/><g fill="none" stroke-miterlimit="10" transform="translate(62,11)"><g class="mark-group role-frame root" role="graphics-object" aria-roledescription="group mark container"><g transform="translate(0,0)"><path class="background" aria-hidden="true" d="M0.5,0.5h200v200h-200Z" stroke="#ddd"/><g><g class="mark-group role-axis" aria-hidden="true"><g transform="translate(0.5,200.5)"><path class="background" aria-hidden="true" d="M0,0h0v0h0Z" pointer-events="none"/><g><g class="mark-rule role-axis-grid" pointer-events="none"><line transform="translate(0,-200)" x2="0" y2="200" stroke="#ddd" stroke-width="1" opacity="1"/><line transform="translate(40,-200)" x2="0" y2="200" stroke="#ddd" stroke-width="1" opacity="1"/><line transform="translate(80,-200)" x2="0" y2="200" stroke="#ddd" stroke-width="1" opacity="1"/><line transform="translate(120,-200)" x2="0" y2="200" stroke="#ddd" stroke-width="1" opacity="1"/><line transform="translate(160,-200)" x2="0" y2="200" stroke="#ddd" stroke-width="1" opacity="1"/><line transform="translate(200,-200)" x2="0" y2="200" stroke="#ddd" stroke-width="1" opacity="1"/></g></g><path class="foreground" aria-hidden="true" d="" pointer-events="none" display="none"/></g></g><g class="mark-group role-axis" aria-hidden="true"><g transform="translate(0.5,0.5)"><path class="background" aria-hidden="true" d="M0,0h0v0h0Z" pointer-events="none"/><g><g class="mark-rule role-axis-grid" pointer-events="none"><line transform="translate(0,200)" x2="200" y2="0" stroke="#e1e8f0" stroke-width="1" opacity="1"/><line transform="translate(0,160)" x2="200" y2="0" stroke="#e1e8f0" stroke-width="1" opacity="1"/><line transform="translate(0,120)" x2="200" y2="0" stroke="#e1e8f0" stroke-width="1" opacity="1"/><line transform="translate(0,80)" x2="200" y2="0" stroke="#e1e8f0" stroke-width="1" opacity="1"/><line transform="translate(0,40)" x2="200" y2="0" stroke="#e1e8f0" stroke-width="1" opacity="1"/><line transform="translate(0,0)" x2="200" y2="0" stroke="#e1e8f0" stroke-width="1" opacity="1"/></g></g><path class="foreground" aria-hidden="true" d="" pointer-events="none" display="none"/></g></g><g class="mark-group role-axis" role="graphics-symbol" aria-roledescription="axis" aria-label="X-axis titled 'generation' for a linear scale with values from 0 to 1,000"><g transform="translate(0.5,200.5)"><path class="background" aria-hidden="true" d="M0,0h0v0h0Z" pointer-events="none"/><g><g class="mark-rule role-axis-tick" pointer-events="none"><line transform="translate(0,0)" x2="0" y2="5" stroke="#888" stroke-width="1" opacity="1"/><line transform="translate(40,0)" x2="0" y2="5" stroke="#888" stroke-width="1" opacity="1"/><line transform="translate(80,0)" x2="0" y2="5" stroke="#888" stroke-width="1" opacity="1"/><line transform="translate(120,0)" x2="0" y2="5" stroke="#888" stroke-width="1" opacity="1"/><line transform="translate(160,0)" x2="0" y2="5" stroke="#888" stroke-width="1" opacity="1"/><line transform="translate(200,0)" x2="0" y2="5" stroke="#888" stroke-width="1" opacity="1"/></g><g class="mark-text role-axis-label" pointer-events="none"><text text-anchor="start" transform="translate(0,15)" font-family="sans-serif" font-size="10px" fill="#000" opacity="1">0</text><text text-anchor="middle" transform="translate(40,15)" font-family="sans-serif" font-size="10px" fill="#000" opacity="1">200</text><text text-anchor="middle" transform="translate(80,15)" font-family="sans-serif" font-size="10px" fill="#000" opacity="1">400</text><text text-anchor="middle" transform="translate(120,15)" font-family="sans-serif" font-size="10px" fill="#000" opacity="1">600</text><text text-anchor="middle" transform="translate(160,15)" font-family="sans-serif" font-size="10px" fill="#000" opacity="1">800</text><text text-anchor="end" transform="translate(200,15)" font-family="sans-serif" font-size="10px" fill="#000" opacity="1">1,000</text></g><g class="mark-rule role-axis-domain" pointer-events="none"><line transform="translate(0,0)" x2="200" y2="0" stroke="#e1e8f0" stroke-width="1" opacity="1"/></g><g class="mark-text role-axis-title" pointer-events="none"><text text-anchor="middle" transform="translate(100,36)" font-family="sans-serif" font-size="11px" font-weight="400" fill="#1c2a3a" opacity="1">generation</text></g></g><path class="foreground" aria-hidden="true" d="" pointer-events="none" display="none"/></g></g><g class="mark-group role-axis" role="graphics-symbol" aria-roledescription="axis" aria-label="Y-axis titled 'distance' for a linear scale with values from 80 to 180"><g transform="translate(0.5,0.5)"><path class="background" aria-hidden="true" d="M0,0h0v0h0Z" pointer-events="none"/><g><g class="mark-rule role-axis-tick" pointer-events="none"><line transform="translate(0,200)" x2="-5" y2="0" stroke="#888" stroke-width="1" opacity="1"/><line transform="translate(0,160)" x2="-5" y2="0" stroke="#888" stroke-width="1" opacity="1"/><line transform="translate(0,120)" x2="-5" y2="0" stroke="#888" stroke-width="1" opacity="1"/><line transform="translate(0,80)" x2="-5" y2="0" stroke="#888" stroke-width="1" opacity="1"/><line transform="translate(0,40)" x2="-5" y2="0" stroke="#888" stroke-width="1" opacity="1"/><line transform="translate(0,0)" x2="-5" y2="0" stroke="#888" stroke-width="1" opacity="1"/></g><g class="mark-text role-axis-label" pointer-events="none"><text text-anchor="end" transform="translate(-13,204)" font-family="sans-serif" font-size="12px" fill="#000" opacity="1">80</text><text text-anchor="end" transform="translate(-13,164)" font-family="sans-serif" font-size="12px" fill="#000" opacity="1">100</text><text text-anchor="end" transform="translate(-13,124)" font-family="sans-serif" font-size="12px" fill="#000" opacity="1">120</text><text text-anchor="end" transform="translate(-13,84)" font-family="sans-serif" font-size="12px" fill="#000" opacity="1">140</text><text text-anchor="end" transform="translate(-13,43.99999999999999)" font-family="sans-serif" font-size="12px" fill="#000" opacity="1">160</text><text text-anchor="end" transform="translate(-13,4)" font-family="sans-serif" font-size="12px" fill="#000" opacity="1">180</text></g><g class="mark-rule role-axis-domain" pointer-events="none"><line transform="translate(0,200)" x2="0" y2="-200" stroke="#888" stroke-width="1" opacity="1"/></g><g class="mark-text role-axis-title" pointer-events="none"><text text-anchor="middle" transform="translate(-43.021484375,100) rotate(-90) translate(0,-3)" font-family="sans-serif" font-size="12px" font-weight="400" fill="#1c2a3a" opacity="1">distance</text></g></g><path class="foreground" aria-hidden="true" d="" pointer-events="none" display="none"/></g></g><g class="mark-line role-mark marks" role="graphics-object" aria-roledescription="line mark container"><path aria-label="generation: 0; distance: 166.42575329" role="graphics-symbol" aria-roledescription="line mark" d="M0,27.148L0.2,27.148L0.4,27.148L0.6,27.148L0.8,27.148L1,27.148L1.2,27.148L1.4,27.148L1.6,27.148L1.8,27.148L2,27.148L2.2,27.148L2.4,27.148L2.6,27.148L2.8,27.148L3,27.148L3.2,27.148L3.4,27.148L3.6,27.148L3.8,27.148L4,27.148L4.2,27.148L4.4,27.148L4.6,27.148L4.8,27.148L5,27.148L5.2,27.148L5.4,27.148L5.6,27.148L5.8,27.148L6,27.148L6.2,27.148L6.4,27.148L6.6,27.148L6.8,27.148L7,27.148L7.2,27.148L7.4,27.148L7.6,27.148L7.8,27.148L8,27.148L8.2,27.148L8.4,27.148L8.6,27.148L8.8,27.148L9,27.148L9.2,27.148L9.4,27.148L9.6,27.148L9.8,27.148L10,27.148L10.2,27.148L10.4,27.148L10.6,27.148L10.8,27.148L11,27.148L11.2,27.148L11.4,27.148L11.6,27.148L11.8,27.148L12,27.148L12.2,27.148L12.4,27.148L12.6,27.148L12.8,27.148L13,62.24L13.2,62.24L13.4,62.24L13.6,62.24L13.8,62.24L14,62.24L14.2,62.24L14.4,62.24L14.6,62.24L14.8,62.24L15,62.24L15.2,62.24L15.4,62.24L15.6,80.066L15.8,80.066L16,80.066L16.2,80.066L16.4,80.066L16.6,80.066L16.8,80.066L17,80.066L17.2,80.066L17.4,80.066L17.6,80.066L17.8,80.066L18,80.066L18.2,80.066L18.4,80.066L18.6,80.066L18.8,80.066L19,80.066L19.2,80.066L19.4,80.066L19.6,80.066L19.8,80.066L20,80.066L20.2,80.066L20.4,80.066L20.6,80.066L20.8,80.066L21,80.066L21.2,80.066L21.4,80.066L21.6,80.066L21.8,80.066L22,80.066L22.2,80.066L22.4,80.066L22.6,80.066L22.8,80.066L23,80.066L23.2,80.066L23.4,80.066L23.6,80.066L23.8,80.066L24,80.066L24.2,80.066L24.4,80.066L24.6,80.066L24.8,80.066L25,80.066L25.2,80.066L25.4,80.066L25.6,80.066L25.8,80.066L26,80.066L26.2,80.066L26.4,80.066L26.6,80.066L26.8,80.066L27,80.066L27.2,80.066L27.4,80.066L27.6,80.066L27.8,80.066L28,80.066L28.2,80.066L28.4,80.066L28.6,80.066L28.8,80.066L29,80.066L29.2,80.066L29.4,80.066L29.6,80.066L29.8,80.066L30,80.066L30.2,80.066L30.4,80.066L30.6,80.066L30.8,80.066L31,80.066L31.2,80.066L31.4,80.066L31.6,80.066L31.8,80.066L32,80.066L32.2,80.066L32.4,80.066L32.6,80.066L32.8,80.066L33,80.066L33.2,80.066L33.4,80.066L33.6,80.066L33.8,80.066L34,80.066L34.2,80.066L34.4,80.066L34.6,80.066L34.8,80.066L35,80.066L35.2,80.066L35.4,80.066L35.6,80.066L35.8,80.066L36,80.066L36.2,80.066L36.4,80.066L36.6,80.066L36.8,80.066L37,80.066L37.2,80.066L37.4,80.066L37.6,80.066L37.8,80.066L38,80.066L38.2,80.066L38.4,80.066L38.6,80.066L38.8,80.066L39,80.066L39.2,80.066L39.4,80.066L39.6,80.066L39.8,80.066L40,80.066L40.2,80.066L40.4,80.066L40.6,80.066L40.8,80.066L41,80.066L41.2,80.066L41.4,80.066L41.6,80.066L41.8,80.066L42,80.066L42.2,80.066L42.4,80.066L42.6,80.066L42.8,80.066L43,80.066L43.2,80.066L43.4,80.066L43.6,80.066L43.8,80.066L44,80.066L44.2,80.066L44.4,80.066L44.6,80.066L44.8,80.066L45,80.066L45.2,80.066L45.4,80.066L45.6,80.066L45.8,80.066L46,80.066L46.2,80.066L46.4,80.066L46.6,80.066L46.8,80.066L47,80.066L47.2,80.066L47.4,80.066L47.6,80.066L47.8,80.066L48,80.066L48.2,80.066L48.4,80.066L48.6,80.066L48.8,80.066L49,80.066L49.2,80.066L49.4,80.066L49.6,80.066L49.8,80.066L50,80.066L50.2,80.066L50.4,80.066L50.6,80.066L50.8,80.066L51,80.066L51.2,80.066L51.4,80.066L51.6,80.066L51.8,80.066L52,80.066L52.2,80.066L52.4,80.066L52.6,80.066L52.8,80.066L53,80.066L53.2,80.066L53.4,80.066L53.6,80.066L53.8,80.066L54,80.066L54.2,80.066L54.4,80.066L54.6,80.066L54.8,80.066L55,80.066L55.2,80.066L55.4,80.066L55.6,80.066L55.8,80.066L56,80.066L56.2,80.066L56.4,80.066L56.6,80.066L56.8,80.066L57,80.066L57.2,80.066L57.4,80.066L57.6,80.066L57.8,80.066L58,80.066L58.2,80.066L58.4,80.066L58.6,80.066L58.8,80.066L59,80.066L59.2,80.066L59.4,80.066L59.6,80.066L59.8,80.066L60,80.066L60.2,80.066L60.4,80.066L60.6,80.066L60.8,80.066L61,80.066L61.2,80.066L61.4,80.066L61.6,80.066L61.8,80.066L62,80.066L62.2,80.066L62.4,80.066L62.6,80.066L62.8,80.066L63,80.066L63.2,80.066L63.4,80.066L63.6,80.066L63.8,80.066L64,80.066L64.2,80.066L64.4,80.066L64.6,80.066L64.8,80.066L65,80.066L65.2,80.066L65.4,80.066L65.6,80.066L65.8,80.066L66,80.066L66.2,80.066L66.4,80.066L66.6,80.066L66.8,80.066L67,80.066L67.2,80.066L67.4,80.066L67.6,80.066L67.8,80.066L68,80.066L68.2,80.066L68.4,80.066L68.6,80.066L68.8,80.066L69,80.066L69.2,80.066L69.4,80.066L69.6,80.066L69.8,80.066L70,80.066L70.2,80.066L70.4,80.066L70.6,80.066L70.8,80.066L71,80.066L71.2,80.066L71.4,80.066L71.6,80.066L71.8,80.066L72,80.066L72.2,89.404L72.4,89.404L72.6,89.404L72.8,89.404L73,89.404L73.2,89.404L73.4,89.404L73.6,89.404L73.8,89.404L74,89.404L74.2,89.404L74.4,89.404L74.6,89.404L74.8,89.404L75,89.404L75.2,89.404L75.4,89.404L75.6,89.404L75.8,89.404L76,89.404L76.2,89.404L76.4,89.404L76.6,89.404L76.8,89.404L77,89.404L77.2,89.404L77.4,89.404L77.6,89.404L77.8,89.404L78,89.404L78.2,89.404L78.4,89.404L78.6,89.404L78.8,89.404L79,89.404L79.2,89.404L79.4,89.404L79.6,89.883L79.8,89.883L80,89.883L80.2,89.883L80.4,89.883L80.6,89.883L80.8,89.883L81,89.883L81.2,89.883L81.4,89.883L81.6,89.883L81.8,89.883L82,89.883L82.2,89.883L82.4,89.883L82.6,89.883L82.8,89.883L83,89.883L83.2,89.883L83.4,89.883L83.6,89.883L83.8,89.883L84,89.883L84.2,89.883L84.4,89.883L84.6,89.883L84.8,90.037L85,90.037L85.2,90.037L85.4,90.037L85.6,90.037L85.8,90.037L86,90.037L86.2,90.037L86.4,90.037L86.6,90.037L86.8,90.037L87,90.037L87.2,90.037L87.4,90.037L87.6,90.037L87.8,90.037L88,90.037L88.2,90.037L88.4,90.037L88.6,90.037L88.8,90.037L89,90.037L89.2,90.037L89.4,90.037L89.6,90.037L89.8,90.037L90,90.037L90.2,90.037L90.4,90.037L90.6,90.037L90.8,90.037L91,90.037L91.2,90.037L91.4,90.037L91.6,90.037L91.8,90.037L92,90.037L92.2,90.037L92.4,90.037L92.6,90.037L92.8,90.037L93,90.037L93.2,90.037L93.4,90.037L93.6,90.037L93.8,90.037L94,90.037L94.2,90.037L94.4,90.037L94.6,90.037L94.8,90.037L95,90.037L95.2,90.037L95.4,90.037L95.6,90.037L95.8,90.037L96,90.037L96.2,90.037L96.4,90.037L96.6,90.037L96.8,90.037L97,90.037L97.2,90.037L97.4,90.037L97.6,90.037L97.8,90.037L98,90.037L98.2,90.037L98.4,90.037L98.6,90.037L98.8,90.037L99,90.037L99.2,90.037L99.4,90.037L99.6,90.037L99.8,90.037L100,90.037L100.2,90.037L100.4,90.037L100.6,90.037L100.8,90.037L101,90.037L101.2,90.037L101.4,90.037L101.6,90.037L101.8,90.037L102,90.037L102.2,90.037L102.4,90.037L102.6,90.037L102.8,90.037L103,90.037L103.2,90.037L103.4,90.037L103.6,90.037L103.8,90.037L104,90.037L104.2,90.037L104.4,90.037L104.6,90.037L104.8,90.037L105,90.037L105.2,90.037L105.4,90.037L105.6,90.037L105.8,90.037L106,90.037L106.2,90.037L106.4,90.037L106.6,90.037L106.8,90.037L107,90.037L107.2,90.037L107.4,90.037L107.6,90.037L107.8,90.037L108,90.037L108.2,90.037L108.4,90.037L108.6,90.037L108.8,90.037L109,90.037L109.2,90.037L109.4,90.037L109.6,90.037L109.8,90.037L110,99.439L110.2,99.439L110.4,99.439L110.6,99.439L110.8,99.439L111,99.439L111.2,99.439L111.4,99.439L111.6,99.439L111.8,99.439L112,99.439L112.2,99.439L112.4,99.439L112.6,99.439L112.8,99.439L113,99.439L113.2,99.439L113.4,99.439L113.6,99.439L113.8,99.439L114,99.439L114.2,99.439L114.4,99.439L114.6,99.439L114.8,99.439L115,99.439L115.2,99.439L115.4,99.439L115.6,99.439L115.8,99.439L116,99.439L116.2,99.439L116.4,99.439L116.6,99.439L116.8,99.439L117,99.439L117.2,99.439L117.4,99.439L117.6,99.439L117.8,99.439L118,99.439L118.2,99.439L118.4,99.439L118.6,99.439L118.8,99.439L119,99.439L119.2,99.439L119.4,99.439L119.6,99.439L119.8,99.439L120,99.439L120.2,99.439L120.4,99.439L120.6,99.439L120.8,99.439L121,99.439L121.2,99.439L121.4,99.439L121.6,99.439L121.8,99.439L122,99.439L122.2,99.439L122.4,99.439L122.6,99.439L122.8,99.439L123,99.439L123.2,99.439L123.4,99.439L123.6,99.439L123.8,99.439L124,99.439L124.2,99.439L124.4,99.439L124.6,99.439L124.8,99.439L125,99.439L125.2,99.439L125.4,99.439L125.6,99.439L125.8,99.439L126,99.439L126.2,99.439L126.4,99.439L126.6,99.439L126.8,99.439L127,99.439L127.2,99.439L127.4,99.439L127.6,99.439L127.8,99.439L128,99.439L128.2,99.439L128.4,99.439L128.6,99.439L128.8,99.439L129,99.439L129.2,99.439L129.4,99.439L129.6,99.439L129.8,99.439L130,99.439L130.2,99.439L130.4,99.439L130.6,99.439L130.8,99.439L131,99.439L131.2,99.439L131.4,99.439L131.6,99.439L131.8,99.439L132,99.439L132.2,99.439L132.4,99.439L132.6,108.072L132.8,108.072L133,108.072L133.2,108.072L133.4,108.072L133.6,108.072L133.8,108.072L134,108.072L134.2,108.072L134.4,108.072L134.6,108.072L134.8,108.072L135,108.072L135.2,108.072L135.4,108.072L135.6,108.072L135.8,108.072L136,108.072L136.2,108.072L136.4,108.072L136.6,108.072L136.8,108.072L137,108.072L137.2,108.072L137.4,108.072L137.6,108.072L137.8,108.072L138,108.072L138.2,108.072L138.4,108.072L138.6,108.072L138.8,108.072L139,108.072L139.2,108.072L139.4,108.072L139.6,108.072L139.8,108.072L140,108.072L140.2,108.072L140.4,108.072L140.6,108.072L140.8,108.072L141,108.072L141.2,108.072L141.4,108.072L141.6,108.072L141.8,108.072L142,108.072L142.2,108.072L142.4,108.072L142.6,108.072L142.8,108.072L143,108.072L143.2,108.072L143.4,108.072L143.6,108.072L143.8,108.072L144,108.072L144.2,108.072L144.4,108.072L144.6,108.072L144.8,108.072L145,108.072L145.2,108.072L145.4,108.072L145.6,108.072L145.8,108.072L146,108.072L146.2,108.072L146.4,108.072L146.6,108.072L146.8,108.072L147,108.072L147.2,108.072L147.4,108.072L147.6,108.072L147.8,108.072L148,108.072L148.2,108.072L148.4,108.072L148.6,108.072L148.8,108.072L149,108.072L149.2,108.072L149.4,108.072L149.6,108.072L149.8,108.072L150,108.072L150.2,108.072L150.4,108.072L150.6,108.072L150.8,108.072L151,108.072L151.2,108.072L151.4,108.072L151.6,108.072L151.8,108.072L152,108.072L152.2,108.072L152.4,108.072L152.6,108.072L152.8,108.072L153,108.072L153.2,108.072L153.4,108.072L153.6,108.072L153.8,108.072L154,108.072L154.2,108.072L154.4,108.072L154.6,108.072L154.8,108.072L155,108.072L155.2,108.072L155.4,108.072L155.6,108.072L155.8,108.072L156,108.072L156.2,108.072L156.4,108.072L156.6,108.072L156.8,108.072L157,108.072L157.2,108.072L157.4,108.072L157.6,108.072L157.8,108.072L158,108.072L158.2,108.072L158.4,108.072L158.6,108.072L158.8,108.072L159,108.072L159.2,108.072L159.4,108.072L159.6,108.072L159.8,108.072L160,108.072L160.2,108.072L160.4,114.729L160.6,114.729L160.8,114.729L161,114.729L161.2,114.729L161.4,114.729L161.6,114.729L161.8,114.729L162,114.729L162.2,114.729L162.4,114.729L162.6,114.729L162.8,114.729L163,114.729L163.2,114.729L163.4,114.729L163.6,114.729L163.8,114.729L164,114.729L164.2,114.729L164.4,114.729L164.6,114.729L164.8,114.729L165,114.729L165.2,114.729L165.4,114.729L165.6,114.729L165.8,114.729L166,114.729L166.2,114.729L166.4,114.729L166.6,114.729L166.8,114.729L167,114.729L167.2,114.729L167.4,114.729L167.6,114.729L167.8,114.729L168,114.729L168.2,114.729L168.4,114.729L168.6,114.729L168.8,114.729L169,114.729L169.2,114.729L169.4,114.729L169.6,115.27L169.8,115.27L170,118.034L170.2,118.034L170.4,118.034L170.6,118.034L170.8,118.034L171,118.034L171.2,118.034L171.4,118.034L171.6,118.034L171.8,118.034L172,118.034L172.2,118.034L172.4,118.034L172.6,118.034L172.8,118.034L173,118.034L173.2,118.034L173.4,118.034L173.6,118.034L173.8,118.034L174,118.034L174.2,118.034L174.4,118.034L174.6,118.034L174.8,118.034L175,118.034L175.2,118.034L175.4,118.034L175.6,118.034L175.8,118.034L176,118.034L176.2,118.034L176.4,118.034L176.6,118.034L176.8,118.034L177,118.034L177.2,118.034L177.4,118.034L177.6,118.034L177.8,118.034L178,118.034L178.2,118.034L178.4,118.034L178.6,118.034L178.8,118.034L179,118.034L179.2,118.034L179.4,118.034L179.6,118.034L179.8,118.034L180,118.034L180.2,118.034L180.4,118.034L180.6,118.034L180.8,118.034L181,118.034L181.2,118.034L181.4,118.034L181.6,118.034L181.8,118.034L182,118.034L182.2,118.034L182.4,118.034L182.6,118.034L182.8,118.034L183,118.034L183.2,118.034L183.4,118.034L183.6,118.034L183.8,118.034L184,118.034L184.2,118.034L184.4,118.034L184.6,118.034L184.8,118.034L185,118.034L185.2,118.034L185.4,118.034L185.6,118.034L185.8,118.034L186,118.034L186.2,118.034L186.4,118.034L186.6,118.034L186.8,118.034L187,118.034L187.2,118.034L187.4,118.034L187.6,118.034L187.8,118.034L188,118.034L188.2,118.034L188.4,118.034L188.6,118.034L188.8,118.034L189,118.034L189.2,118.034L189.4,118.034L189.6,118.034L189.8,118.034L190,118.034L190.2,118.034L190.4,118.034L190.6,118.034L190.8,118.034L191,118.034L191.2,118.034L191.4,118.034L191.6,118.034L191.8,118.034L192,118.034L192.2,118.034L192.4,118.034L192.6,118.034L192.8,118.034L193,118.034L193.2,118.034L193.4,118.034L193.6,118.034L193.8,118.034L194,118.034L194.2,118.034L194.4,118.034L194.6,118.034L194.8,118.034L195,118.034L195.2,118.034L195.4,118.034L195.6,118.034L195.8,118.034L196,118.034L196.2,118.034L196.4,118.034L196.6,118.034L196.8,118.034L197,118.034L197.2,118.034L197.4,118.034L197.6,118.034L197.8,118.034L198,118.034L198.2,118.034L198.4,118.034L198.6,118.034L198.8,118.034L199,118.034L199.2,126.106L199.4,126.106L199.6,126.106L199.8,126.106L200,126.106" stroke="#6583ff" stroke-width="2"/></g></g><path class="foreground" aria-hidden="true" d="" display="none"/></g></g></g></svg>