<svg xmlns="http://www.w3.org/2000/svg" xmlns:xlink="http://www.w3.org/1999/xlink" version="1.1" class="marks" width="265" height="254" viewBox="0 0 265 254"><rect width="265" height="254" fill="#fff"/><g fill="none" stroke-miterlimit="10" transform="translate(58,11)"><g class="mark-group role-frame root" role="graphics-object" aria-roledescription="group mark container"><g transform="translate(0,0)"><path class="background" aria-hidden="true" d="M0.5,0.5h200v200h-200Z" stroke="#ddd"/><g><g class="mark-group role-axis" aria-hidden="true"><g transform="translate(0.5,200.5)"><path class="background" aria-hidden="true" d="M0,0h0v0h0Z" pointer-events="none"/><g><g class="mark-rule role-axis-grid" pointer-events="none"><line transform="translate(0,-200)" x2="0" y2="200" stroke="#ddd" stroke-width="1" opacity="1"/><line transform="translate(40,-200)" x2="0" y2="200" stroke="#ddd" stroke-width="1" opacity="1"/><line transform="translate(80,-200)" x2="0" y2="200" stroke="#ddd" stroke-width="1" opacity="1"/><line transform="translate(120,-200)" x2="0" y2="200" stroke="#ddd" stroke-width="1" opacity="1"/><line transform="translate(160,-200)" x2="0" y2="200" stroke="#ddd" stroke-width="1" opacity="1"/><line transform="translate(200,-200)" x2="0" y2="200" stroke="#ddd" stroke-width="1" opacity="1"/></g></g><path class="foreground" aria-hidden="true" d="" pointer-events="none" display="none"/></g></g><g class="mark-group role-axis" aria-hidden="true"><g transform="translate(0.5,0.5)"><path class="background" aria-hidden="true" d="M0,0h0v0h0Z" pointer-events="none"/><g><g class="mark-rule role-axis-grid" pointer-events="none"><line transform="translate(0,200)" x2="200" y2="0" stroke="#e1e8f0" stroke-width="1" opacity="1"/><line transform="translate(0,150)" x2="200" y2="0" stroke="#e1e8f0" stroke-width="1" opacity="1"/><line transform="translate(0,100)" x2="200" y2="0" stroke="#e1e8f0" stroke-width="1" opacity="1"/><line transform="translate(0,50)" x2="200" y2="0" stroke="#e1e8f0" stroke-width="1" opacity="1"/><line transform="translate(0,0)" x2="200" y2="0" stroke="#e1e8f0" stroke-width="1" opacity="1"/></g></g><path class="foreground" aria-hidden="true" d="" pointer-events="none" display="none"/></g></g><g class="mark-group role-axis" role="graphics-symbol" aria-roledescription="axis" aria-label="X-axis titled 'generation' for a linear scale with values from 0 to 1,000"><g transform="translate(0.5,200.5)"><path class="background" aria-hidden="true" d="M0,0h0v0h0Z" pointer-events="none"/><g><g class="mark-rule role-axis-tick" pointer-events="none"><line transform="translate(0,0)" x2="0" y2="5" stroke="#888" stroke-width="1" opacity="1"/><line transform="translate(40,0)" x2="0" y2="5" stroke="#888" stroke-width="1" opacity="1"/><line transform="translate(80,0)" x2="0" y2="5" stroke="#888" stroke-width="1" opacity="1"/><line transform="translate(120,0)" x2="0" y2="5" stroke="#888" stroke-width="1" opacity="1"/><line transform="translate(160,0)" x2="0" y2="5" stroke="#888" stroke-width="1" opacity="1"/><line transform="translate(200,0)" x2="0" y2="5" stroke="#888" stroke-width="1" opacity="1"/></g><g class="mark-text role-axis-label" pointer-events="none"><text text-anchor="start" transform="translate(0,15)" font-family="sans-serif" font-size="10px" fill="#000" opacity="1">0</text><text text-anchor="middle" transform="translate(40,15)" font-family="sans-serif" font-size="10px" fill="#000" opacity="1">200</text><text text-anchor="middle" transform="translate(80,15)" font-family="sans-serif" font-size="10px" fill="#000" opacity="1">400</text><text text-anchor="middle" transform="translate(120,15)" font-family="sans-serif" font-size="10px" fill="#000" opacity="1">600</text><text text-anchor="middle" transform="translate(160,15)" font-family="sans-serif" font-size="10px" fill="#000" opacity="1">800</text><text text-anchor="end" transform="translate(200,15)" font-family="sans-serif" font-size="10px" fill="#000" opacity="1">1,000</text></g><g class="mark-rule role-axis-domain" pointer-events="none"><line transform="translate(0,0)" x2="200" y2="0" stroke="#e1e8f0" stroke-width="1" opacity="1"/></g><g class="mark-text role-axis-title" pointer-events="none"><text text-anchor="middle" transform="translate(100,36)" font-family="sans-serif" font-size="11px" font-weight="400" fill="#1c2a3a" opacity="1">generation</text></g></g><path class="foreground" aria-hidden="true" d="" pointer-events="none" display="none"/></g></g><g class="mark-group role-axis" role="graphics-symbol" aria-roledescription="axis" aria-label="Y-axis titled 'population_fitness' for a linear scale with values from 0.0 to 0.4"><g transform="translate(0.5,0.5)"><path class="background" aria-hidden="true" d="M0,0h0v0h0Z" pointer-events="none"/><g><g class="mark-rule role-axis-tick" pointer-events="none"><line transform="translate(0,200)" x2="-5" y2="0" stroke="#888" stroke-width="1" opacity="1"/><line transform="translate(0,150)" x2="-5" y2="0" stroke="#888" stroke-width="1" opacity="1"/><line transform="translate(0,100)" x2="-5" y2="0" stroke="#888" stroke-width="1" opacity="1"/><line transform="translate(0,50)" x2="-5" y2="0" stroke="#888" stroke-width="1" opacity="1"/><line transform="translate(0,0)" x2="-5" y2="0" stroke="#888" stroke-width="1" opacity="1"/></g><g class="mark-text role-axis-label" pointer-events="none"><text text-anchor="end" transform="translate(-13,204)" font-family="sans-serif" font-size="12px" fill="#000" opacity="1">0.0</text><text text-anchor="end" transform="translate(-13,154)" font-family="sans-serif" font-size="12px" fill="#000" opacity="1">0.1</text><text text-anchor="end" transform="translate(-13,104)" font-family="sans-serif" font-size="12px" fill="#000" opacity="1">0.2</text><text text-anchor="end" transform="translate(-13,54.00000000000002)" font-family="sans-serif" font-size="12px" fill="#000" opacity="1">0.3</text><text text-anchor="end" transform="translate(-13,4)" font-family="sans-serif" font-size="12px" fill="#000" opacity="1">0.4</text></g><g class="mark-rule role-axis-domain" pointer-events="none"><line transform="translate(0,200)" x2="0" y2="-200" stroke="#888" stroke-width="1" opacity="1"/></g><g class="mark-text role-axis-title" pointer-events="none"><text text-anchor="middle" transform="translate(-39.681640625,100) rotate(-90) translate(0,-3)" font-family="sans-serif" font-size="12px" font-weight="400" fill="#1c2a3a" opacity="1">population_fitness</text></g></g><path class="foreground" aria-hidden="true" d="" pointer-events="none" display="none"/></g></g><g class="mark-line role-mark marks" role="graphics-object" aria-roledescription="line mark container"><path aria-label="generation: 0; population_fitness: 0.235251381838" role="graphics-symbol" aria-roledescription="line mark" d="M0,82.374L0.2,81.681L0.4,81.342L0.6,80.376L0.8,79.671L1,79.146L1.2,78.911L1.4,78.324L1.6,78.13L1.8,77.295L2,77.14L2.2,76.76L2.4,76.64L2.6,76.384L2.8,76.057L3,75.868L3.2,75.65L3.4,75.715L3.6,75.418L3.8,75.392L4,75.082L4.2,75.184L4.4,74.198L4.6,73.984L4.8,73.828L5,73.295L5.2,72.949L5.4,72.886L5.6,72.354L5.8,72.756L6,72.073L6.2,72.067L6.4,71.536L6.6,71.018L6.8,70.967L7,71.229L7.2,70.895L7.4,70.972L7.6,70.66L7.8,70.326L8,70.466L8.2,70.196L8.4,70.057L8.6,70.052L8.8,70.188L9,69.738L9.2,69.318L9.4,69.33L9.6,69.612L9.8,68.595L10,68.482L10.2,68.324L10.4,67.8L10.6,67.678L10.8,67.481L11,66.694L11.2,66.923L11.4,66.127L11.6,66.121L11.8,66.121L12,66.207L12.2,66.225L12.4,66.288L12.6,66.143L12.8,66.264L13,65.209L13.2,64.914L13.4,65.257L13.6,64.549L13.8,64.673L14,65.033L14.2,64.431L14.4,64.629L14.6,63.855L14.8,64.204L15,63.594L15.2,62.833L15.4,62.138L15.6,61.297L15.8,60.769L16,60.852L16.2,61.433L16.4,60.388L16.6,60.368L16.8,60.597L17,60.881L17.2,59.891L17.4,59.933L17.6,59.264L17.8,59.827L18,59.061L18.2,59.648L18.4,59.029L18.6,58.727L18.8,58.504L19,58.437L19.2,58.342L19.4,58.269L19.6,57.918L19.8,57.932L20,57.827L20.2,57.639L20.4,58.174L20.6,57.973L20.8,57.563L21,56.923L21.2,56.624L21.4,56.393L21.6,56.981L21.8,56.182L22,55.95L22.2,56.273L22.4,55.393L22.6,55.827L22.8,55.874L23,55.268L23.2,55.731L23.4,55.204L23.6,55.038L23.8,54.986L24,54.882L24.2,54.435L24.4,54.639L24.6,54.269L24.8,54.643L25,54.023L25.2,53.322L25.4,53.553L25.6,53.991L25.8,52.956L26,53.264L26.2,53.021L26.4,52.533L26.6,52.658L26.8,52.465L27,52.787L27.2,52.896L27.4,51.886L27.6,52.309L27.8,52.224L28,52.045L28.2,52.572L28.4,51.879L28.6,51.302L28.8,51.667L29,51.834L29.2,51.841L29.4,50.8L29.6,51.225L29.8,51.836L30,50.562L30.2,51.163L30.4,51.106L30.6,50.442L30.8,50.594L31,50.942L31.2,50.009L31.4,50.45L31.6,50.953L31.8,50.349L32,50.868L32.2,50.134L32.4,50.323L32.6,50.599L32.8,50.404L33,50.275L33.2,49.878L33.4,49.635L33.6,49.794L33.8,49.719L34,48.818L34.2,49.679L34.4,49.088L34.6,49.481L34.8,49.438L35,49.706L35.2,49.093L35.4,49.968L35.6,49.294L35.8,48.797L36,49.006L36.2,49.011L36.4,48.706L36.6,49.053L36.8,48.499L37,48.621L37.2,48.612L37.4,48.401L37.6,48.417L37.8,48.405L38,48.539L38.2,48.334L38.4,48.155L38.6,48.668L38.8,47.915L39,47.521L39.2,48.182L39.4,48.055L39.6,47.976L39.8,47.775L40,47.748L40.2,48.349L40.4,47.837L40.6,48.047L40.8,48.2L41,48.077L41.2,47.944L41.4,47.146L41.6,47.18L41.8,48.247L42,48.245L42.2,47.752L42.4,47.875L42.6,47.017L42.8,46.677L43,47.45L43.2,46.928L43.4,46.83L43.6,47.077L43.8,47.099L44,47.069L44.2,46.681L44.4,46.72L44.6,46.699L44.8,47.102L45,46.854L45.2,46.725L45.4,46.25L45.6,46.312L45.8,46.618L46,46.547L46.2,46.501L46.4,46.688L46.6,46.288L46.8,46.046L47,45.907L47.2,45.778L47.4,45.845L47.6,46.315L47.8,46.106L48,46.292L48.2,46.293L48.4,45.969L48.6,45.986L48.8,46.394L49,45.588L49.2,45.759L49.4,45.534L49.6,44.85L49.8,45.199L50,45.823L50.2,45.442L50.4,45.077L50.6,45.216L50.8,45.086L51,45.315L51.2,45.357L51.4,44.379L51.6,44.332L51.8,44.748L52,44.211L52.2,44.732L52.4,44.261L52.6,44.045L52.8,44.641L53,43.689L53.2,43.553L53.4,43.49L53.6,43.719L53.8,43.38L54,42.649L54.2,43.369L54.4,43.215L54.6,42.737L54.8,42.628L55,42.382L55.2,42.691L55.4,42.556L55.6,42.996L55.8,42.412L56,42.282L56.2,42.337L56.4,42.175L56.6,42.199L56.8,41.949L57,42.123L57.2,42.524L57.4,42.24L57.6,42.046L57.8,42.616L58,42.146L58.2,41.371L58.4,41.656L58.6,41.629L58.8,40.572L59,40.696L59.2,41.579L59.4,40.775L59.6,40.979L59.8,41.141L60,41.022L60.2,40.19L60.4,39.587L60.6,40.412L60.8,39.631L61,40.003L61.2,39.76L61.4,39.933L61.6,39.439L61.8,38.391L62,38.994L62.2,38.973L62.4,39.058L62.6,39.166L62.8,38.612L63,38.865L63.2,37.996L63.4,38.972L63.6,37.742L63.8,38.731L64,37.668L64.2,38.595L64.4,38.124L64.6,38.082L64.8,37.888L65,38.523L65.2,38.244L65.4,38.186L65.6,37.931L65.8,38.043L66,37.025L66.2,37.315L66.4,37.03L66.6,37.37L66.8,37.618L67,37.378L67.2,36.775L67.4,37.25L67.6,37.464L67.8,37.346L68,36.931L68.2,37.153L68.4,36.785L68.6,37.098L68.8,37.295L69,37.093L69.2,37.477L69.4,37.466L69.6,37.262L69.8,36.82L70,36.938L70.2,36.828L70.4,37.734L70.6,36.895L70.8,37.404L71,36.889L71.2,36.648L71.4,36.353L71.6,36.777L71.8,37.566L72,36.464L72.2,35.784L72.4,36.525L72.6,36.831L72.8,36.537L73,36.629L73.2,36.466L73.4,35.918L73.6,35.609L73.8,35.753L74,36.226L74.2,35.952L74.4,36.471L74.6,35.123L74.8,35.38L75,35.854L75.2,35.945L75.4,35.887L75.6,34.656L75.8,35.121L76,35.489L76.2,35.879L76.4,35.798L76.6,35.363L76.8,34.987L77,34.748L77.2,35.143L77.4,34.261L77.6,35.365L77.8,34.9L78,34.682L78.2,34.525L78.4,35.168L78.6,34.942L78.8,34.998L79,35.787L79.2,35.13L79.4,34.489L79.6,34.307L79.8,35.031L80,34.528L80.2,34.3L80.4,33.685L80.6,34.369L80.8,34.691L81,35.199L81.2,34.345L81.4,34.133L81.6,33.664L81.8,33.96L82,34.236L82.2,34.128L82.4,34.115L82.6,34.122L82.8,34.185L83,33.718L83.2,34.141L83.4,33.897L83.6,33.227L83.8,33.572L84,33.269L84.2,34.074L84.4,33.581L84.6,33.878L84.8,32.967L85,32.607L85.2,32.479L85.4,33.461L85.6,32.746L85.8,33.27L86,32.397L86.2,32.637L86.4,32.971L86.6,32.12L86.8,32.087L87,32.503L87.2,32.471L87.4,32.008L87.6,32.302L87.8,32.378L88,32.29L88.2,32.602L88.4,32.317L88.6,33.126L88.8,33.119L89,33.268L89.2,31.978L89.4,32.054L89.6,32.568L89.8,32.349L90,32.323L90.2,33.091L90.4,32.312L90.6,31.869L90.8,33.106L91,32.372L91.2,32.947L91.4,32.909L91.6,32.334L91.8,31.714L92,32.372L92.2,32.58L92.4,32.325L92.6,30.971L92.8,32.082L93,32.157L93.2,31.549L93.4,31.893L93.6,31.692L93.8,31.819L94,32.051L94.2,31.901L94.4,31.769L94.6,31.815L94.8,30.893L95,31.071L95.2,30.836L95.4,30.899L95.6,31.229L95.8,31.357L96,30.923L96.2,30.923L96.4,30.837L96.6,31.429L96.8,30.816L97,31.022L97.2,30.84L97.4,30.745L97.6,31.37L97.8,31.038L98,30.142L98.2,30.593L98.4,29.924L98.6,29.349L98.8,30.252L99,30.025L99.2,29.685L99.4,29.73L99.6,29.59L99.8,29.403L100,29.675L100.2,29.937L100.4,30.083L100.6,29.796L100.8,30.177L101,29.82L101.2,29.74L101.4,29.406L101.6,29.968L101.8,29.448L102,29.486L102.2,29.842L102.4,30.141L102.6,29.103L102.8,29.301L103,30.114L103.2,28.934L103.4,29.233L103.6,29.97L103.8,30.395L104,28.223L104.2,28.591L104.4,29.191L104.6,29.104L104.8,28.52L105,28.591L105.2,29.012L105.4,27.909L105.6,28.766L105.8,28.702L106,27.987L106.2,28.737L106.4,27.724L106.6,27.999L106.8,29.041L107,29.029L107.2,28.334L107.4,27.853L107.6,28.127L107.8,28.453L108,28.39L108.2,28.738L108.4,28.307L108.6,28.43L108.8,28.903L109,28.893L109.2,28.085L109.4,28.595L109.6,28.614L109.8,28.916L110,27.076L110.2,28.062L110.4,26.864L110.6,28.013L110.8,28.064L111,27.278L111.2,28.005L111.4,27.088L111.6,27.615L111.8,27.806L112,27.138L112.2,27.284L112.4,27.248L112.6,27.639L112.8,26.416L113,27.598L113.2,27.08L113.4,27.746L113.6,27.885L113.8,27.243L114,27.637L114.2,26.75L114.4,27.165L114.6,26.657L114.8,26.192L115,26.588L115.2,26.609L115.4,27.407L115.6,25.647L115.8,26.768L116,26.478L116.2,26.266L116.4,25.995L116.6,27.056L116.8,26.302L117,26.147L117.2,26.662L117.4,25.979L117.6,26.339L117.8,25.865L118,26.137L118.2,25.888L118.4,26.503L118.6,25.8L118.8,26.624L119,26.208L119.2,26.284L119.4,26.658L119.6,25.367L119.8,25.015L120,25.441L120.2,26.563L120.4,26.165L120.6,26.29L120.8,25.227L121,26.11L121.2,26.042L121.4,25.355L121.6,25.896L121.8,26.676L122,24.978L122.2,25.921L122.4,25.426L122.6,26.22L122.8,25.792L123,26.161L123.2,25.225L123.4,25.717L123.6,26.384L123.8,25.389L124,25.951L124.2,24.973L124.4,25.372L124.6,25.898L124.8,25.066L125,26.156L125.2,25.925L125.4,25.451L125.6,26.296L125.8,26.048L126,26.141L126.2,25.153L126.4,25.933L126.6,25.884L126.8,25.701L127,25.708L127.2,25.878L127.4,26.103L127.6,25.524L127.8,25.482L128,24.739L128.2,25.4L128.4,26.487L128.6,24.881L128.8,24.839L129,24.709L129.2,25.374L129.4,25.326L129.6,25.125L129.8,25.198L130,24.943L130.2,24.582L130.4,25.94L130.6,25.388L130.8,25.397L131,25.155L131.2,24.624L131.4,24.134L131.6,25.001L131.8,24.792L132,24.304L132.2,24.665L132.4,24.922L132.6,23.835L132.8,24.632L133,24.532L133.2,24.371L133.4,23.726L133.6,22.845L133.8,23.457L134,23.627L134.2,23.748L134.4,23.818L134.6,24.67L134.8,24.03L135,23.908L135.2,23.99L135.4,24.463L135.6,24.233L135.8,23.522L136,24.345L136.2,23.14L136.4,23.342L136.6,23.537L136.8,23.687L137,22.811L137.2,23.138L137.4,23.195L137.6,23.556L137.8,23.817L138,23.252L138.2,23.684L138.4,23.675L138.6,23.549L138.8,24.108L139,22.265L139.2,22.761L139.4,21.498L139.6,21.692L139.8,21.699L140,23.159L140.2,21.856L140.4,22.387L140.6,21.501L140.8,21.678L141,21.683L141.2,21.538L141.4,21.096L141.6,21.504L141.8,21.44L142,21.269L142.2,21.632L142.4,21.25L142.6,21.067L142.8,21.596L143,21.473L143.2,20.943L143.4,21.421L143.6,20.707L143.8,21.362L144,21.106L144.2,20.315L144.4,20.399L144.6,21.221L144.8,21.308L145,21.727L145.2,20.731L145.4,20.435L145.6,21.131L145.8,20.496L146,20.352L146.2,21.361L146.4,21.529L146.6,19.783L146.8,20.41L147,21.142L147.2,20.934L147.4,20.238L147.6,19.938L147.8,20.32L148,20.451L148.2,19.312L148.4,18.371L148.6,19.283L148.8,19.056L149,19.924L149.2,19.266L149.4,17.923L149.6,18.941L149.8,19.214L150,18.198L150.2,18.97L150.4,18.898L150.6,18.39L150.8,19.312L151,18.689L151.2,19.407L151.4,18.819L151.6,19.487L151.8,19.11L152,18.906L152.2,19.204L152.4,18.062L152.6,18.909L152.8,18.691L153,17.839L153.2,19.282L153.4,18.01L153.6,19.152L153.8,17.505L154,18.056L154.2,19.041L154.4,18.282L154.6,18.341L154.8,19.021L155,17.8L155.2,18.186L155.4,18.229L155.6,17.366L155.8,17.659L156,18.814L156.2,17.88L156.4,18.63L156.6,18.385L156.8,17.87L157,18.172L157.2,18.462L157.4,17.758L157.6,17.582L157.8,18.086L158,18.842L158.2,17.864L158.4,17.776L158.6,18.37L158.8,16.926L159,18.16L159.2,17.961L159.4,17.861L159.6,18.327L159.8,17.773L160,18.083L160.2,18.69L160.4,16.661L160.6,17.644L160.8,17.262L161,16.772L161.2,17.667L161.4,16.883L161.6,16.499L161.8,17.018L162,16.568L162.2,17.399L162.4,17.001L162.6,16.872L162.8,17.36L163,16.923L163.2,17.4L163.4,16.865L163.6,17.379L163.8,17.571L164,16.474L164.2,17.3L164.4,17.198L164.6,15.898L164.8,16.943L165,16.963L165.2,17.384L165.4,17.363L165.6,17.077L165.8,16.814L166,17.066L166.2,17.507L166.4,17.854L166.6,17.503L166.8,17.331L167,17.797L167.2,15.722L167.4,16.713L167.6,15.741L167.8,17.468L168,16.405L168.2,17.631L168.4,15.42L168.6,16.143L168.8,15.849L169,16.224L169.2,15.959L169.4,15.305L169.6,14.034L169.8,15.025L170,14.154L170.2,14.312L170.4,14.999L170.6,14.728L170.8,13.938L171,14.809L171.2,14.142L171.4,14.197L171.6,14.016L171.8,14.262L172,14.323L172.2,14.917L172.4,14.093L172.6,13.506L172.8,13.47L173,14.096L173.2,14.328L173.4,13.544L173.6,13.197L173.8,13.99L174,14.146L174.2,13.352L174.4,13.574L174.6,13.436L174.8,14.271L175,13.921L175.2,14.309L175.4,14.261L175.6,14.016L175.8,14.49L176,13.209L176.2,13.201L176.4,13.987L176.6,13.363L176.8,13.448L177,13.286L177.2,13.167L177.4,13.341L177.6,13.302L177.8,13.122L178,13.764L178.2,13.663L178.4,13.396L178.6,13.289L178.8,12.405L179,14.285L179.2,13.819L179.4,13.209L179.6,13.254L179.8,12.437L180,13.121L180.2,13.103L180.4,13.835L180.6,13.275L180.8,13.801L181,13.732L181.2,13.627L181.4,13.688L181.6,13.674L181.8,13.644L182,12.948L182.2,13.493L182.4,13.941L182.6,12.581L182.8,13.423L183,13.411L183.2,13.66L183.4,13.415L183.6,12.902L183.8,13.333L184,14.637L184.2,13.113L184.4,13.495L184.6,12.939L184.8,13.415L185,13.545L185.2,13.657L185.4,13.259L185.6,13.948L185.8,14.296L186,12.72L186.2,13.744L186.4,12.18L186.6,11.357L186.8,11.387L187,12.694L187.2,12.021L187.4,11.725L187.6,11.941L187.8,12.584L188,12.746L188.2,12.169L188.4,13.284L188.6,11.811L188.8,12.188L189,12.584L189.2,12.328L189.4,12.566L189.6,12.178L189.8,11.701L190,11.724L190.2,12.345L190.4,11.568L190.6,12.595L190.8,11.679L191,11.223L191.2,11.96L191.4,12.254L191.6,11.859L191.8,11.705L192,12.64L192.2,12.941L192.4,11.66L192.6,12.474L192.8,12.094L193,11.371L193.2,11.558L193.4,11.362L193.6,12.012L193.8,12.238L194,12.378L194.2,11.798L194.4,12.617L194.6,13.466L194.8,11.245L195,12.053L195.2,11.663L195.4,11.94L195.6,11.935L195.8,12.029L196,11.617L196.2,10.928L196.4,11.243L196.6,12.063L196.8,11.337L197,11.368L197.2,10.779L197.4,11.39L197.6,11.149L197.8,11.73L198,11.905L198.2,11.856L198.4,12.405L198.6,11.039L198.8,11.648L199,12.012L199.2,10.241L199.4,11.286L199.6,10.89L199.8,11.089L200,11.089" stroke="#6583ff" stroke-width="2"/></g></g><path class="foreground" aria-hidden="true" d="" display="none"/></g></g></g></svg>