<svg xmlns="http://www.w3.org/2000/svg" xmlns:xlink="http://www.w3.org/1999/xlink" version="1.1" class="marks" width="265" height="254" viewBox="0 0 265 254"><rect width="265" height="254" fill="#fff"/><g fill="none" stroke-miterlimit="10" transform="translate(58,11)"><g class="mark-group role-frame root" role="graphics-object" aria-roledescription="group mark container"><g transform="translate(0,0)"><path class="background" aria-hidden="true" d="M0.5,0.5h200v200h-200Z" stroke="#ddd"/><g><g class="mark-group role-axis" aria-hidden="true"><g transform="translate(0.5,200.5)"><path class="background" aria-hidden="true" d="M0,0h0v0h0Z" pointer-events="none"/><g><g class="mark-rule role-axis-grid" pointer-events="none"><line transform="translate(0,-200)" x2="0" y2="200" stroke="#ddd" stroke-width="1" opacity="1"/><line transform="translate(40,-200)" x2="0" y2="200" stroke="#ddd" stroke-width="1" opacity="1"/><line transform="translate(80,-200)" x2="0" y2="200" stroke="#ddd" stroke-width="1" opacity="1"/><line transform="translate(120,-200)" x2="0" y2="200" stroke="#ddd" stroke-width="1" opacity="1"/><line transform="translate(160,-200)" x2="0" y2="200" stroke="#ddd" stroke-width="1" opacity="1"/><line transform="translate(200,-200)" x2="0" y2="200" stroke="#ddd" stroke-width="1" opacity="1"/></g></g><path class="foreground" aria-hidden="true" d="" pointer-events="none" display="none"/></g></g><g class="mark-group role-axis" aria-hidden="true"><g transform="translate(0.5,0.5)"><path class="background" aria-hidden="true" d="M0,0h0v0h0Z" pointer-events="none"/><g><g class="mark-rule role-axis-grid" pointer-events="none"><line transform="translate(0,200)" x2="200" y2="0" stroke="#e1e8f0" stroke-width="1" opacity="1"/><line transform="translate(0,160)" x2="200" y2="0" stroke="#e1e8f0" stroke-width="1" opacity="1"/><line transform="translate(0,120)" x2="200" y2="0" stroke="#e1e8f0" stroke-width="1" opacity="1"/><line transform="translate(0,80)" x2="200" y2="0" stroke="#e1e8f0" stroke-width="1" opacity="1"/><line transform="translate(0,40)" x2="200" y2="0" stroke="#e1e8f0" stroke-width="1" opacity="1"/><line transform="translate(0,0)" x2="200" y2="0" stroke="#e1e8f0" stroke-width="1" opacity="1"/></g></g><path class="foreground" aria-hidden="true" d="" pointer-events="none" display="none"/></g></g><g class="mark-group role-axis" role="graphics-symbol" aria-roledescription="axis" aria-label="X-axis titled 'generation' for a linear scale with values from 0 to 1,000"><g transform="translate(0.5,200.5)"><path class="background" aria-hidden="true" d="M0,0h0v0h0Z" pointer-events="none"/><g><g class="mark-rule role-axis-tick" pointer-events="none"><line transform="translate(0,0)" x2="0" y2="5" stroke="#888" stroke-width="1" opacity="1"/><line transform="translate(40,0)" x2="0" y2="5" stroke="#888" stroke-width="1" opacity="1"/><line transform="translate(80,0)" x2="0" y2="5" stroke="#888" stroke-width="1" opacity="1"/><line transform="translate(120,0)" x2="0" y2="5" stroke="#888" stroke-width="1" opacity="1"/><line transform="translate(160,0)" x2="0" y2="5" stroke="#888" stroke-width="1" opacity="1"/><line transform="translate(200,0)" x2="0" y2="5" stroke="#888" stroke-width="1" opacity="1"/></g><g class="mark-text role-axis-label" pointer-events="none"><text text-anchor="start" transform="translate(0,15)" font-family="sans-serif" font-size="10px" fill="#000" opacity="1">0</text><text text-anchor="middle" transform="translate(40,15)" font-family="sans-serif" font-size="10px" fill="#000" opacity="1">200</text><text text-anchor="middle" transform="translate(80,15)" font-family="sans-serif" font-size="10px" fill="#000" opacity="1">400</text><text text-anchor="middle" transform="translate(120,15)" font-family="sans-serif" font-size="10px" fill="#000" opacity="1">600</text><text text-anchor="middle" transform="translate(160,15)" font-family="sans-serif" font-size="10px" fill="#000" opacity="1">800</text><text text-anchor="end" transform="translate(200,15)" font-family="sans-serif" font-size="10px" fill="#000" opacity="1">1,000</text></g><g class="mark-rule role-axis-domain" pointer-events="none"><line transform="translate(0,0)" x2="200" y2="0" stroke="#e1e8f0" stroke-width="1" opacity="1"/></g><g class="mark-text role-axis-title" pointer-events="none"><text text-anchor="middle" transform="translate(100,36)" font-family="sans-serif" font-size="11px" font-weight="400" fill="#1c2a3a" opacity="1">generation</text></g></g><path class="foreground" aria-hidden="true" d="" pointer-events="none" display="none"/></g></g><g class="mark-group role-axis" role="graphics-symbol" aria-roledescription="axis" aria-label="Y-axis titled 'population_fitness' for a linear scale with values from 0.0 to 1.0"><g transform="translate(0.5,0.5)"><path class="background" aria-hidden="true" d="M0,0h0v0h0Z" pointer-events="none"/><g><g class="mark-rule role-axis-tick" pointer-events="none"><line transform="translate(0,200)" x2="-5" y2="0" stroke="#888" stroke-width="1" opacity="1"/><line transform="translate(0,160)" x2="-5" y2="0" stroke="#888" stroke-width="1" opacity="1"/><line transform="translate(0,120)" x2="-5" y2="0" stroke="#888" stroke-width="1" opacity="1"/><line transform="translate(0,80)" x2="-5" y2="0" stroke="#888" stroke-width="1" opacity="1"/><line transform="translate(0,40)" x2="-5" y2="0" stroke="#888" stroke-width="1" opacity="1"/><line transform="translate(0,0)" x2="-5" y2="0" stroke="#888" stroke-width="1" opacity="1"/></g><g class="mark-text role-axis-label" pointer-events="none"><text text-anchor="end" transform="translate(-13,204)" font-family="sans-serif" font-size="12px" fill="#000" opacity="1">0.0</text><text text-anchor="end" transform="translate(-13,164)" font-family="sans-serif" font-size="12px" fill="#000" opacity="1">0.2</text><text text-anchor="end" transform="translate(-13,124)" font-family="sans-serif" font-size="12px" fill="#000" opacity="1">0.4</text><text text-anchor="end" transform="translate(-13,84)" font-family="sans-serif" font-size="12px" fill="#000" opacity="1">0.6</text><text text-anchor="end" transform="translate(-13,43.99999999999999)" font-family="sans-serif" font-size="12px" fill="#000" opacity="1">0.8</text><text text-anchor="end" transform="translate(-13,4)" font-family="sans-serif" font-size="12px" fill="#000" opacity="1">1.0</text></g><g class="mark-rule role-axis-domain" pointer-events="none"><line transform="translate(0,200)" x2="0" y2="-200" stroke="#888" stroke-width="1" opacity="1"/></g><g class="mark-text role-axis-title" pointer-events="none"><text text-anchor="middle" transform="translate(-39.681640625,100) rotate(-90) translate(0,-3)" font-family="sans-serif" font-size="12px" font-weight="400" fill="#1c2a3a" opacity="1">population_fitness</text></g></g><path class="foreground" aria-hidden="true" d="" pointer-events="none" display="none"/></g></g><g class="mark-line role-mark marks" role="graphics-object" aria-roledescription="line mark container"><path aria-label="generation: 0; population_fitness: 0.484193606141" role="graphics-symbol" aria-roledescription="line mark" d="M0,103.161L0.2,100.982L0.4,99.403L0.6,96.971L0.8,95.502L1,95.019L1.2,92.963L1.4,92.411L1.6,91.651L1.8,92.119L2,90.939L2.2,90.503L2.4,90.214L2.6,89.832L2.8,89.295L3,88.776L3.2,87.664L3.4,87.775L3.6,87.056L3.8,86.537L4,84.748L4.2,84.092L4.4,84.512L4.6,83.256L4.8,84.337L5,83.657L5.2,82.293L5.4,82.377L5.6,82.179L5.8,82.426L6,81.415L6.2,81.349L6.4,81.646L6.6,81.288L6.8,81.059L7,81.015L7.2,79.414L7.4,79.553L7.6,79.643L7.8,79.527L8,79.01L8.2,77.816L8.4,79.256L8.6,78.586L8.8,78.288L9,77.733L9.2,77.137L9.4,78.474L9.6,77.038L9.8,77.513L10,76.669L10.2,76.469L10.4,76.053L10.6,75.598L10.8,75.221L11,75.562L11.2,75.533L11.4,74.465L11.6,74.312L11.8,74.813L12,74.028L12.2,73.791L12.4,73.375L12.6,72.781L12.8,72.529L13,72.825L13.2,74.458L13.4,72.557L13.6,71.191L13.8,71.349L14,71.816L14.2,70.985L14.4,71.858L14.6,71.874L14.8,71.772L15,71.632L15.2,71.314L15.4,71.209L15.6,69.94L15.8,70.507L16,69.765L16.2,69.367L16.4,69.401L16.6,68.977L16.8,70.301L17,67.883L17.2,69.758L17.4,68.059L17.6,68.288L17.8,69.279L18,68.13L18.2,67.582L18.4,67.287L18.6,66.83L18.8,67.056L19,66.936L19.2,68.06L19.4,67.387L19.6,67.295L19.8,68.244L20,67.361L20.2,67.06L20.4,65.761L20.6,65.119L20.8,64.255L21,64.766L21.2,65.401L21.4,65.397L21.6,64.986L21.8,64.923L22,64.314L22.2,64.06L22.4,63.416L22.6,63.089L22.8,63.455L23,62.22L23.2,62.825L23.4,61.375L23.6,61.915L23.8,61.622L24,61.091L24.2,60.382L24.4,63.026L24.6,62.622L24.8,60.301L25,59.575L25.2,60.047L25.4,59.449L25.6,60.241L25.8,60.696L26,59.319L26.2,61.172L26.4,60.301L26.6,60.176L26.8,58.177L27,58.871L27.2,59.244L27.4,57.248L27.6,57.568L27.8,56.95L28,59.293L28.2,57.816L28.4,57.324L28.6,56.667L28.8,57.146L29,56.894L29.2,57.094L29.4,57.099L29.6,57.685L29.8,58.775L30,56.305L30.2,56.668L30.4,55.536L30.6,57.402L30.8,57.35L31,55.988L31.2,55.301L31.4,55.068L31.6,56.163L31.8,55.579L32,56.282L32.2,54.856L32.4,55.513L32.6,54.443L32.8,56.566L33,55.557L33.2,54.963L33.4,55.083L33.6,54.667L33.8,55.139L34,55.471L34.2,54.834L34.4,52.454L34.6,54.609L34.8,54.506L35,54.041L35.2,51.823L35.4,52.779L35.6,51.913L35.8,52.595L36,51.581L36.2,52.757L36.4,51.887L36.6,51.842L36.8,50.352L37,50.293L37.2,49.988L37.4,52.436L37.6,49.684L37.8,47.675L38,47.324L38.2,47.137L38.4,49.137L38.6,47.975L38.8,47.605L39,47.838L39.2,49.821L39.4,47.313L39.6,47.805L39.8,47.771L40,46.178L40.2,46.344L40.4,45.833L40.6,47.252L40.8,47.419L41,44.356L41.2,44.602L41.4,45.116L41.6,46.322L41.8,45.882L42,45.23L42.2,43.402L42.4,44.005L42.6,43.481L42.8,42.437L43,42.942L43.2,43.737L43.4,44.439L43.6,43.64L43.8,42.559L44,43.979L44.2,42.597L44.4,44.062L44.6,42.386L44.8,41.206L45,42.915L45.2,43.238L45.4,41.885L45.6,40.999L45.8,41.431L46,40.239L46.2,40.727L46.4,42.065L46.6,41.183L46.8,39.924L47,39.16L47.2,40.541L47.4,39.126L47.6,38.6L47.8,39.568L48,38.267L48.2,39.281L48.4,40.406L48.6,36.411L48.8,38.207L49,39.277L49.2,38.901L49.4,37.16L49.6,36.537L49.8,37.165L50,38.18L50.2,37.275L50.4,35.715L50.6,35.731L50.8,36.124L51,36.62L51.2,32.979L51.4,34.515L51.6,36.356L51.8,32.605L52,33.933L52.2,35.895L52.4,35.047L52.6,34.291L52.8,35.69L53,36.389L53.2,34.091L53.4,34.07L53.6,33.524L53.8,32.847L54,35.432L54.2,34.547L54.4,35.319L54.6,33.757L54.8,33.119L55,33.939L55.2,34.595L55.4,31.632L55.6,33.854L55.8,33.605L56,32.603L56.2,32.647L56.4,33.726L56.6,33.404L56.8,32.842L57,31.432L57.2,30.784L57.4,35.053L57.6,32.894L57.8,30.315L58,32.971L58.2,30.969L58.4,29.556L58.6,32.954L58.8,31.954L59,32.896L59.2,33.262L59.4,31.849L59.6,31.886L59.8,30.689L60,30.32L60.2,31.121L60.4,29.031L60.6,29.029L60.8,31.855L61,31.129L61.2,30.403L61.4,30.037L61.6,29.661L61.8,29.518L62,30.664L62.2,30.728L62.4,29.703L62.6,30.164L62.8,30.272L63,31.059L63.2,30.905L63.4,30.056L63.6,28.495L63.8,28.163L64,29.222L64.2,28.463L64.4,27.946L64.6,29.063L64.8,29.395L65,27.502L65.2,29.002L65.4,26.819L65.6,29.103L65.8,29.497L66,28.148L66.2,28.366L66.4,29.394L66.6,26.37L66.8,27.741L67,27.412L67.2,28.563L67.4,29.068L67.6,29.341L67.8,26.185L68,28.433L68.2,27.044L68.4,27.132L68.6,28.372L68.8,29.618L69,27.812L69.2,27.834L69.4,27.453L69.6,26.908L69.8,26.727L70,27.689L70.2,26.646L70.4,27.009L70.6,29.19L70.8,27.922L71,28.163L71.2,28.154L71.4,28.703L71.6,25.675L71.8,27.543L72,27.37L72.2,26.181L72.4,28.333L72.6,26.46L72.8,26.829L73,28.799L73.2,28.226L73.4,25.566L73.6,25.736L73.8,27.312L74,25.183L74.2,23.82L74.4,23.787L74.6,24.687L74.8,26.801L75,26.787L75.2,27.859L75.4,26.492L75.6,24.662L75.8,25.251L76,25.096L76.2,25.782L76.4,25.812L76.6,23.472L76.8,24.082L77,26.705L77.2,25.6L77.4,25.651L77.6,25.172L77.8,27.492L78,25.911L78.2,24.47L78.4,25.183L78.6,26.491L78.8,25.151L79,22.856L79.2,24.217L79.4,24.003L79.6,25.232L79.8,26.399L80,24.279L80.2,25.176L80.4,23.894L80.6,24.591L80.8,25.656L81,24.718L81.2,26.959L81.4,25.514L81.6,22.21L81.8,25.103L82,23.581L82.2,24.439L82.4,24.079L82.6,24.836L82.8,24.619L83,25.577L83.2,25.109L83.4,25.876L83.6,25.334L83.8,24.114L84,24.112L84.2,25.305L84.4,24.423L84.6,24.555L84.8,23.148L85,22.675L85.2,24.933L85.4,24.693L85.6,24.973L85.8,23.978L86,23.452L86.2,21.808L86.4,22.417L86.6,23.146L86.8,22.819L87,27.036L87.2,25.908L87.4,22.972L87.6,24.738L87.8,23.523L88,22.173L88.2,22.733L88.4,22.087L88.6,23.885L88.8,21.848L89,23.257L89.2,25.874L89.4,23.715L89.6,25.071L89.8,24.897L90,22.388L90.2,23.185L90.4,23.475L90.6,23.091L90.8,23.631L91,21.082L91.2,20.929L91.4,24.914L91.6,22.168L91.8,24.708L92,24.152L92.2,23.542L92.4,24.283L92.6,22.133L92.8,22.742L93,21.324L93.2,23.92L93.4,23.321L93.6,24.473L93.8,23.782L94,20.49L94.2,20.308L94.4,21.86L94.6,22.542L94.8,23.71L95,21.943L95.2,20.178L95.4,22.69L95.6,20.166L95.8,22.736L96,20.787L96.2,19.142L96.4,20.078L96.6,22.374L96.8,23.131L97,22.741L97.2,20.012L97.4,19.71L97.6,21.81L97.8,22.664L98,20.836L98.2,22.557L98.4,21.937L98.6,20.179L98.8,20.806L99,22.81L99.2,18.296L99.4,22.12L99.6,20.252L99.8,19.041L100,21.37L100.2,21.815L100.4,21.071L100.6,18.557L100.8,19.276L101,19.236L101.2,21.937L101.4,19.073L101.6,19.262L101.8,21.35L102,19.3L102.2,18.541L102.4,19.839L102.6,18.907L102.8,19.28L103,18.476L103.2,16.4L103.4,18.841L103.6,18.432L103.8,20.336L104,19.516L104.2,20.246L104.4,17.296L104.6,18.435L104.8,19.495L105,21.046L105.2,19.151L105.4,22.242L105.6,18.972L105.8,20.659L106,21.594L106.2,18.247L106.4,16.991L106.6,14.42L106.8,18.441L107,20.433L107.2,17.635L107.4,20.355L107.6,18.189L107.8,20.152L108,19.689L108.2,19.314L108.4,20.434L108.6,20.814L108.8,17.487L109,20.409L109.2,21.431L109.4,19.574L109.6,20.821L109.8,20.02L110,18.327L110.2,16.499L110.4,14.748L110.6,18.483L110.8,19.424L111,19.895L111.2,19.896L111.4,17.512L111.6,16.394L111.8,19.434L112,16.337L112.2,19.439L112.4,18.317L112.6,16.754L112.8,16.684L113,16.627L113.2,17.447L113.4,18.52L113.6,19.208L113.8,18.817L114,17.26L114.2,17.287L114.4,16.019L114.6,17.869L114.8,16.658L115,17.144L115.2,17.268L115.4,19.392L115.6,16.676L115.8,19.879L116,14.463L116.2,17.937L116.4,16.992L116.6,17.505L116.8,14.57L117,18.783L117.2,16.71L117.4,17.964L117.6,17.189L117.8,19.364L118,16.928L118.2,16.717L118.4,16.623L118.6,17.536L118.8,17.641L119,17.105L119.2,18.419L119.4,16.137L119.6,17.45L119.8,17.764L120,16.801L120.2,16.734L120.4,18.595L120.6,16.614L120.8,14.852L121,17.326L121.2,16.413L121.4,15.01L121.6,15.92L121.8,17.397L122,18.179L122.2,17L122.4,15.778L122.6,15.621L122.8,17.498L123,16.492L123.2,18.285L123.4,16.428L123.6,17.886L123.8,17.388L124,17.637L124.2,16.342L124.4,17.475L124.6,16.563L124.8,16.796L125,18.07L125.2,16.828L125.4,17.473L125.6,18.98L125.8,18.469L126,18.413L126.2,18.911L126.4,15.597L126.6,15.205L126.8,15.757L127,15.35L127.2,18.623L127.4,16.318L127.6,14.587L127.8,15.574L128,16.713L128.2,15.291L128.4,16.856L128.6,17.178L128.8,17.415L129,14.788L129.2,18.012L129.4,17.176L129.6,15.7L129.8,18.264L130,14.233L130.2,14.468L130.4,17.782L130.6,15.429L130.8,14.992L131,14.816L131.2,17.652L131.4,17.299L131.6,14.334L131.8,16.655L132,17.209L132.2,15.154L132.4,15.236L132.6,15.861L132.8,15.293L133,16.583L133.2,18.83L133.4,12.942L133.6,17.106L133.8,15.648L134,15.952L134.2,15.317L134.4,15.079L134.6,15.325L134.8,15.205L135,16.035L135.2,14.714L135.4,16.201L135.6,14.559L135.8,15.037L136,14.606L136.2,15.79L136.4,15.943L136.6,14.749L136.8,16.222L137,14.028L137.2,15.208L137.4,13.645L137.6,15.1L137.8,14.902L138,16.197L138.2,14.255L138.4,14.314L138.6,14.059L138.8,15.666L139,12.137L139.2,12.843L139.4,16.038L139.6,14.774L139.8,14.905L140,15.81L140.2,14.307L140.4,14.306L140.6,17.564L140.8,14.581L141,14.607L141.2,15.599L141.4,13.666L141.6,13.886L141.8,15.137L142,12.075L142.2,14.717L142.4,15.297L142.6,14.943L142.8,12.566L143,13.791L143.2,14.377L143.4,16.63L143.6,14.285L143.8,15.581L144,13.67L144.2,13.464L144.4,14.397L144.6,11.337L144.8,12.796L145,16.41L145.2,14L145.4,12.821L145.6,12.95L145.8,14.334L146,14.601L146.2,16.223L146.4,14.766L146.6,13.54L146.8,14.172L147,13.18L147.2,12.585L147.4,13.193L147.6,13.44L147.8,12.789L148,13.042L148.2,12.746L148.4,13.757L148.6,13.265L148.8,11.603L149,11.214L149.2,13.303L149.4,14.543L149.6,10.621L149.8,14.418L150,13.14L150.2,13.456L150.4,13.079L150.6,14.768L150.8,14.389L151,14.723L151.2,14.781L151.4,12.835L151.6,13.169L151.8,10.945L152,12.718L152.2,12.821L152.4,15.417L152.6,11.206L152.8,13.111L153,12.541L153.2,11.719L153.4,12.502L153.6,11.332L153.8,12.46L154,10.72L154.2,13.274L154.4,14.781L154.6,12.198L154.8,12.457L155,11.405L155.2,13.591L155.4,13.447L155.6,12.407L155.8,14.118L156,13.021L156.2,12.944L156.4,11.154L156.6,11.332L156.8,12.616L157,15.29L157.2,13.463L157.4,12.684L157.6,13.773L157.8,12.519L158,12.959L158.2,13.006L158.4,11.943L158.6,11.239L158.8,12.848L159,10.839L159.2,12.369L159.4,12.853L159.6,12.602L159.8,9.167L160,12.837L160.2,11.636L160.4,12.832L160.6,12.161L160.8,11.981L161,12.677L161.2,13.543L161.4,14.832L161.6,11.494L161.8,11.132L162,13.561L162.2,10.995L162.4,13.258L162.6,9.944L162.8,12.147L163,13.664L163.2,13.908L163.4,12.312L163.6,10.817L163.8,11.128L164,13.981L164.2,12.866L164.4,12.217L164.6,11.204L164.8,12.432L165,13.438L165.2,11.388L165.4,11.991L165.6,11.59L165.8,12.44L166,11.507L166.2,12.395L166.4,10.999L166.6,11.151L166.8,11.087L167,10.975L167.2,11.681L167.4,10.943L167.6,14.381L167.8,11.159L168,11.977L168.2,12.14L168.4,11.908L168.6,13.634L168.8,14.748L169,13.278L169.2,13.715L169.4,13.565L169.6,12.103L169.8,11.868L170,12.907L170.2,9.924L170.4,13.247L170.6,12.314L170.8,12.269L171,14.101L171.2,12.428L171.4,13.096L171.6,14.003L171.8,13.205L172,13.583L172.2,10.78L172.4,11.176L172.6,11.16L172.8,12.405L173,11.896L173.2,11.905L173.4,12.607L173.6,12.288L173.8,11.143L174,11.545L174.2,12.378L174.4,12.308L174.6,9.998L174.8,12.016L175,11.243L175.2,10.181L175.4,11.402L175.6,12.11L175.8,12.515L176,12.438L176.2,10.04L176.4,13.616L176.6,11.198L176.8,10.581L177,11.836L177.2,11.302L177.4,10.737L177.6,12.757L177.8,13.77L178,8.277L178.2,11.52L178.4,10.912L178.6,11.749L178.8,12.37L179,11.823L179.2,9.529L179.4,14.14L179.6,11.078L179.8,11.606L180,11.179L180.2,11.091L180.4,10.948L180.6,9.974L180.8,11.234L181,11.379L181.2,11.464L181.4,12.869L181.6,11.35L181.8,11.385L182,7.876L182.2,11.984L182.4,10.493L182.6,9.355L182.8,11.799L183,10.815L183.2,9.92L183.4,12.572L183.6,12.127L183.8,11.386L184,11.58L184.2,11.46L184.4,9.84L184.6,10.252L184.8,11.224L185,10.46L185.2,11.744L185.4,9.475L185.6,11.073L185.8,10.292L186,9.113L186.2,9.589L186.4,11.66L186.6,10.173L186.8,11.971L187,10.411L187.2,10.421L187.4,9.592L187.6,12.167L187.8,12.048L188,10.792L188.2,10.438L188.4,11.032L188.6,11.638L188.8,12.512L189,9.24L189.2,10.538L189.4,11.583L189.6,11.612L189.8,12.981L190,12.924L190.2,10.131L190.4,8.125L190.6,12.594L190.8,13.198L191,11.51L191.2,12.33L191.4,11.016L191.6,9.85L191.8,12.688L192,9.498L192.2,11.944L192.4,11.212L192.6,8.118L192.8,8.653L193,8.132L193.2,10.605L193.4,10.776L193.6,10.769L193.8,10.686L194,12.853L194.2,11.371L194.4,13.706L194.6,10.94L194.8,10.469L195,9.388L195.2,9.613L195.4,9.252L195.6,12.94L195.8,11.078L196,10.96L196.2,8.952L196.4,10.958L196.6,9.719L196.8,9.333L197,7.553L197.2,10.074L197.4,10.652L197.6,10.59L197.8,10.455L198,11.241L198.2,11.417L198.4,13.95L198.6,9.847L198.8,8.853L199,11.618L199.2,10.204L199.4,9.009L199.6,10.561L199.8,9.574L200,9.574" stroke="#6583ff" stroke-width="2"/></g></g><path class="foreground" aria-hidden="true" d="" display="none"/></g></g></g></svg>