<svg xmlns="http://www.w3.org/2000/svg" xmlns:xlink="http://www.w3.org/1999/xlink" version="1.1" class="marks" width="269" height="254" viewBox="0 0 269 254"><rect width="269" height="254" fill="#fff"/><g fill="none" stroke-miterlimit="10" transform="translate(62,11)"><g class="mark-group role-frame root" role="graphics-object" aria-roledescription="group mark container"><g transform="translate(0,0)"><path class="background" aria-hidden="true" d="M0.5,0.5h200v200h-200Z" stroke="#ddd"/><g><g class="mark-group role-axis" aria-hidden="true"><g transform="translate(0.5,200.5)"><path class="background" aria-hidden="true" d="M0,0h0v0h0Z" pointer-events="none"/><g><g class="mark-rule role-axis-grid" pointer-events="none"><line transform="translate(0,-200)" x2="0" y2="200" stroke="#ddd" stroke-width="1" opacity="1"/><line transform="translate(40,-200)" x2="0" y2="200" stroke="#ddd" stroke-width="1" opacity="1"/><line transform="translate(80,-200)" x2="0" y2="200" stroke="#ddd" stroke-width="1" opacity="1"/><line transform="translate(120,-200)" x2="0" y2="200" stroke="#ddd" stroke-width="1" opacity="1"/><line transform="translate(160,-200)" x2="0" y2="200" stroke="#ddd" stroke-width="1" opacity="1"/><line transform="translate(200,-200)" x2="0" y2="200" stroke="#ddd" stroke-width="1" opacity="1"/></g></g><path class="foreground" aria-hidden="true" d="" pointer-events="none" display="none"/></g></g><g class="mark-group role-axis" aria-hidden="true"><g transform="translate(0.5,0.5)"><path class="background" aria-hidden="true" d="M0,0h0v0h0Z" pointer-events="none"/><g><g class="mark-rule role-axis-grid" pointer-events="none"><line transform="translate(0,200)" x2="200" y2="0" stroke="#e1e8f0" stroke-width="1" opacity="1"/><line transform="translate(0,160)" x2="200" y2="0" stroke="#e1e8f0" stroke-width="1" opacity="1"/><line transform="translate(0,120)" x2="200" y2="0" stroke="#e1e8f0" stroke-width="1" opacity="1"/><line transform="translate(0,80)" x2="200" y2="0" stroke="#e1e8f0" stroke-width="1" opacity="1"/><line transform="translate(0,40)" x2="200" y2="0" stroke="#e1e8f0" stroke-width="1" opacity="1"/><line transform="translate(0,0)" x2="200" y2="0" stroke="#e1e8f0" stroke-width="1" opacity="1"/></g></g><path class="foreground" aria-hidden="true" d="" pointer-events="none" display="none"/></g></g><g class="mark-group role-axis" role="graphics-symbol" aria-roledescription="axis" aria-label="X-axis titled 'generation' for a linear scale with values from 0 to 1,000"><g transform="translate(0.5,200.5)"><path class="background" aria-hidden="true" d="M0,0h0v0h0Z" pointer-events="none"/><g><g class="mark-rule role-axis-tick" pointer-events="none"><line transform="translate(0,0)" x2="0" y2="5" stroke="#888" stroke-width="1" opacity="1"/><line transform="translate(40,0)" x2="0" y2="5" stroke="#888" stroke-width="1" opacity="1"/><line transform="translate(80,0)" x2="0" y2="5" stroke="#888" stroke-width="1" opacity="1"/><line transform="translate(120,0)" x2="0" y2="5" stroke="#888" stroke-width="1" opacity="1"/><line transform="translate(160,0)" x2="0" y2="5" stroke="#888" stroke-width="1" opacity="1"/><line transform="translate(200,0)" x2="0" y2="5" stroke="#888" stroke-width="1" opacity="1"/></g><g class="mark-text role-axis-label" pointer-events="none"><text text-anchor="start" transform="translate(0,15)" font-family="sans-serif" font-size="10px" fill="#000" opacity="1">0</text><text text-anchor="middle" transform="translate(40,15)" font-family="sans-serif" font-size="10px" fill="#000" opacity="1">200</text><text text-anchor="middle" transform="translate(80,15)" font-family="sans-serif" font-size="10px" fill="#000" opacity="1">400</text><text text-anchor="middle" transform="translate(120,15)" font-family="sans-serif" font-size="10px" fill="#000" opacity="1">600</text><text text-anchor="middle" transform="translate(160,15)" font-family="sans-serif" font-size="10px" fill="#000" opacity="1">800</text><text text-anchor="end" transform="translate(200,15)" font-family="sans-serif" font-size="10px" fill="#000" opacity="1">1,000</text></g><g class="mark-rule role-axis-domain" pointer-events="none"><line transform="translate(0,0)" x2="200" y2="0" stroke="#e1e8f0" stroke-width="1" opacity="1"/></g><g class="mark-text role-axis-title" pointer-events="none"><text text-anchor="middle" transform="translate(100,36)" font-family="sans-serif" font-size="11px" font-weight="400" fill="#1c2a3a" opacity="1">generation</text></g></g><path class="foreground" aria-hidden="true" d="" pointer-events="none" display="none"/></g></g><g class="mark-group role-axis" role="graphics-symbol" aria-roledescription="axis" aria-label="Y-axis titled 'distance' for a linear scale with values from 80 to 180"><g transform="translate(0.5,0.5)"><path class="background" aria-hidden="true" d="M0,0h0v0h0Z" pointer-events="none"/><g><g class="mark-rule role-axis-tick" pointer-events="none"><line transform="translate(0,200)" x2="-5" y2="0" stroke="#888" stroke-width="1" opacity="1"/><line transform="translate(0,160)" x2="-5" y2="0" stroke="#888" stroke-width="1" opacity="1"/><line transform="translate(0,120)" x2="-5" y2="0" stroke="#888" stroke-width="1" opacity="1"/><line transform="translate(0,80)" x2="-5" y2="0" stroke="#888" stroke-width="1" opacity="1"/><line transform="translate(0,40)" x2="-5" y2="0" stroke="#888" stroke-width="1" opacity="1"/><line transform="translate(0,0)" x2="-5" y2="0" stroke="#888" stroke-width="1" opacity="1"/></g><g class="mark-text role-axis-label" pointer-events="none"><text text-anchor="end" transform="translate(-13,204)" font-family="sans-serif" font-size="12px" fill="#000" opacity="1">80</text><text text-anchor="end" transform="translate(-13,164)" font-family="sans-serif" font-size="12px" fill="#000" opacity="1">100</text><text text-anchor="end" transform="translate(-13,124)" font-family="sans-serif" font-size="12px" fill="#000" opacity="1">120</text><text text-anchor="end" transform="translate(-13,84)" font-family="sans-serif" font-size="12px" fill="#000" opacity="1">140</text><text text-anchor="end" transform="translate(-13,43.99999999999999)" font-family="sans-serif" font-size="12px" fill="#000" opacity="1">160</text><text text-anchor="end" transform="translate(-13,4)" font-family="sans-serif" font-size="12px" fill="#000" opacity="1">180</text></g><g class="mark-rule role-axis-domain" pointer-events="none"><line transform="translate(0,200)" x2="0" y2="-200" stroke="#888" stroke-width="1" opacity="1"/></g><g class="mark-text role-axis-title" pointer-events="none"><text text-anchor="middle" transform="translate(-43.021484375,100) rotate(-90) translate(0,-3)" font-family="sans-serif" font-size="12px" font-weight="400" fill="#1c2a3a" opacity="1">distance</text></g></g><path class="foreground" aria-hidden="true" d="" pointer-events="none" display="none"/></g></g><g class="mark-line role-mark marks" role="graphics-object" aria-roledescription="line mark container"><path aria-label="generation: 0; distance: 151.361863048" role="graphics-symbol" aria-roledescription="line mark" d="M0,57.276L0.2,57.276L0.4,57.276L0.6,57.276L0.8,57.276L1,57.276L1.2,57.276L1.4,57.276L1.6,57.276L1.8,57.276L2,57.276L2.2,57.276L2.4,57.276L2.6,57.276L2.8,57.276L3,57.276L3.2,57.276L3.4,57.276L3.6,57.276L3.8,57.276L4,57.276L4.2,57.276L4.4,57.276L4.6,57.276L4.8,57.276L5,57.276L5.2,57.276L5.4,57.276L5.6,57.276L5.8,57.276L6,57.276L6.2,57.276L6.4,57.276L6.6,57.276L6.8,57.276L7,57.276L7.2,57.276L7.4,57.276L7.6,57.276L7.8,57.276L8,57.276L8.2,57.276L8.4,57.276L8.6,57.276L8.8,57.276L9,57.276L9.2,57.276L9.4,57.276L9.6,57.276L9.8,57.276L10,57.276L10.2,57.276L10.4,57.276L10.6,57.276L10.8,57.276L11,57.276L11.2,57.276L11.4,57.276L11.6,57.276L11.8,57.276L12,57.276L12.2,57.276L12.4,57.276L12.6,57.276L12.8,57.276L13,57.276L13.2,57.276L13.4,57.276L13.6,57.276L13.8,57.276L14,57.276L14.2,57.276L14.4,57.276L14.6,57.276L14.8,57.276L15,57.276L15.2,57.276L15.4,57.276L15.6,57.276L15.8,57.276L16,57.276L16.2,57.276L16.4,57.276L16.6,57.276L16.8,57.276L17,57.276L17.2,57.276L17.4,57.276L17.6,57.276L17.8,57.276L18,57.276L18.2,57.276L18.4,57.276L18.6,57.276L18.8,57.276L19,57.276L19.2,57.276L19.4,57.276L19.6,57.276L19.8,57.276L20,57.276L20.2,57.276L20.4,57.276L20.6,57.276L20.8,57.276L21,57.276L21.2,57.276L21.4,57.276L21.6,57.276L21.8,57.276L22,57.276L22.2,57.276L22.4,57.276L22.6,57.276L22.8,57.276L23,57.276L23.2,57.276L23.4,57.276L23.6,57.276L23.8,57.276L24,57.276L24.2,57.276L24.4,57.276L24.6,57.276L24.8,57.276L25,57.276L25.2,57.276L25.4,57.276L25.6,57.276L25.8,57.276L26,57.276L26.2,57.276L26.4,57.276L26.6,57.276L26.8,57.276L27,57.276L27.2,57.276L27.4,57.276L27.6,57.276L27.8,57.276L28,57.276L28.2,57.276L28.4,57.276L28.6,57.276L28.8,57.276L29,57.276L29.2,57.276L29.4,57.276L29.6,57.276L29.8,57.276L30,57.276L30.2,57.276L30.4,57.276L30.6,57.276L30.8,57.276L31,57.276L31.2,57.276L31.4,57.276L31.6,57.276L31.8,57.276L32,57.276L32.2,57.276L32.4,57.276L32.6,72.715L32.8,72.715L33,72.715L33.2,72.715L33.4,72.715L33.6,72.715L33.8,72.715L34,72.715L34.2,72.715L34.4,72.715L34.6,72.715L34.8,72.715L35,72.715L35.2,72.715L35.4,72.715L35.6,72.715L35.8,72.715L36,72.715L36.2,72.715L36.4,72.715L36.6,72.715L36.8,72.715L37,72.715L37.2,72.715L37.4,72.715L37.6,72.715L37.8,72.715L38,72.715L38.2,72.715L38.4,72.715L38.6,72.715L38.8,72.715L39,72.715L39.2,72.715L39.4,72.715L39.6,72.715L39.8,72.715L40,72.715L40.2,72.715L40.4,72.715L40.6,72.715L40.8,72.715L41,72.715L41.2,72.715L41.4,72.715L41.6,72.715L41.8,72.715L42,72.715L42.2,72.715L42.4,72.715L42.6,72.715L42.8,72.715L43,72.715L43.2,72.715L43.4,72.715L43.6,72.715L43.8,72.715L44,72.715L44.2,72.715L44.4,72.715L44.6,72.715L44.8,72.715L45,72.715L45.2,72.715L45.4,72.715L45.6,72.715L45.8,72.715L46,72.715L46.2,72.715L46.4,72.715L46.6,72.715L46.8,72.715L47,72.715L47.2,72.715L47.4,72.715L47.6,72.715L47.8,72.715L48,72.715L48.2,72.715L48.4,72.715L48.6,72.715L48.8,72.715L49,72.715L49.2,72.715L49.4,72.715L49.6,72.715L49.8,72.715L50,72.715L50.2,72.715L50.4,72.715L50.6,72.715L50.8,72.715L51,72.715L51.2,72.715L51.4,72.715L51.6,72.715L51.8,72.715L52,72.715L52.2,72.715L52.4,72.715L52.6,72.715L52.8,72.715L53,72.715L53.2,72.715L53.4,72.715L53.6,72.715L53.8,72.715L54,72.715L54.2,72.715L54.4,72.715L54.6,72.715L54.8,72.715L55,72.715L55.2,72.715L55.4,72.715L55.6,72.715L55.8,72.715L56,72.715L56.2,72.715L56.4,72.715L56.6,72.715L56.8,72.715L57,72.715L57.2,72.715L57.4,72.715L57.6,72.715L57.8,72.715L58,72.715L58.2,72.715L58.4,72.715L58.6,72.715L58.8,72.715L59,72.715L59.2,72.715L59.4,72.715L59.6,72.715L59.8,72.715L60,72.715L60.2,72.715L60.4,72.715L60.6,72.715L60.8,72.715L61,72.715L61.2,72.715L61.4,72.715L61.6,72.715L61.8,72.715L62,72.715L62.2,72.715L62.4,72.715L62.6,72.715L62.8,72.715L63,72.715L63.2,72.715L63.4,72.715L63.6,72.715L63.8,72.715L64,72.715L64.2,72.715L64.4,72.715L64.6,72.715L64.8,72.715L65,72.715L65.2,72.715L65.4,72.715L65.6,72.715L65.8,72.715L66,72.715L66.2,72.715L66.4,72.715L66.6,72.715L66.8,72.715L67,72.715L67.2,72.715L67.4,72.715L67.6,72.715L67.8,72.715L68,72.715L68.2,72.715L68.4,72.715L68.6,72.715L68.8,72.715L69,72.715L69.2,72.715L69.4,72.715L69.6,72.715L69.8,72.715L70,72.715L70.2,72.715L70.4,72.715L70.6,72.715L70.8,72.715L71,72.715L71.2,72.715L71.4,72.715L71.6,72.715L71.8,72.715L72,72.715L72.2,72.715L72.4,72.715L72.6,72.715L72.8,72.715L73,72.715L73.2,72.715L73.4,72.715L73.6,72.715L73.8,72.715L74,72.715L74.2,72.715L74.4,72.715L74.6,72.715L74.8,72.715L75,72.715L75.2,72.715L75.4,72.715L75.6,72.715L75.8,72.715L76,72.715L76.2,72.715L76.4,72.715L76.6,72.715L76.8,72.715L77,72.715L77.2,72.715L77.4,72.715L77.6,72.715L77.8,72.715L78,72.715L78.2,72.715L78.4,72.715L78.6,72.715L78.8,72.715L79,72.715L79.2,72.715L79.4,72.715L79.6,72.715L79.8,72.715L80,72.715L80.2,72.715L80.4,72.715L80.6,72.715L80.8,72.715L81,72.715L81.2,72.715L81.4,72.715L81.6,72.715L81.8,72.715L82,72.715L82.2,72.715L82.4,72.715L82.6,72.715L82.8,72.715L83,72.715L83.2,72.715L83.4,72.715L83.6,72.715L83.8,72.715L84,72.715L84.2,72.715L84.4,72.715L84.6,72.715L84.8,72.715L85,72.715L85.2,72.715L85.4,72.715L85.6,72.715L85.8,72.715L86,72.715L86.2,72.715L86.4,72.715L86.6,72.715L86.8,72.715L87,72.715L87.2,72.715L87.4,72.715L87.6,72.715L87.8,72.715L88,72.715L88.2,72.715L88.4,72.715L88.6,72.715L88.8,72.715L89,72.715L89.2,72.715L89.4,72.715L89.6,72.715L89.8,72.715L90,72.715L90.2,72.715L90.4,72.715L90.6,72.715L90.8,72.715L91,72.715L91.2,72.715L91.4,72.715L91.6,72.715L91.8,72.715L92,72.715L92.2,72.715L92.4,72.715L92.6,72.715L92.8,72.715L93,72.715L93.2,72.715L93.4,72.715L93.6,72.715L93.8,72.715L94,72.715L94.2,72.715L94.4,72.715L94.6,72.715L94.8,72.715L95,72.715L95.2,72.715L95.4,72.715L95.6,72.715L95.8,72.715L96,72.715L96.2,72.715L96.4,72.715L96.6,72.715L96.8,72.715L97,72.715L97.2,72.715L97.4,72.715L97.6,72.715L97.8,72.715L98,72.715L98.2,72.715L98.4,72.715L98.6,72.715L98.8,72.715L99,72.715L99.2,72.715L99.4,72.715L99.6,72.715L99.8,72.715L100,72.715L100.2,72.715L100.4,72.715L100.6,72.715L100.8,72.715L101,72.715L101.2,72.715L101.4,72.715L101.6,72.715L101.8,72.715L102,72.715L102.2,72.715L102.4,72.715L102.6,72.715L102.8,72.715L103,72.715L103.2,81.008L103.4,81.008L103.6,81.008L103.8,81.008L104,81.008L104.2,81.008L104.4,81.008L104.6,81.008L104.8,81.008L105,81.008L105.2,81.008L105.4,81.008L105.6,81.008L105.8,81.008L106,81.008L106.2,81.008L106.4,81.008L106.6,81.008L106.8,81.008L107,81.008L107.2,81.008L107.4,81.008L107.6,81.008L107.8,81.008L108,81.008L108.2,81.008L108.4,81.008L108.6,81.008L108.8,81.008L109,81.008L109.2,81.008L109.4,81.008L109.6,81.008L109.8,81.008L110,81.008L110.2,81.008L110.4,81.008L110.6,81.008L110.8,81.008L111,81.008L111.2,81.008L111.4,81.008L111.6,81.008L111.8,81.008L112,81.008L112.2,81.008L112.4,81.008L112.6,81.008L112.8,81.008L113,81.008L113.2,81.008L113.4,81.008L113.6,81.008L113.8,81.008L114,81.008L114.2,81.008L114.4,81.008L114.6,81.008L114.8,81.008L115,81.008L115.2,81.008L115.4,81.008L115.6,81.008L115.8,81.008L116,81.008L116.2,81.008L116.4,81.008L116.6,81.008L116.8,81.008L117,81.008L117.2,81.008L117.4,81.008L117.6,81.008L117.8,81.008L118,81.008L118.2,81.008L118.4,81.008L118.6,81.008L118.8,81.008L119,86.886L119.2,86.886L119.4,86.886L119.6,86.886L119.8,86.886L120,86.886L120.2,86.886L120.4,88.764L120.6,88.764L120.8,88.764L121,88.764L121.2,88.764L121.4,88.764L121.6,88.764L121.8,88.764L122,88.764L122.2,88.764L122.4,88.764L122.6,88.764L122.8,88.764L123,88.764L123.2,88.764L123.4,88.764L123.6,88.764L123.8,88.764L124,88.764L124.2,88.764L124.4,88.764L124.6,88.764L124.8,88.764L125,88.764L125.2,88.764L125.4,88.764L125.6,88.764L125.8,88.764L126,88.764L126.2,88.764L126.4,88.764L126.6,88.764L126.8,88.764L127,88.764L127.2,88.764L127.4,88.764L127.6,88.764L127.8,88.764L128,88.764L128.2,88.764L128.4,88.764L128.6,88.764L128.8,88.764L129,88.764L129.2,88.764L129.4,88.764L129.6,88.764L129.8,88.764L130,88.764L130.2,88.764L130.4,88.764L130.6,88.764L130.8,88.764L131,88.764L131.2,88.764L131.4,88.764L131.6,88.764L131.8,88.764L132,88.764L132.2,88.764L132.4,88.764L132.6,88.764L132.8,88.764L133,88.764L133.2,88.764L133.4,88.764L133.6,88.764L133.8,88.764L134,96.475L134.2,96.475L134.4,96.475L134.6,96.475L134.8,96.475L135,96.475L135.2,96.475L135.4,96.475L135.6,96.475L135.8,96.475L136,96.475L136.2,96.475L136.4,96.475L136.6,96.475L136.8,96.475L137,96.475L137.2,96.475L137.4,96.475L137.6,96.475L137.8,96.475L138,96.475L138.2,96.475L138.4,96.475L138.6,96.475L138.8,96.475L139,96.475L139.2,96.475L139.4,96.475L139.6,96.475L139.8,96.475L140,96.475L140.2,96.475L140.4,96.475L140.6,96.475L140.8,96.475L141,96.475L141.2,96.475L141.4,96.475L141.6,96.475L141.8,96.475L142,96.475L142.2,96.475L142.4,96.475L142.6,96.475L142.8,96.475L143,96.475L143.2,96.475L143.4,96.475L143.6,96.475L143.8,96.475L144,96.475L144.2,96.475L144.4,96.475L144.6,96.475L144.8,96.475L145,96.475L145.2,96.475L145.4,96.475L145.6,96.475L145.8,96.475L146,96.475L146.2,96.475L146.4,96.475L146.6,96.475L146.8,96.475L147,96.475L147.2,96.475L147.4,96.475L147.6,96.475L147.8,96.475L148,96.475L148.2,96.475L148.4,96.475L148.6,96.475L148.8,96.475L149,96.475L149.2,96.475L149.4,96.475L149.6,96.475L149.8,96.475L150,96.475L150.2,96.475L150.4,96.475L150.6,96.475L150.8,96.475L151,96.475L151.2,96.475L151.4,96.475L151.6,96.475L151.8,96.475L152,96.475L152.2,96.475L152.4,96.475L152.6,96.475L152.8,96.475L153,96.475L153.2,96.475L153.4,96.475L153.6,96.475L153.8,96.475L154,96.475L154.2,96.475L154.4,96.475L154.6,96.475L154.8,96.475L155,96.475L155.2,96.475L155.4,96.475L155.6,96.475L155.8,96.475L156,96.475L156.2,101.21L156.4,101.21L156.6,101.21L156.8,101.21L157,101.21L157.2,101.21L157.4,101.21L157.6,101.21L157.8,101.21L158,101.21L158.2,101.21L158.4,101.21L158.6,101.21L158.8,101.21L159,101.21L159.2,101.21L159.4,101.21L159.6,101.21L159.8,101.21L160,101.21L160.2,101.21L160.4,101.21L160.6,101.21L160.8,101.21L161,101.21L161.2,101.21L161.4,101.21L161.6,101.21L161.8,101.21L162,101.21L162.2,101.21L162.4,101.21L162.6,101.21L162.8,101.21L163,101.21L163.2,101.21L163.4,101.21L163.6,101.21L163.8,101.21L164,101.21L164.2,101.21L164.4,101.21L164.6,101.21L164.8,101.21L165,101.21L165.2,101.21L165.4,101.21L165.6,101.21L165.8,101.21L166,101.21L166.2,101.21L166.4,101.21L166.6,101.21L166.8,101.21L167,101.21L167.2,101.21L167.4,101.21L167.6,101.21L167.8,101.21L168,101.21L168.2,101.21L168.4,101.21L168.6,101.21L168.8,101.21L169,101.21L169.2,101.21L169.4,101.21L169.6,101.21L169.8,101.21L170,101.21L170.2,101.21L170.4,101.21L170.6,101.21L170.8,101.21L171,101.21L171.2,101.21L171.4,101.21L171.6,101.21L171.8,101.21L172,101.21L172.2,101.21L172.4,101.21L172.6,101.21L172.8,101.21L173,101.21L173.2,101.21L173.4,101.21L173.6,101.21L173.8,101.21L174,101.21L174.2,101.21L174.4,101.21L174.6,101.21L174.8,101.21L175,101.21L175.2,101.21L175.4,101.21L175.6,101.21L175.8,101.21L176,101.21L176.2,101.21L176.4,101.21L176.6,101.21L176.8,101.21L177,101.21L177.2,101.21L177.4,101.21L177.6,101.21L177.8,101.21L178,101.21L178.2,101.21L178.4,101.21L178.6,101.21L178.8,101.21L179,101.21L179.2,101.21L179.4,101.21L179.6,101.21L179.8,101.21L180,101.21L180.2,101.21L180.4,101.21L180.6,101.21L180.8,101.21L181,101.21L181.2,101.21L181.4,101.21L181.6,101.21L181.8,101.21L182,101.21L182.2,101.21L182.4,101.21L182.6,101.21L182.8,101.21L183,101.21L183.2,101.21L183.4,101.21L183.6,101.21L183.8,101.21L184,101.21L184.2,101.21L184.4,101.21L184.6,101.21L184.8,101.21L185,101.21L185.2,101.21L185.4,101.21L185.6,101.21L185.8,101.21L186,101.21L186.2,101.21L186.4,101.21L186.6,101.21L186.8,101.21L187,101.21L187.2,101.21L187.4,101.21L187.6,101.21L187.8,101.21L188,101.21L188.2,101.21L188.4,101.21L188.6,101.21L188.8,101.21L189,101.21L189.2,101.21L189.4,101.21L189.6,101.21L189.8,101.21L190,101.21L190.2,101.21L190.4,101.21L190.6,101.21L190.8,101.21L191,101.21L191.2,101.21L191.4,101.21L191.6,101.21L191.8,101.21L192,101.21L192.2,101.21L192.4,101.21L192.6,101.21L192.8,101.21L193,101.21L193.2,101.21L193.4,101.21L193.6,101.21L193.8,101.21L194,101.21L194.2,101.21L194.4,101.21L194.6,101.21L194.8,101.21L195,101.21L195.2,101.21L195.4,101.21L195.6,101.21L195.8,101.21L196,101.21L196.2,101.21L196.4,101.21L196.6,101.21L196.8,101.21L197,101.21L197.2,101.21L197.4,101.21L197.6,101.21L197.8,101.21L198,101.21L198.2,101.21L198.4,101.21L198.6,101.21L198.8,101.21L199,101.21L199.2,101.21L199.4,101.21L199.6,101.21L199.8,101.21L200,101.21" stroke="#6583ff" stroke-width="2"/></g></g><path class="foreground" aria-hidden="true" d="" display="none"/></g></g></g></svg>