<svg xmlns="http://www.w3.org/2000/svg" xmlns:xlink="http://www.w3.org/1999/xlink" version="1.1" class="marks" width="265" height="254" viewBox="0 0 265 254"><rect width="265" height="254" fill="#fff"/><g fill="none" stroke-miterlimit="10" transform="translate(58,11)"><g class="mark-group role-frame root" role="graphics-object" aria-roledescription="group mark container"><g transform="translate(0,0)"><path class="background" aria-hidden="true" d="M0.5,0.5h200v200h-200Z" stroke="#ddd"/><g><g class="mark-group role-axis" aria-hidden="true"><g transform="translate(0.5,200.5)"><path class="background" aria-hidden="true" d="M0,0h0v0h0Z" pointer-events="none"/><g><g class="mark-rule role-axis-grid" pointer-events="none"><line transform="translate(0,-200)" x2="0" y2="200" stroke="#ddd" stroke-width="1" opacity="1"/><line transform="translate(40,-200)" x2="0" y2="200" stroke="#ddd" stroke-width="1" opacity="1"/><line transform="translate(80,-200)" x2="0" y2="200" stroke="#ddd" stroke-width="1" opacity="1"/><line transform="translate(120,-200)" x2="0" y2="200" stroke="#ddd" stroke-width="1" opacity="1"/><line transform="translate(160,-200)" x2="0" y2="200" stroke="#ddd" stroke-width="1" opacity="1"/><line transform="translate(200,-200)" x2="0" y2="200" stroke="#ddd" stroke-width="1" opacity="1"/></g></g><path class="foreground" aria-hidden="true" d="" pointer-events="none" display="none"/></g></g><g class="mark-group role-axis" aria-hidden="true"><g transform="translate(0.5,0.5)"><path class="background" aria-hidden="true" d="M0,0h0v0h0Z" pointer-events="none"/><g><g class="mark-rule role-axis-grid" pointer-events="none"><line transform="translate(0,200)" x2="200" y2="0" stroke="#e1e8f0" stroke-width="1" opacity="1"/><line transform="translate(0,150)" x2="200" y2="0" stroke="#e1e8f0" stroke-width="1" opacity="1"/><line transform="translate(0,100)" x2="200" y2="0" stroke="#e1e8f0" stroke-width="1" opacity="1"/><line transform="translate(0,50)" x2="200" y2="0" stroke="#e1e8f0" stroke-width="1" opacity="1"/><line transform="translate(0,0)" x2="200" y2="0" stroke="#e1e8f0" stroke-width="1" opacity="1"/></g></g><path class="foreground" aria-hidden="true" d="" pointer-events="none" display="none"/></g></g><g class="mark-group role-axis" role="graphics-symbol" aria-roledescription="axis" aria-label="X-axis titled 'generation' for a linear scale with values from 0 to 1,000"><g transform="translate(0.5,200.5)"><path class="background" aria-hidden="true" d="M0,0h0v0h0Z" pointer-events="none"/><g><g class="mark-rule role-axis-tick" pointer-events="none"><line transform="translate(0,0)" x2="0" y2="5" stroke="#888" stroke-width="1" opacity="1"/><line transform="translate(40,0)" x2="0" y2="5" stroke="#888" stroke-width="1" opacity="1"/><line transform="translate(80,0)" x2="0" y2="5" stroke="#888" stroke-width="1" opacity="1"/><line transform="translate(120,0)" x2="0" y2="5" stroke="#888" stroke-width="1" opacity="1"/><line transform="translate(160,0)" x2="0" y2="5" stroke="#888" stroke-width="1" opacity="1"/><line transform="translate(200,0)" x2="0" y2="5" stroke="#888" stroke-width="1" opacity="1"/></g><g class="mark-text role-axis-label" pointer-events="none"><text text-anchor="start" transform="translate(0,15)" font-family="sans-serif" font-size="10px" fill="#000" opacity="1">0</text><text text-anchor="middle" transform="translate(40,15)" font-family="sans-serif" font-size="10px" fill="#000" opacity="1">200</text><text text-anchor="middle" transform="translate(80,15)" font-family="sans-serif" font-size="10px" fill="#000" opacity="1">400</text><text text-anchor="middle" transform="translate(120,15)" font-family="sans-serif" font-size="10px" fill="#000" opacity="1">600</text><text text-anchor="middle" transform="translate(160,15)" font-family="sans-serif" font-size="10px" fill="#000" opacity="1">800</text><text text-anchor="end" transform="translate(200,15)" font-family="sans-serif" font-size="10px" fill="#000" opacity="1">1,000</text></g><g class="mark-rule role-axis-domain" pointer-events="none"><line transform="translate(0,0)" x2="200" y2="0" stroke="#e1e8f0" stroke-width="1" opacity="1"/></g><g class="mark-text role-axis-title" pointer-events="none"><text text-anchor="middle" transform="translate(100,36)" font-family="sans-serif" font-size="11px" font-weight="400" fill="#1c2a3a" opacity="1">generation</text></g></g><path class="foreground" aria-hidden="true" d="" pointer-events="none" display="none"/></g></g><g class="mark-group role-axis" role="graphics-symbol" aria-roledescription="axis" aria-label="Y-axis titled 'population_fitness' for a linear scale with values from 0.0 to 0.8"><g transform="translate(0.5,0.5)"><path class="background" aria-hidden="true" d="M0,0h0v0h0Z" pointer-events="none"/><g><g class="mark-rule role-axis-tick" pointer-events="none"><line transform="translate(0,200)" x2="-5" y2="0" stroke="#888" stroke-width="1" opacity="1"/><line transform="translate(0,150)" x2="-5" y2="0" stroke="#888" stroke-width="1" opacity="1"/><line transform="translate(0,100)" x2="-5" y2="0" stroke="#888" stroke-width="1" opacity="1"/><line transform="translate(0,50)" x2="-5" y2="0" stroke="#888" stroke-width="1" opacity="1"/><line transform="translate(0,0)" x2="-5" y2="0" stroke="#888" stroke-width="1" opacity="1"/></g><g class="mark-text role-axis-label" pointer-events="none"><text text-anchor="end" transform="translate(-13,204)" font-family="sans-serif" font-size="12px" fill="#000" opacity="1">0.0</text><text text-anchor="end" transform="translate(-13,154)" font-family="sans-serif" font-size="12px" fill="#000" opacity="1">0.2</text><text text-anchor="end" transform="translate(-13,104)" font-family="sans-serif" font-size="12px" fill="#000" opacity="1">0.4</text><text text-anchor="end" transform="translate(-13,54.00000000000002)" font-family="sans-serif" font-size="12px" fill="#000" opacity="1">0.6</text><text text-anchor="end" transform="translate(-13,4)" font-family="sans-serif" font-size="12px" fill="#000" opacity="1">0.8</text></g><g class="mark-rule role-axis-domain" pointer-events="none"><line transform="translate(0,200)" x2="0" y2="-200" stroke="#888" stroke-width="1" opacity="1"/></g><g class="mark-text role-axis-title" pointer-events="none"><text text-anchor="middle" transform="translate(-39.681640625,100) rotate(-90) translate(0,-3)" font-family="sans-serif" font-size="12px" font-weight="400" fill="#1c2a3a" opacity="1">population_fitness</text></g></g><path class="foreground" aria-hidden="true" d="" pointer-events="none" display="none"/></g></g><g class="mark-line role-mark marks" role="graphics-object" aria-roledescription="line mark container"><path aria-label="generation: 0; population_fitness: 0.475951831347" role="graphics-symbol" aria-roledescription="line mark" d="M0,81.012L0.2,80.637L0.4,80.364L0.6,79.971L0.8,79.764L1,79.13L1.2,78.716L1.4,78.602L1.6,78.38L1.8,78.412L2,78.146L2.2,77.907L2.4,77.805L2.6,77.792L2.8,77.534L3,77.355L3.2,77.049L3.4,77.179L3.6,76.65L3.8,76.452L4,76.472L4.2,76.109L4.4,76.31L4.6,75.978L4.8,75.56L5,75.488L5.2,75.424L5.4,75.424L5.6,75.325L5.8,74.93L6,74.68L6.2,74.81L6.4,74.724L6.6,74.601L6.8,74.577L7,74.648L7.2,74.277L7.4,74.272L7.6,74.119L7.8,74.145L8,74.028L8.2,73.743L8.4,73.645L8.6,73.492L8.8,73.328L9,73.163L9.2,73.016L9.4,73.118L9.6,73.11L9.8,72.722L10,72.641L10.2,72.529L10.4,72.165L10.6,72.17L10.8,72.355L11,72.052L11.2,71.886L11.4,71.812L11.6,71.811L11.8,71.489L12,71.478L12.2,71.449L12.4,71.549L12.6,71.168L12.8,71.218L13,71.145L13.2,70.859L13.4,70.909L13.6,70.833L13.8,70.606L14,70.317L14.2,70.335L14.4,70.319L14.6,70.304L14.8,70.119L15,69.899L15.2,69.787L15.4,69.498L15.6,69.475L15.8,69.542L16,69.665L16.2,69.41L16.4,69.674L16.6,69.325L16.8,69.363L17,68.977L17.2,68.965L17.4,69.205L17.6,69.001L17.8,68.473L18,68.461L18.2,68.442L18.4,68.63L18.6,68.14L18.8,68.21L19,68.44L19.2,68.054L19.4,67.799L19.6,67.329L19.8,67.426L20,67.564L20.2,67.18L20.4,67.285L20.6,67.22L20.8,67.249L21,67.251L21.2,67.169L21.4,67.259L21.6,67.151L21.8,66.486L22,66.616L22.2,66.616L22.4,66.429L22.6,66.279L22.8,66.244L23,66.115L23.2,66.112L23.4,66.247L23.6,65.904L23.8,65.954L24,65.877L24.2,66.164L24.4,66.069L24.6,65.869L24.8,65.851L25,65.672L25.2,65.576L25.4,65.154L25.6,65.06L25.8,65.064L26,64.755L26.2,64.833L26.4,64.641L26.6,64.672L26.8,64.467L27,64.644L27.2,64.463L27.4,63.654L27.6,63.766L27.8,63.45L28,63.398L28.2,63.427L28.4,63.349L28.6,63.482L28.8,63.432L29,63.431L29.2,63.325L29.4,63.476L29.6,63.472L29.8,63.282L30,63.269L30.2,63.409L30.4,63.332L30.6,63.409L30.8,62.848L31,62.995L31.2,62.703L31.4,62.987L31.6,62.451L31.8,61.993L32,62.217L32.2,62.031L32.4,62.149L32.6,61.759L32.8,62.067L33,61.994L33.2,61.851L33.4,61.787L33.6,61.76L33.8,61.48L34,61.681L34.2,61.64L34.4,61.62L34.6,61.551L34.8,61.638L35,61.683L35.2,61.4L35.4,61.668L35.6,61.472L35.8,61.421L36,61.517L36.2,61.012L36.4,61.142L36.6,60.827L36.8,60.864L37,60.893L37.2,60.957L37.4,61.149L37.6,60.806L37.8,60.991L38,60.315L38.2,60.184L38.4,59.611L38.6,59.721L38.8,59.748L39,59.606L39.2,59.691L39.4,59.531L39.6,59.511L39.8,59.455L40,59.287L40.2,59.537L40.4,59.179L40.6,59.152L40.8,59.005L41,59.23L41.2,59.154L41.4,59.44L41.6,59.235L41.8,59.161L42,59.05L42.2,58.663L42.4,58.816L42.6,58.891L42.8,58.753L43,58.796L43.2,58.527L43.4,58.85L43.6,58.449L43.8,58.547L44,58.699L44.2,58.561L44.4,58.329L44.6,58.448L44.8,58.552L45,58.183L45.2,58.022L45.4,57.894L45.6,57.964L45.8,57.24L46,57.258L46.2,57.29L46.4,57.198L46.6,57.314L46.8,57.238L47,57.203L47.2,57.536L47.4,57.531L47.6,57.085L47.8,56.857L48,56.623L48.2,57.006L48.4,56.694L48.6,56.479L48.8,56.5L49,56.479L49.2,56.448L49.4,56.339L49.6,56.401L49.8,56.12L50,56.241L50.2,56.034L50.4,55.699L50.6,55.426L50.8,55.581L51,55.46L51.2,55.794L51.4,55.639L51.6,55.679L51.8,55.841L52,55.083L52.2,55.269L52.4,55.261L52.6,54.863L52.8,54.964L53,54.917L53.2,55.315L53.4,55.09L53.6,54.917L53.8,54.639L54,54.848L54.2,54.952L54.4,54.821L54.6,54.608L54.8,54.192L55,54.213L55.2,54.212L55.4,54.061L55.6,54.217L55.8,54.51L56,54.332L56.2,53.581L56.4,53.784L56.6,53.76L56.8,53.582L57,53.564L57.2,52.921L57.4,53.063L57.6,53.236L57.8,52.975L58,52.9L58.2,52.805L58.4,52.782L58.6,52.681L58.8,52.865L59,52.804L59.2,52.744L59.4,52.73L59.6,52.658L59.8,52.437L60,52.216L60.2,52.269L60.4,52.329L60.6,52.458L60.8,52.205L61,52.172L61.2,52.3L61.4,52.313L61.6,51.965L61.8,52.15L62,52.194L62.2,51.897L62.4,51.994L62.6,51.767L62.8,51.81L63,52.081L63.2,51.762L63.4,51.964L63.6,52.076L63.8,51.906L64,51.906L64.2,51.994L64.4,52.127L64.6,51.585L64.8,51.596L65,51.124L65.2,51.268L65.4,50.816L65.6,51.047L65.8,51.274L66,51.198L66.2,50.991L66.4,51.207L66.6,50.919L66.8,50.593L67,50.709L67.2,50.548L67.4,50.562L67.6,50.506L67.8,50.678L68,50.827L68.2,50.5L68.4,50.526L68.6,50.719L68.8,50.414L69,50.365L69.2,50.384L69.4,50.354L69.6,50.223L69.8,49.876L70,50.069L70.2,49.979L70.4,50.046L70.6,49.608L70.8,49.162L71,49.216L71.2,49.199L71.4,49.267L71.6,49.016L71.8,48.626L72,48.79L72.2,48.49L72.4,48.697L72.6,48.402L72.8,48.732L73,48.389L73.2,48.431L73.4,48.324L73.6,48.404L73.8,48.448L74,48.39L74.2,48.332L74.4,48.501L74.6,48.412L74.8,48.402L75,48.135L75.2,48.711L75.4,48.419L75.6,48.237L75.8,48.251L76,48.202L76.2,48.407L76.4,48.191L76.6,48.085L76.8,47.668L77,47.707L77.2,47.751L77.4,47.983L77.6,47.775L77.8,47.862L78,47.371L78.2,47.232L78.4,47.413L78.6,47.5L78.8,47.443L79,46.789L79.2,46.95L79.4,46.766L79.6,46.468L79.8,46.636L80,46.253L80.2,46.664L80.4,45.883L80.6,45.783L80.8,45.97L81,46.168L81.2,45.779L81.4,45.654L81.6,45.639L81.8,45.873L82,45.529L82.2,45.572L82.4,46.034L82.6,45.792L82.8,45.728L83,45.856L83.2,45.733L83.4,45.648L83.6,45.472L83.8,45.018L84,44.63L84.2,44.869L84.4,44.774L84.6,44.735L84.8,44.762L85,44.314L85.2,44.622L85.4,44.536L85.6,44.684L85.8,44.214L86,43.962L86.2,43.708L86.4,43.626L86.6,43.216L86.8,43.089L87,43.252L87.2,43.147L87.4,43.203L87.6,42.727L87.8,42.925L88,43.15L88.2,43.195L88.4,43.096L88.6,42.938L88.8,42.474L89,42.695L89.2,42.805L89.4,42.355L89.6,41.831L89.8,41.601L90,41.813L90.2,41.718L90.4,41.551L90.6,41.765L90.8,41.403L91,41.595L91.2,41.393L91.4,41.708L91.6,41.529L91.8,41.156L92,40.93L92.2,40.845L92.4,40.745L92.6,40.969L92.8,41.142L93,40.712L93.2,40.792L93.4,40.509L93.6,40.88L93.8,40.542L94,40.414L94.2,40.28L94.4,40.682L94.6,40.628L94.8,40.54L95,40.447L95.2,40.511L95.4,40.429L95.6,40.05L95.8,40.168L96,40.341L96.2,40.14L96.4,40.149L96.6,40.002L96.8,40.167L97,40.328L97.2,39.949L97.4,40.291L97.6,40.009L97.8,40.304L98,39.74L98.2,39.674L98.4,39.665L98.6,39.306L98.8,39.896L99,39.31L99.2,39.485L99.4,38.947L99.6,38.442L99.8,38.668L100,39.061L100.2,38.758L100.4,38.69L100.6,38.756L100.8,38.166L101,38.185L101.2,38.199L101.4,38.248L101.6,38.102L101.8,38.38L102,38.033L102.2,38.281L102.4,38.375L102.6,37.76L102.8,38.179L103,38.39L103.2,37.802L103.4,37.997L103.6,37.614L103.8,37.447L104,37.61L104.2,37.793L104.4,37.554L104.6,37.727L104.8,37.413L105,37.599L105.2,37.343L105.4,37.771L105.6,37.78L105.8,37.373L106,36.956L106.2,37.364L106.4,37.345L106.6,37.229L106.8,37.253L107,37.43L107.2,37.472L107.4,37.264L107.6,37.06L107.8,37.044L108,37.137L108.2,37.042L108.4,37.058L108.6,36.625L108.8,37.041L109,36.995L109.2,36.941L109.4,36.866L109.6,36.584L109.8,36.623L110,36.929L110.2,36.839L110.4,36.61L110.6,36.903L110.8,36.816L111,36.785L111.2,36.141L111.4,36.411L111.6,36.335L111.8,36.375L112,36.339L112.2,36.506L112.4,36.346L112.6,36.709L112.8,36.367L113,36.106L113.2,36.332L113.4,36.197L113.6,36.3L113.8,36.34L114,36.031L114.2,35.965L114.4,35.985L114.6,36.234L114.8,36.129L115,35.719L115.2,35.683L115.4,36.008L115.6,36.203L115.8,35.579L116,35.756L116.2,35.805L116.4,35.622L116.6,35.928L116.8,35.966L117,35.667L117.2,35.393L117.4,35.971L117.6,35.783L117.8,35.531L118,35.703L118.2,35.55L118.4,35.329L118.6,35.702L118.8,35.56L119,35.438L119.2,35.333L119.4,35.049L119.6,35.236L119.8,35.159L120,35.402L120.2,35.117L120.4,34.774L120.6,35.069L120.8,35.051L121,34.744L121.2,34.772L121.4,35.089L121.6,34.878L121.8,34.627L122,34.68L122.2,34.077L122.4,34.3L122.6,34.276L122.8,34.391L123,34.173L123.2,34.261L123.4,33.949L123.6,34.078L123.8,33.958L124,33.991L124.2,34.004L124.4,33.99L124.6,34.052L124.8,34.263L125,33.403L125.2,33.202L125.4,33.708L125.6,33.928L125.8,33.535L126,33.557L126.2,33.015L126.4,33.223L126.6,33.116L126.8,33.399L127,33.127L127.2,33.108L127.4,33.168L127.6,33.337L127.8,33.199L128,33.278L128.2,32.851L128.4,33.241L128.6,33.278L128.8,33.459L129,32.95L129.2,33.404L129.4,33.314L129.6,32.738L129.8,32.921L130,32.782L130.2,33.14L130.4,33.08L130.6,33.147L130.8,33.048L131,32.855L131.2,32.824L131.4,33.243L131.6,32.892L131.8,32.99L132,33.032L132.2,32.613L132.4,32.557L132.6,32.329L132.8,32.346L133,32.189L133.2,32.432L133.4,32.605L133.6,32.261L133.8,32.513L134,32.301L134.2,32.442L134.4,32.48L134.6,32.796L134.8,32.578L135,32.279L135.2,32.575L135.4,32.134L135.6,32.138L135.8,32.441L136,31.401L136.2,31.717L136.4,31.495L136.6,31.523L136.8,31.691L137,31.811L137.2,31.607L137.4,31.601L137.6,31.655L137.8,31.216L138,31.163L138.2,31.003L138.4,31.43L138.6,31.11L138.8,30.946L139,31.252L139.2,30.879L139.4,30.997L139.6,31.046L139.8,31.288L140,30.547L140.2,30.716L140.4,31.013L140.6,30.765L140.8,31.063L141,30.42L141.2,31.203L141.4,30.505L141.6,30.607L141.8,30.364L142,30.601L142.2,30.616L142.4,30.672L142.6,30.689L142.8,30.847L143,30.56L143.2,30.601L143.4,30.514L143.6,30.527L143.8,30.28L144,30.266L144.2,30.824L144.4,30.297L144.6,30.395L144.8,30.393L145,30.353L145.2,30.486L145.4,30.473L145.6,30.28L145.8,30.396L146,30.377L146.2,30.226L146.4,30.555L146.6,30.154L146.8,30.4L147,30.7L147.2,30.558L147.4,30.741L147.6,30.413L147.8,30.511L148,30.607L148.2,30.328L148.4,30.385L148.6,30.493L148.8,30.292L149,30.32L149.2,30.34L149.4,30.503L149.6,30.771L149.8,30.09L150,29.352L150.2,29.47L150.4,29.669L150.6,29.548L150.8,29.72L151,29.815L151.2,29.32L151.4,29.503L151.6,29.308L151.8,29.389L152,29.341L152.2,29.677L152.4,29.6L152.6,29.124L152.8,29.532L153,29.028L153.2,29.359L153.4,29.486L153.6,29.181L153.8,28.973L154,28.984L154.2,28.903L154.4,29.253L154.6,29.181L154.8,29.172L155,29.206L155.2,28.766L155.4,28.585L155.6,29.053L155.8,28.981L156,29.261L156.2,28.634L156.4,29.157L156.6,29.162L156.8,29.144L157,28.924L157.2,28.945L157.4,28.365L157.6,28.694L157.8,28.46L158,28.844L158.2,29.064L158.4,28.617L158.6,28.797L158.8,28.721L159,28.777L159.2,28.506L159.4,28.763L159.6,28.563L159.8,28.929L160,28.914L160.2,28.377L160.4,28.351L160.6,28.719L160.8,28.478L161,28.387L161.2,28.456L161.4,28.447L161.6,28.33L161.8,28.528L162,28.225L162.2,28.492L162.4,28.622L162.6,28.146L162.8,28.798L163,28.622L163.2,28.559L163.4,28.492L163.6,28.442L163.8,28.623L164,28.151L164.2,28.199L164.4,28.577L164.6,28.248L164.8,28.308L165,28.241L165.2,28.023L165.4,28.491L165.6,28.214L165.8,28.583L166,28.351L166.2,28.075L166.4,28.488L166.6,28.12L166.8,28.232L167,28.017L167.2,27.778L167.4,28.154L167.6,28.136L167.8,27.752L168,28.082L168.2,28.012L168.4,28.139L168.6,27.632L168.8,28.026L169,27.849L169.2,27.497L169.4,27.807L169.6,27.96L169.8,27.738L170,27.596L170.2,27.759L170.4,27.548L170.6,27.702L170.8,27.839L171,26.769L171.2,27.088L171.4,27.125L171.6,27.278L171.8,26.677L172,27.13L172.2,27.261L172.4,27.543L172.6,26.719L172.8,26.739L173,27.132L173.2,27.106L173.4,26.935L173.6,26.929L173.8,27.027L174,26.48L174.2,26.436L174.4,27.017L174.6,27.219L174.8,26.844L175,26.962L175.2,26.834L175.4,26.869L175.6,26.893L175.8,26.602L176,26.692L176.2,27.082L176.4,26.71L176.6,26.564L176.8,26.814L177,26.583L177.2,26.083L177.4,26.423L177.6,26.25L177.8,26.461L178,26.6L178.2,26.594L178.4,26.321L178.6,26.332L178.8,26.208L179,26.266L179.2,26.523L179.4,26.432L179.6,26.082L179.8,26.024L180,26.582L180.2,26.301L180.4,26.428L180.6,26.456L180.8,26.42L181,26.091L181.2,26.5L181.4,26.36L181.6,26.272L181.8,26.141L182,26.478L182.2,26.148L182.4,26.246L182.6,26.278L182.8,26.369L183,26.342L183.2,26.334L183.4,26.076L183.6,26.195L183.8,26.317L184,26.233L184.2,26.326L184.4,26.322L184.6,26.31L184.8,26.232L185,26.279L185.2,26.581L185.4,26.045L185.6,26.042L185.8,26.205L186,26.007L186.2,26.062L186.4,26.253L186.6,25.841L186.8,26.016L187,26.396L187.2,26.318L187.4,26.175L187.6,25.7L187.8,26.021L188,26.412L188.2,26.128L188.4,25.609L188.6,25.485L188.8,26.021L189,24.994L189.2,25.487L189.4,25.38L189.6,25.536L189.8,24.922L190,24.747L190.2,24.58L190.4,25.099L190.6,24.208L190.8,24.8L191,24.408L191.2,24.463L191.4,24.554L191.6,24.649L191.8,24.405L192,24.551L192.2,24.285L192.4,24.378L192.6,24.675L192.8,24.658L193,24.439L193.2,24.518L193.4,24.515L193.6,24.477L193.8,24.933L194,24.614L194.2,24.041L194.4,23.943L194.6,24.169L194.8,24.092L195,24.232L195.2,23.726L195.4,24.141L195.6,24.112L195.8,24.361L196,23.911L196.2,23.837L196.4,24.106L196.6,24.045L196.8,23.981L197,23.878L197.2,24.202L197.4,23.634L197.6,23.879L197.8,23.845L198,24L198.2,24.215L198.4,23.694L198.6,23.966L198.8,23.943L199,23.821L199.2,23.997L199.4,23.872L199.6,23.92L199.8,24.179L200,24.179" stroke="#6583ff" stroke-width="2"/></g></g><path class="foreground" aria-hidden="true" d="" display="none"/></g></g></g></svg>