<svg xmlns="http://www.w3.org/2000/svg" xmlns:xlink="http://www.w3.org/1999/xlink" version="1.1" class="marks" width="265" height="248" viewBox="0 0 265 248"><rect width="265" height="248" fill="#fff"/><g fill="none" stroke-miterlimit="10" transform="translate(58,5)"><g class="mark-group role-frame root" role="graphics-object" aria-roledescription="group mark container"><g transform="translate(0,0)"><path class="background" aria-hidden="true" d="M0.5,0.5h200v200h-200Z" stroke="#ddd"/><g><g class="mark-group role-axis" aria-hidden="true"><g transform="translate(0.5,200.5)"><path class="background" aria-hidden="true" d="M0,0h0v0h0Z" pointer-events="none"/><g><g class="mark-rule role-axis-grid" pointer-events="none"><line transform="translate(0,-200)" x2="0" y2="200" stroke="#ddd" stroke-width="1" opacity="1"/><line transform="translate(40,-200)" x2="0" y2="200" stroke="#ddd" stroke-width="1" opacity="1"/><line transform="translate(80,-200)" x2="0" y2="200" stroke="#ddd" stroke-width="1" opacity="1"/><line transform="translate(120,-200)" x2="0" y2="200" stroke="#ddd" stroke-width="1" opacity="1"/><line transform="translate(160,-200)" x2="0" y2="200" stroke="#ddd" stroke-width="1" opacity="1"/><line transform="translate(200,-200)" x2="0" y2="200" stroke="#ddd" stroke-width="1" opacity="1"/></g></g><path class="foreground" aria-hidden="true" d="" pointer-events="none" display="none"/></g></g><g class="mark-group role-axis" aria-hidden="true"><g transform="translate(0.5,0.5)"><path class="background" aria-hidden="true" d="M0,0h0v0h0Z" pointer-events="none"/><g><g class="mark-rule role-axis-grid" pointer-events="none"><line transform="translate(0,200)" x2="200" y2="0" stroke="#e1e8f0" stroke-width="1" opacity="1"/><line transform="translate(0,164)" x2="200" y2="0" stroke="#e1e8f0" stroke-width="1" opacity="1"/><line transform="translate(0,129)" x2="200" y2="0" stroke="#e1e8f0" stroke-width="1" opacity="1"/><line transform="translate(0,93)" x2="200" y2="0" stroke="#e1e8f0" stroke-width="1" opacity="1"/><line transform="translate(0,57)" x2="200" y2="0" stroke="#e1e8f0" stroke-width="1" opacity="1"/><line transform="translate(0,21)" x2="200" y2="0" stroke="#e1e8f0" stroke-width="1" opacity="1"/></g></g><path class="foreground" aria-hidden="true" d="" pointer-events="none" display="none"/></g></g><g class="mark-group role-axis" role="graphics-symbol" aria-roledescription="axis" aria-label="X-axis titled 'generation' for a linear scale with values from 0 to 1,000"><g transform="translate(0.5,200.5)"><path class="background" aria-hidden="true" d="M0,0h0v0h0Z" pointer-events="none"/><g><g class="mark-rule role-axis-tick" pointer-events="none"><line transform="translate(0,0)" x2="0" y2="5" stroke="#888" stroke-width="1" opacity="1"/><line transform="translate(40,0)" x2="0" y2="5" stroke="#888" stroke-width="1" opacity="1"/><line transform="translate(80,0)" x2="0" y2="5" stroke="#888" stroke-width="1" opacity="1"/><line transform="translate(120,0)" x2="0" y2="5" stroke="#888" stroke-width="1" opacity="1"/><line transform="translate(160,0)" x2="0" y2="5" stroke="#888" stroke-width="1" opacity="1"/><line transform="translate(200,0)" x2="0" y2="5" stroke="#888" stroke-width="1" opacity="1"/></g><g class="mark-text role-axis-label" pointer-events="none"><text text-anchor="start" transform="translate(0,15)" font-family="sans-serif" font-size="10px" fill="#000" opacity="1">0</text><text text-anchor="middle" transform="translate(40,15)" font-family="sans-serif" font-size="10px" fill="#000" opacity="1">200</text><text text-anchor="middle" transform="translate(80,15)" font-family="sans-serif" font-size="10px" fill="#000" opacity="1">400</text><text text-anchor="middle" transform="translate(120,15)" font-family="sans-serif" font-size="10px" fill="#000" opacity="1">600</text><text text-anchor="middle" transform="translate(160,15)" font-family="sans-serif" font-size="10px" fill="#000" opacity="1">800</text><text text-anchor="end" transform="translate(200,15)" font-family="sans-serif" font-size="10px" fill="#000" opacity="1">1,000</text></g><g class="mark-rule role-axis-domain" pointer-events="none"><line transform="translate(0,0)" x2="200" y2="0" stroke="#e1e8f0" stroke-width="1" opacity="1"/></g><g class="mark-text role-axis-title" pointer-events="none"><text text-anchor="middle" transform="translate(100,36)" font-family="sans-serif" font-size="11px" font-weight="400" fill="#1c2a3a" opacity="1">generation</text></g></g><path class="foreground" aria-hidden="true" d="" pointer-events="none" display="none"/></g></g><g class="mark-group role-axis" role="graphics-symbol" aria-roledescription="axis" aria-label="Y-axis titled 'population_fitness' for a linear scale with values from 0.0 to 2.8"><g transform="translate(0.5,0.5)"><path class="background" aria-hidden="true" d="M0,0h0v0h0Z" pointer-events="none"/><g><g class="mark-rule role-axis-tick" pointer-events="none"><line transform="translate(0,200)" x2="-5" y2="0" stroke="#888" stroke-width="1" opacity="1"/><line transform="translate(0,164)" x2="-5" y2="0" stroke="#888" stroke-width="1" opacity="1"/><line transform="translate(0,129)" x2="-5" y2="0" stroke="#888" stroke-width="1" opacity="1"/><line transform="translate(0,93)" x2="-5" y2="0" stroke="#888" stroke-width="1" opacity="1"/><line transform="translate(0,57)" x2="-5" y2="0" stroke="#888" stroke-width="1" opacity="1"/><line transform="translate(0,21)" x2="-5" y2="0" stroke="#888" stroke-width="1" opacity="1"/></g><g class="mark-text role-axis-label" pointer-events="none"><text text-anchor="end" transform="translate(-13,204)" font-family="sans-serif" font-size="12px" fill="#000" opacity="1">0.0</text><text text-anchor="end" transform="translate(-13,168.28571428571428)" font-family="sans-serif" font-size="12px" fill="#000" opacity="1">0.5</text><text text-anchor="end" transform="translate(-13,132.57142857142856)" font-family="sans-serif" font-size="12px" fill="#000" opacity="1">1.0</text><text text-anchor="end" transform="translate(-13,96.85714285714286)" font-family="sans-serif" font-size="12px" fill="#000" opacity="1">1.5</text><text text-anchor="end" transform="translate(-13,61.14285714285714)" font-family="sans-serif" font-size="12px" fill="#000" opacity="1">2.0</text><text text-anchor="end" transform="translate(-13,25.42857142857142)" font-family="sans-serif" font-size="12px" fill="#000" opacity="1">2.5</text></g><g class="mark-rule role-axis-domain" pointer-events="none"><line transform="translate(0,200)" x2="0" y2="-200" stroke="#888" stroke-width="1" opacity="1"/></g><g class="mark-text role-axis-title" pointer-events="none"><text text-anchor="middle" transform="translate(-39.681640625,100) rotate(-90) translate(0,-3)" font-family="sans-serif" font-size="12px" font-weight="400" fill="#1c2a3a" opacity="1">population_fitness</text></g></g><path class="foreground" aria-hidden="true" d="" pointer-events="none" display="none"/></g></g><g class="mark-line role-mark marks" role="graphics-object" aria-roledescription="line mark container"><path aria-label="generation: 0; population_fitness: 1.43624621586" role="graphics-symbol" aria-roledescription="line mark" d="M0,97.411L0.2,94.886L0.4,93.287L0.6,91.378L0.8,89.993L1,88.687L1.2,86.773L1.4,85.963L1.6,84.624L1.8,84.312L2,83.346L2.2,83.012L2.4,81.14L2.6,79.996L2.8,79.375L3,78.657L3.2,77.802L3.4,77.05L3.6,76.999L3.8,75.973L4,76.343L4.2,75.501L4.4,75.029L4.6,73.561L4.8,73.241L5,72.256L5.2,71.619L5.4,71.075L5.6,70.348L5.8,69.431L6,69.649L6.2,68.949L6.4,69.389L6.6,67.812L6.8,67.54L7,67.761L7.2,66.5L7.4,65.969L7.6,66.068L7.8,65.751L8,65.116L8.2,64.115L8.4,63.893L8.6,63.601L8.8,63.281L9,63.094L9.2,62.685L9.4,62.209L9.6,62.896L9.8,62.503L10,62.618L10.2,62.005L10.4,61.399L10.6,61.226L10.8,61.331L11,60.315L11.2,60.804L11.4,60.714L11.6,60.011L11.8,59.944L12,59.666L12.2,59.511L12.4,59.725L12.6,59.719L12.8,57.818L13,58.146L13.2,57.424L13.4,58.232L13.6,57.527L13.8,57.847L14,57.85L14.2,57.645L14.4,56.89L14.6,57.042L14.8,56.574L15,56.579L15.2,56.188L15.4,56.56L15.6,56.204L15.8,54.769L16,55.879L16.2,55.159L16.4,55.501L16.6,55.32L16.8,54.568L17,55.787L17.2,55.517L17.4,55.305L17.6,54.249L17.8,54.992L18,54.806L18.2,54.563L18.4,54.869L18.6,54.114L18.8,53.795L19,53.709L19.2,53.887L19.4,53.133L19.6,52.849L19.8,53.318L20,53.188L20.2,52.546L20.4,52.745L20.6,52.524L20.8,52.143L21,52.222L21.2,52.513L21.4,52.289L21.6,50.595L21.8,51.738L22,51.837L22.2,51.797L22.4,50.993L22.6,51.925L22.8,50.947L23,50.914L23.2,50.384L23.4,50.271L23.6,50.792L23.8,50.332L24,50.354L24.2,50.343L24.4,50.244L24.6,50.237L24.8,50.812L25,50.136L25.2,50.086L25.4,49.834L25.6,49.925L25.8,50.397L26,49.778L26.2,49.76L26.4,49.083L26.6,49.046L26.8,49.048L27,48.924L27.2,48.295L27.4,48.69L27.6,49.438L27.8,48.683L28,48.399L28.2,48.149L28.4,47.729L28.6,48.248L28.8,48.52L29,47.936L29.2,47.2L29.4,47.911L29.6,48.471L29.8,47.589L30,47.552L30.2,46.997L30.4,48.849L30.6,47.033L30.8,46.883L31,46.301L31.2,46.44L31.4,45.779L31.6,46.91L31.8,47.003L32,45.394L32.2,46.442L32.4,45.949L32.6,45.745L32.8,45.27L33,45.763L33.2,45.715L33.4,44.46L33.6,44.789L33.8,43.768L34,44.637L34.2,43.581L34.4,44.502L34.6,43.981L34.8,45.08L35,44.333L35.2,44.255L35.4,43.785L35.6,43.263L35.8,43.485L36,43.056L36.2,43.287L36.4,43.499L36.6,43.218L36.8,43.836L37,43.516L37.2,43.193L37.4,42.292L37.6,43.917L37.8,42.663L38,43.546L38.2,43.814L38.4,43.945L38.6,43.032L38.8,42.841L39,43.356L39.2,42.248L39.4,41.941L39.6,41.782L39.8,42.684L40,42.347L40.2,41.951L40.4,42.063L40.6,41.638L40.8,41.819L41,41.401L41.2,42.319L41.4,40.399L41.6,41.807L41.8,40.673L42,41.345L42.2,41.139L42.4,41.316L42.6,40.962L42.8,40.441L43,40.37L43.2,40.527L43.4,41.235L43.6,40.374L43.8,40.39L44,39.764L44.2,39.758L44.4,40.259L44.6,40.146L44.8,40.59L45,40.975L45.2,40.493L45.4,39.605L45.6,39.774L45.8,40.573L46,39.552L46.2,39.837L46.4,39.666L46.6,39.676L46.8,40.58L47,38.855L47.2,40.502L47.4,39.484L47.6,39.086L47.8,38.646L48,38.736L48.2,39.49L48.4,39.42L48.6,38.303L48.8,39.121L49,37.626L49.2,38.606L49.4,38.472L49.6,40.539L49.8,38.971L50,38.789L50.2,38.766L50.4,39.582L50.6,38.223L50.8,38.898L51,38.519L51.2,38.385L51.4,38.604L51.6,39.515L51.8,39.006L52,38.563L52.2,38.754L52.4,38.87L52.6,38.1L52.8,37.674L53,38.351L53.2,38.561L53.4,38.439L53.6,38.363L53.8,37.779L54,36.467L54.2,37.55L54.4,37.338L54.6,37.287L54.8,36.914L55,38.541L55.2,37.716L55.4,36.58L55.6,37.983L55.8,37.94L56,35.987L56.2,36.379L56.4,36.298L56.6,36.152L56.8,35.642L57,36.316L57.2,36.04L57.4,34.897L57.6,35.513L57.8,35.831L58,35.05L58.2,34.541L58.4,35.191L58.6,34.902L58.8,35.262L59,34.432L59.2,34.179L59.4,35.253L59.6,34.157L59.8,34.365L60,35.107L60.2,34.739L60.4,34.584L60.6,34.767L60.8,35.975L61,34.198L61.2,34.601L61.4,34.213L61.6,33.813L61.8,34.572L62,33.725L62.2,33.78L62.4,33.969L62.6,34.418L62.8,33.724L63,33.922L63.2,34.191L63.4,33.294L63.6,33.648L63.8,33.069L64,32.552L64.2,33.774L64.4,33.899L64.6,33.597L64.8,33.992L65,33.168L65.2,32.736L65.4,32.585L65.6,33.193L65.8,32.896L66,32.975L66.2,32.655L66.4,33.824L66.6,32.264L66.8,32.331L67,32.671L67.2,31.775L67.4,31.906L67.6,31.866L67.8,31.903L68,32.879L68.2,32.756L68.4,31.718L68.6,31.197L68.8,31.21L69,31.56L69.2,30.366L69.4,31.001L69.6,31.52L69.8,30.667L70,31.4L70.2,31.275L70.4,31.581L70.6,30.518L70.8,31.538L71,32.122L71.2,30.68L71.4,31.346L71.6,30.424L71.8,30.993L72,31.394L72.2,31.109L72.4,31.093L72.6,31.222L72.8,30.964L73,30.828L73.2,30.177L73.4,30.87L73.6,30.322L73.8,30.6L74,30.534L74.2,31.251L74.4,30.575L74.6,30.198L74.8,30.143L75,30.268L75.2,29.774L75.4,30.389L75.6,30.072L75.8,29.373L76,29.716L76.2,29.723L76.4,29.452L76.6,29.659L76.8,29.822L77,29.46L77.2,28.901L77.4,29.565L77.6,29.655L77.8,27.699L78,28.164L78.2,28.894L78.4,29.617L78.6,27.965L78.8,29.321L79,27.866L79.2,27.813L79.4,28.9L79.6,28.9L79.8,28.953L80,30.166L80.2,29.015L80.4,29.436L80.6,28.816L80.8,29.135L81,27.722L81.2,28.467L81.4,29.173L81.6,28.481L81.8,28.292L82,27.349L82.2,27.821L82.4,27.811L82.6,27.813L82.8,27.879L83,28.837L83.2,28.451L83.4,27.93L83.6,28.118L83.8,27.029L84,26.622L84.2,27.475L84.4,27.636L84.6,28.345L84.8,28.037L85,27.685L85.2,27.053L85.4,27.601L85.6,27.68L85.8,28.054L86,27.814L86.2,28.696L86.4,27.322L86.6,27.122L86.8,27.466L87,26.531L87.2,27.216L87.4,27.252L87.6,28.054L87.8,27.547L88,26.704L88.2,27.748L88.4,27.087L88.6,26.579L88.8,25.887L89,26.511L89.2,27.66L89.4,26.986L89.6,26.706L89.8,26.908L90,26.126L90.2,25.721L90.4,26.218L90.6,25.931L90.8,25.171L91,26.104L91.2,25.889L91.4,25.708L91.6,25.892L91.8,25.6L92,25.519L92.2,26.467L92.4,25.137L92.6,25.304L92.8,26.217L93,25.1L93.2,24.357L93.4,24.679L93.6,25.237L93.8,24.691L94,25.234L94.2,25.078L94.4,25.01L94.6,25.196L94.8,25.972L95,24.964L95.2,24.464L95.4,23.278L95.6,24.059L95.8,25.453L96,24.775L96.2,24.827L96.4,25.33L96.6,25.125L96.8,24.9L97,24.385L97.2,24.804L97.4,24.179L97.6,24.159L97.8,23.633L98,23.348L98.2,23.261L98.4,23.195L98.6,25.008L98.8,24.196L99,23.56L99.2,23.077L99.4,23.968L99.6,23.019L99.8,24.104L100,24.28L100.2,24.449L100.4,24.273L100.6,23.651L100.8,24.563L101,22.836L101.2,23.36L101.4,23.627L101.6,22.914L101.8,23.105L102,23.779L102.2,22.567L102.4,23.485L102.6,23.195L102.8,22.876L103,23.231L103.2,21.682L103.4,23.239L103.6,22.623L103.8,22.716L104,22.744L104.2,23.04L104.4,21.704L104.6,21.137L104.8,22.619L105,21.907L105.2,22.327L105.4,22.332L105.6,23.082L105.8,22.401L106,22.547L106.2,22.757L106.4,22.302L106.6,22.847L106.8,21.191L107,21.435L107.2,21.592L107.4,21.656L107.6,22.404L107.8,21.227L108,21.923L108.2,22.353L108.4,22.454L108.6,21.719L108.8,21.426L109,22.744L109.2,20.915L109.4,21.246L109.6,20.542L109.8,21.609L110,21.468L110.2,21.749L110.4,20.032L110.6,20.52L110.8,20.081L111,22.204L111.2,20.639L111.4,19.091L111.6,21.431L111.8,20.829L112,20.303L112.2,20.088L112.4,19.852L112.6,21.351L112.8,20.234L113,20.391L113.2,20.449L113.4,20.998L113.6,20.038L113.8,20.937L114,20.539L114.2,20.676L114.4,19.791L114.6,20.326L114.8,20.71L115,20.115L115.2,20.5L115.4,20.165L115.6,20.101L115.8,19.952L116,20.94L116.2,19.641L116.4,20.353L116.6,19.541L116.8,21.279L117,19.498L117.2,19.236L117.4,19.131L117.6,18.862L117.8,19.58L118,21.258L118.2,20.374L118.4,20.614L118.6,19.415L118.8,19.903L119,18.429L119.2,19.386L119.4,18.641L119.6,17.683L119.8,19.855L120,19.585L120.2,19.783L120.4,17.376L120.6,17.958L120.8,18.808L121,18.555L121.2,18.828L121.4,18.738L121.6,18.802L121.8,19.453L122,18.321L122.2,18.498L122.4,18.04L122.6,18.136L122.8,17.721L123,18.661L123.2,17.726L123.4,17.511L123.6,18.044L123.8,17.655L124,18.747L124.2,17.249L124.4,18.15L124.6,18.581L124.8,18.792L125,18.136L125.2,17.229L125.4,17.281L125.6,17.652L125.8,17.644L126,19.566L126.2,16.761L126.4,18.3L126.6,17.955L126.8,17.039L127,17.285L127.2,16.373L127.4,18.029L127.6,17.22L127.8,18.692L128,17.431L128.2,17.177L128.4,18.064L128.6,15.939L128.8,15.93L129,17.164L129.2,17.058L129.4,16.889L129.6,18.015L129.8,18.14L130,16.685L130.2,17.123L130.4,16.966L130.6,15.752L130.8,16.252L131,16.119L131.2,16.943L131.4,16.829L131.6,15.062L131.8,15.33L132,15.804L132.2,16.378L132.4,16.618L132.6,16.321L132.8,16.562L133,15.234L133.2,16.468L133.4,16.949L133.6,14.532L133.8,15.254L134,16.606L134.2,16.806L134.4,16.017L134.6,15.638L134.8,15.482L135,15.521L135.2,15.728L135.4,15.323L135.6,16.755L135.8,14.967L136,16.408L136.2,15.616L136.4,14.848L136.6,15.637L136.8,14.849L137,13.794L137.2,13.994L137.4,14.191L137.6,15.378L137.8,14.837L138,15.456L138.2,15.574L138.4,15.893L138.6,15.726L138.8,14.12L139,14.872L139.2,15.286L139.4,15.492L139.6,14.489L139.8,15.853L140,14.808L140.2,15.461L140.4,14.417L140.6,14.492L140.8,14.846L141,16.732L141.2,15.105L141.4,14.985L141.6,14.024L141.8,13.627L142,13.925L142.2,14.572L142.4,14.234L142.6,14.181L142.8,12.798L143,14.568L143.2,14.637L143.4,14.684L143.6,14.387L143.8,15.109L144,13.541L144.2,13.967L144.4,13.611L144.6,14.417L144.8,13.708L145,14.206L145.2,13.846L145.4,13.922L145.6,14.316L145.8,13.203L146,14.036L146.2,14.565L146.4,13.389L146.6,14.12L146.8,13.496L147,14.005L147.2,14.112L147.4,13.748L147.6,13.623L147.8,13.583L148,12.946L148.2,12.747L148.4,14.78L148.6,13.827L148.8,13.64L149,13.665L149.2,13.112L149.4,12.415L149.6,13.825L149.8,14.626L150,13.051L150.2,13.308L150.4,13.297L150.6,12.6L150.8,13.778L151,12.414L151.2,12.185L151.4,12.009L151.6,13.855L151.8,12.319L152,13.117L152.2,12.681L152.4,12.953L152.6,14.77L152.8,12.233L153,12.327L153.2,12.021L153.4,12.633L153.6,13.663L153.8,12.325L154,12.532L154.2,12.047L154.4,12.396L154.6,13.175L154.8,12.619L155,12.257L155.2,12.106L155.4,13.374L155.6,13.44L155.8,11.416L156,12.701L156.2,13.312L156.4,11.543L156.6,10.305L156.8,10.144L157,10.169L157.2,10.456L157.4,10.487L157.6,12.251L157.8,11.829L158,11.236L158.2,12.845L158.4,11.444L158.6,10.879L158.8,11.595L159,11.949L159.2,12.233L159.4,11.785L159.6,11.344L159.8,11.721L160,11.492L160.2,11.171L160.4,11.236L160.6,10.55L160.8,10.677L161,11.024L161.2,10.22L161.4,10.445L161.6,9.978L161.8,11.194L162,11.548L162.2,12.027L162.4,11.755L162.6,10.88L162.8,11.274L163,9.944L163.2,10.879L163.4,11.011L163.6,11.419L163.8,11.515L164,11.644L164.2,10.349L164.4,11.173L164.6,11.39L164.8,9.729L165,9.591L165.2,11.91L165.4,10.185L165.6,10.517L165.8,9.79L166,10.917L166.2,10.473L166.4,10.811L166.6,8.621L166.8,10.092L167,10.391L167.2,10.313L167.4,10.377L167.6,8.933L167.8,9.278L168,9.908L168.2,9.577L168.4,9.965L168.6,9.492L168.8,9.317L169,9.618L169.2,9.568L169.4,11.009L169.6,8.604L169.8,10.623L170,10.056L170.2,10.121L170.4,9.486L170.6,8.371L170.8,10.369L171,9.931L171.2,10.267L171.4,11.424L171.6,10.576L171.8,8.366L172,8.984L172.2,10.429L172.4,7.546L172.6,8.33L172.8,10.279L173,10.99L173.2,8.95L173.4,9.23L173.6,8.869L173.8,9.982L174,9.593L174.2,8.924L174.4,8.98L174.6,7.911L174.8,8.042L175,8.675L175.2,10.254L175.4,8.451L175.6,7.833L175.8,9.261L176,8.844L176.2,8.327L176.4,9.362L176.6,8.184L176.8,8.859L177,9.078L177.2,8.513L177.4,9.112L177.6,8.092L177.8,6.818L178,9.195L178.2,9.056L178.4,7.426L178.6,7.468L178.8,6.789L179,7.284L179.2,7.911L179.4,7.604L179.6,6.55L179.8,7.114L180,7.169L180.2,7.093L180.4,6.13L180.6,7.965L180.8,7.404L181,6.991L181.2,7.198L181.4,7.378L181.6,6.681L181.8,6.083L182,6.259L182.2,7.134L182.4,6.784L182.6,7.817L182.8,5.784L183,7.887L183.2,7.225L183.4,6.562L183.6,7.004L183.8,6.094L184,6.45L184.2,7.506L184.4,6.008L184.6,7.648L184.8,5.599L185,5.092L185.2,5.924L185.4,5.037L185.6,6.483L185.8,6.164L186,6.172L186.2,5.612L186.4,5.354L186.6,6.668L186.8,7.03L187,4.994L187.2,5.606L187.4,6.252L187.6,5.623L187.8,6.839L188,5.97L188.2,6.11L188.4,6.099L188.6,6.39L188.8,7.689L189,5.201L189.2,7.228L189.4,5.554L189.6,6.474L189.8,4.59L190,4.97L190.2,5.721L190.4,5.966L190.6,5.678L190.8,5.616L191,5.194L191.2,5.382L191.4,5.367L191.6,5.348L191.8,5.905L192,5.884L192.2,6.107L192.4,5.34L192.6,4.488L192.8,5.748L193,5L193.2,5.007L193.4,4.989L193.6,5.079L193.8,5.296L194,5.4L194.2,4.363L194.4,3.713L194.6,4.374L194.8,5.7L195,4.711L195.2,5.685L195.4,3.855L195.6,5.957L195.8,4.749L196,4.701L196.2,6.401L196.4,4.754L196.6,5.323L196.8,4.135L197,4.633L197.2,3.293L197.4,5.325L197.6,3.897L197.8,4.685L198,5.004L198.2,4.826L198.4,6.546L198.6,4.21L198.8,4.097L199,3.751L199.2,4.89L199.4,4.659L199.6,4.389L199.8,3.7L200,3.7" stroke="#6583ff" stroke-width="2"/></g></g><path class="foreground" aria-hidden="true" d="" display="none"/></g></g></g></svg>