<svg xmlns="http://www.w3.org/2000/svg" xmlns:xlink="http://www.w3.org/1999/xlink" version="1.1" class="marks" width="265" height="254" viewBox="0 0 265 254"><rect width="265" height="254" fill="#fff"/><g fill="none" stroke-miterlimit="10" transform="translate(58,11)"><g class="mark-group role-frame root" role="graphics-object" aria-roledescription="group mark container"><g transform="translate(0,0)"><path class="background" aria-hidden="true" d="M0.5,0.5h200v200h-200Z" stroke="#ddd"/><g><g class="mark-group role-axis" aria-hidden="true"><g transform="translate(0.5,200.5)"><path class="background" aria-hidden="true" d="M0,0h0v0h0Z" pointer-events="none"/><g><g class="mark-rule role-axis-grid" pointer-events="none"><line transform="translate(0,-200)" x2="0" y2="200" stroke="#ddd" stroke-width="1" opacity="1"/><line transform="translate(40,-200)" x2="0" y2="200" stroke="#ddd" stroke-width="1" opacity="1"/><line transform="translate(80,-200)" x2="0" y2="200" stroke="#ddd" stroke-width="1" opacity="1"/><line transform="translate(120,-200)" x2="0" y2="200" stroke="#ddd" stroke-width="1" opacity="1"/><line transform="translate(160,-200)" x2="0" y2="200" stroke="#ddd" stroke-width="1" opacity="1"/><line transform="translate(200,-200)" x2="0" y2="200" stroke="#ddd" stroke-width="1" opacity="1"/></g></g><path class="foreground" aria-hidden="true" d="" pointer-events="none" display="none"/></g></g><g class="mark-group role-axis" aria-hidden="true"><g transform="translate(0.5,0.5)"><path class="background" aria-hidden="true" d="M0,0h0v0h0Z" pointer-events="none"/><g><g class="mark-rule role-axis-grid" pointer-events="none"><line transform="translate(0,200)" x2="200" y2="0" stroke="#e1e8f0" stroke-width="1" opacity="1"/><line transform="translate(0,171)" x2="200" y2="0" stroke="#e1e8f0" stroke-width="1" opacity="1"/><line transform="translate(0,143)" x2="200" y2="0" stroke="#e1e8f0" stroke-width="1" opacity="1"/><line transform="translate(0,114)" x2="200" y2="0" stroke="#e1e8f0" stroke-width="1" opacity="1"/><line transform="translate(0,86)" x2="200" y2="0" stroke="#e1e8f0" stroke-width="1" opacity="1"/><line transform="translate(0,57)" x2="200" y2="0" stroke="#e1e8f0" stroke-width="1" opacity="1"/><line transform="translate(0,29)" x2="200" y2="0" stroke="#e1e8f0" stroke-width="1" opacity="1"/><line transform="translate(0,0)" x2="200" y2="0" stroke="#e1e8f0" stroke-width="1" opacity="1"/></g></g><path class="foreground" aria-hidden="true" d="" pointer-events="none" display="none"/></g></g><g class="mark-group role-axis" role="graphics-symbol" aria-roledescription="axis" aria-label="X-axis titled 'generation' for a linear scale with values from 0 to 1,000"><g transform="translate(0.5,200.5)"><path class="background" aria-hidden="true" d="M0,0h0v0h0Z" pointer-events="none"/><g><g class="mark-rule role-axis-tick" pointer-events="none"><line transform="translate(0,0)" x2="0" y2="5" stroke="#888" stroke-width="1" opacity="1"/><line transform="translate(40,0)" x2="0" y2="5" stroke="#888" stroke-width="1" opacity="1"/><line transform="translate(80,0)" x2="0" y2="5" stroke="#888" stroke-width="1" opacity="1"/><line transform="translate(120,0)" x2="0" y2="5" stroke="#888" stroke-width="1" opacity="1"/><line transform="translate(160,0)" x2="0" y2="5" stroke="#888" stroke-width="1" opacity="1"/><line transform="translate(200,0)" x2="0" y2="5" stroke="#888" stroke-width="1" opacity="1"/></g><g class="mark-text role-axis-label" pointer-events="none"><text text-anchor="start" transform="translate(0,15)" font-family="sans-serif" font-size="10px" fill="#000" opacity="1">0</text><text text-anchor="middle" transform="translate(40,15)" font-family="sans-serif" font-size="10px" fill="#000" opacity="1">200</text><text text-anchor="middle" transform="translate(80,15)" font-family="sans-serif" font-size="10px" fill="#000" opacity="1">400</text><text text-anchor="middle" transform="translate(120,15)" font-family="sans-serif" font-size="10px" fill="#000" opacity="1">600</text><text text-anchor="middle" transform="translate(160,15)" font-family="sans-serif" font-size="10px" fill="#000" opacity="1">800</text><text text-anchor="end" transform="translate(200,15)" font-family="sans-serif" font-size="10px" fill="#000" opacity="1">1,000</text></g><g class="mark-rule role-axis-domain" pointer-events="none"><line transform="translate(0,0)" x2="200" y2="0" stroke="#e1e8f0" stroke-width="1" opacity="1"/></g><g class="mark-text role-axis-title" pointer-events="none"><text text-anchor="middle" transform="translate(100,36)" font-family="sans-serif" font-size="11px" font-weight="400" fill="#1c2a3a" opacity="1">generation</text></g></g><path class="foreground" aria-hidden="true" d="" pointer-events="none" display="none"/></g></g><g class="mark-group role-axis" role="graphics-symbol" aria-roledescription="axis" aria-label="Y-axis titled 'population_fitness' for a linear scale with values from 0.0 to 0.7"><g transform="translate(0.5,0.5)"><path class="background" aria-hidden="true" d="M0,0h0v0h0Z" pointer-events="none"/><g><g class="mark-rule role-axis-tick" pointer-events="none"><line transform="translate(0,200)" x2="-5" y2="0" stroke="#888" stroke-width="1" opacity="1"/><line transform="translate(0,171)" x2="-5" y2="0" stroke="#888" stroke-width="1" opacity="1"/><line transform="translate(0,143)" x2="-5" y2="0" stroke="#888" stroke-width="1" opacity="1"/><line transform="translate(0,114)" x2="-5" y2="0" stroke="#888" stroke-width="1" opacity="1"/><line transform="translate(0,86)" x2="-5" y2="0" stroke="#888" stroke-width="1" opacity="1"/><line transform="translate(0,57)" x2="-5" y2="0" stroke="#888" stroke-width="1" opacity="1"/><line transform="translate(0,29)" x2="-5" y2="0" stroke="#888" stroke-width="1" opacity="1"/><line transform="translate(0,0)" x2="-5" y2="0" stroke="#888" stroke-width="1" opacity="1"/></g><g class="mark-text role-axis-label" pointer-events="none"><text text-anchor="end" transform="translate(-13,204)" font-family="sans-serif" font-size="12px" fill="#000" opacity="1">0.0</text><text text-anchor="end" transform="translate(-13,175.42857142857142)" font-family="sans-serif" font-size="12px" fill="#000" opacity="1">0.1</text><text text-anchor="end" transform="translate(-13,146.85714285714283)" font-family="sans-serif" font-size="12px" fill="#000" opacity="1">0.2</text><text text-anchor="end" transform="translate(-13,118.28571428571428)" font-family="sans-serif" font-size="12px" fill="#000" opacity="1">0.3</text><text text-anchor="end" transform="translate(-13,89.7142857142857)" font-family="sans-serif" font-size="12px" fill="#000" opacity="1">0.4</text><text text-anchor="end" transform="translate(-13,61.14285714285714)" font-family="sans-serif" font-size="12px" fill="#000" opacity="1">0.5</text><text text-anchor="end" transform="translate(-13,32.571428571428555)" font-family="sans-serif" font-size="12px" fill="#000" opacity="1">0.6</text><text text-anchor="end" transform="translate(-13,4)" font-family="sans-serif" font-size="12px" fill="#000" opacity="1">0.7</text></g><g class="mark-rule role-axis-domain" pointer-events="none"><line transform="translate(0,200)" x2="0" y2="-200" stroke="#888" stroke-width="1" opacity="1"/></g><g class="mark-text role-axis-title" pointer-events="none"><text text-anchor="middle" transform="translate(-39.681640625,100) rotate(-90) translate(0,-3)" font-family="sans-serif" font-size="12px" font-weight="400" fill="#1c2a3a" opacity="1">population_fitness</text></g></g><path class="foreground" aria-hidden="true" d="" pointer-events="none" display="none"/></g></g><g class="mark-line role-mark marks" role="graphics-object" aria-roledescription="line mark container"><path aria-label="generation: 0; population_fitness: 0.466755192486" role="graphics-symbol" aria-roledescription="line mark" d="M0,66.641L0.2,65.926L0.4,65.655L0.6,65.43L0.8,65.281L1,65.014L1.2,64.659L1.4,64.374L1.6,64.205L1.8,63.781L2,63.593L2.2,63.495L2.4,63.22L2.6,62.841L2.8,62.806L3,62.351L3.2,61.93L3.4,61.712L3.6,61.294L3.8,61.193L4,61.052L4.2,60.336L4.4,60.524L4.6,59.947L4.8,59.984L5,59.591L5.2,59.617L5.4,59.675L5.6,59.261L5.8,59.123L6,58.803L6.2,58.16L6.4,57.887L6.6,58.007L6.8,57.315L7,57.078L7.2,57.106L7.4,56.694L7.6,56.31L7.8,55.892L8,55.65L8.2,55.37L8.4,55.382L8.6,55.316L8.8,54.874L9,54.686L9.2,54.266L9.4,54.237L9.6,53.947L9.8,53.922L10,53.865L10.2,53.718L10.4,53.571L10.6,53.534L10.8,53.527L11,53.459L11.2,53.525L11.4,53.146L11.6,52.769L11.8,52.944L12,52.972L12.2,52.333L12.4,51.845L12.6,51.761L12.8,51.401L13,51.224L13.2,50.868L13.4,50.749L13.6,50.512L13.8,50.259L14,49.978L14.2,50.045L14.4,49.648L14.6,49.616L14.8,49.349L15,49.476L15.2,49.256L15.4,49.16L15.6,49.294L15.8,49.076L16,49.163L16.2,49.287L16.4,48.81L16.6,48.695L16.8,48.54L17,48.04L17.2,48.137L17.4,47.805L17.6,47.472L17.8,47.312L18,47.633L18.2,47.229L18.4,47.322L18.6,47.029L18.8,47.014L19,46.703L19.2,46.402L19.4,46.087L19.6,46.234L19.8,46.223L20,46.393L20.2,45.803L20.4,45.724L20.6,45.573L20.8,45.447L21,45.048L21.2,45.025L21.4,44.866L21.6,44.508L21.8,44.624L22,44.705L22.2,44.528L22.4,44.504L22.6,44.271L22.8,44.272L23,44.343L23.2,44.325L23.4,44.38L23.6,44.293L23.8,44.326L24,44.312L24.2,44.106L24.4,43.947L24.6,44.074L24.8,43.943L25,43.915L25.2,43.806L25.4,43.62L25.6,43.775L25.8,43.78L26,43.254L26.2,43.416L26.4,43.407L26.6,43.218L26.8,42.633L27,42.37L27.2,42.006L27.4,41.798L27.6,42.014L27.8,41.66L28,41.616L28.2,41.303L28.4,41.032L28.6,41.148L28.8,41.251L29,40.866L29.2,40.789L29.4,40.262L29.6,40.474L29.8,40.077L30,39.892L30.2,39.528L30.4,39.629L30.6,39.633L30.8,39.557L31,39.092L31.2,38.698L31.4,38.847L31.6,38.67L31.8,38.893L32,38.812L32.2,38.494L32.4,38.638L32.6,37.933L32.8,38.277L33,37.986L33.2,37.529L33.4,37.715L33.6,37.569L33.8,37.509L34,37.517L34.2,36.991L34.4,37.016L34.6,36.865L34.8,37.038L35,36.485L35.2,36.792L35.4,36.31L35.6,36.398L35.8,36.146L36,35.919L36.2,35.766L36.4,35.812L36.6,35.535L36.8,35.698L37,35.835L37.2,35.553L37.4,35.217L37.6,35.16L37.8,35.195L38,35.106L38.2,35.168L38.4,35.213L38.6,35.272L38.8,35.439L39,35.002L39.2,34.572L39.4,34.541L39.6,34.525L39.8,34.249L40,34.411L40.2,34.029L40.4,34.2L40.6,34.146L40.8,33.966L41,34.255L41.2,34.192L41.4,34.063L41.6,33.523L41.8,33.275L42,33.493L42.2,33.207L42.4,33.317L42.6,33.434L42.8,33.079L43,33.015L43.2,33.322L43.4,32.929L43.6,33.197L43.8,32.854L44,32.964L44.2,32.849L44.4,33.058L44.6,32.902L44.8,32.96L45,33.19L45.2,32.942L45.4,32.706L45.6,32.902L45.8,32.616L46,32.543L46.2,32.645L46.4,32.453L46.6,32.856L46.8,32.185L47,32.119L47.2,32.315L47.4,32.096L47.6,32.377L47.8,32.203L48,32.564L48.2,32.161L48.4,31.917L48.6,31.981L48.8,31.611L49,31.754L49.2,31.679L49.4,31.876L49.6,31.552L49.8,31.242L50,30.991L50.2,31.36L50.4,31.291L50.6,31.191L50.8,31.154L51,31.196L51.2,30.918L51.4,31.353L51.6,30.802L51.8,31.022L52,31.015L52.2,30.949L52.4,30.835L52.6,31.09L52.8,30.591L53,30.763L53.2,30.18L53.4,30.361L53.6,30.544L53.8,30.219L54,30.481L54.2,30.291L54.4,30.304L54.6,30.021L54.8,29.95L55,30.621L55.2,30.436L55.4,30.449L55.6,30.381L55.8,29.856L56,29.928L56.2,29.564L56.4,29.434L56.6,29.439L56.8,29.331L57,29.599L57.2,29.585L57.4,28.737L57.6,29.245L57.8,29.066L58,28.838L58.2,28.623L58.4,28.665L58.6,28.398L58.8,28.719L59,28.248L59.2,28.635L59.4,28.719L59.6,28.485L59.8,28.481L60,28.234L60.2,28.18L60.4,28.079L60.6,28.05L60.8,27.836L61,27.875L61.2,27.776L61.4,27.62L61.6,27.617L61.8,27.528L62,27.83L62.2,27.482L62.4,27.1L62.6,27.583L62.8,27.111L63,27.022L63.2,27.041L63.4,27.203L63.6,26.687L63.8,26.755L64,27.019L64.2,26.811L64.4,26.505L64.6,26.746L64.8,26.626L65,26.67L65.2,26.373L65.4,26.284L65.6,26.605L65.8,26.701L66,26.528L66.2,26.642L66.4,26.8L66.6,26.183L66.8,26.454L67,26.525L67.2,26.42L67.4,26.409L67.6,26.415L67.8,26.055L68,26.295L68.2,26.42L68.4,26.314L68.6,26.17L68.8,26.316L69,26.225L69.2,26.353L69.4,26.043L69.6,25.942L69.8,26.022L70,26.384L70.2,25.838L70.4,26.024L70.6,25.667L70.8,26.093L71,25.806L71.2,25.277L71.4,25.835L71.6,25.204L71.8,25.639L72,25.707L72.2,25.263L72.4,25.09L72.6,24.806L72.8,24.859L73,24.438L73.2,24.818L73.4,24.516L73.6,24.446L73.8,24.223L74,24.309L74.2,23.786L74.4,23.756L74.6,23.795L74.8,23.675L75,23.975L75.2,23.761L75.4,23.409L75.6,23.434L75.8,23.566L76,23.575L76.2,23.81L76.4,23.237L76.6,23.625L76.8,23.525L77,23.564L77.2,23.45L77.4,23.734L77.6,23.016L77.8,23.486L78,22.997L78.2,23.252L78.4,23.41L78.6,23.182L78.8,23.598L79,23.486L79.2,23.192L79.4,23.754L79.6,23.518L79.8,23.136L80,23.333L80.2,23.087L80.4,23.235L80.6,23.341L80.8,23.269L81,22.969L81.2,23.061L81.4,22.821L81.6,23.057L81.8,23.474L82,23.183L82.2,23.01L82.4,23.212L82.6,22.795L82.8,23.089L83,22.911L83.2,23.071L83.4,22.682L83.6,22.775L83.8,23.077L84,22.92L84.2,23.198L84.4,23.355L84.6,23.109L84.8,22.319L85,22.634L85.2,22.737L85.4,22.54L85.6,22.659L85.8,22.41L86,22.417L86.2,22.57L86.4,22.236L86.6,22.35L86.8,22.286L87,22.304L87.2,22.527L87.4,22.305L87.6,22.253L87.8,22.278L88,22.309L88.2,22.331L88.4,22.185L88.6,22.447L88.8,22.478L89,22.455L89.2,22.26L89.4,22.174L89.6,21.891L89.8,22.028L90,21.946L90.2,22.025L90.4,21.911L90.6,21.601L90.8,21.418L91,21.51L91.2,21.459L91.4,21.527L91.6,21.577L91.8,21.388L92,21.363L92.2,20.973L92.4,21.017L92.6,20.818L92.8,20.827L93,21.049L93.2,21.228L93.4,20.926L93.6,21.279L93.8,21.174L94,21.128L94.2,21.187L94.4,21.079L94.6,21.14L94.8,20.799L95,20.783L95.2,20.946L95.4,20.99L95.6,20.879L95.8,21.281L96,20.838L96.2,20.501L96.4,20.461L96.6,20.7L96.8,20.676L97,20.887L97.2,20.688L97.4,21.085L97.6,20.557L97.8,20.361L98,20.571L98.2,20.691L98.4,20.327L98.6,20.272L98.8,20.456L99,20.076L99.2,20.258L99.4,20.494L99.6,20.418L99.8,20.462L100,20.392L100.2,20.608L100.4,20.358L100.6,20.103L100.8,20.42L101,20.233L101.2,20.061L101.4,20.287L101.6,20.292L101.8,20.042L102,19.897L102.2,19.975L102.4,20.316L102.6,20.333L102.8,20.214L103,19.984L103.2,19.606L103.4,20.09L103.6,19.911L103.8,19.74L104,19.852L104.2,19.797L104.4,19.796L104.6,19.768L104.8,19.557L105,19.536L105.2,19.545L105.4,19.542L105.6,19.049L105.8,19.347L106,18.991L106.2,19.025L106.4,19.15L106.6,18.544L106.8,18.945L107,18.981L107.2,18.675L107.4,18.448L107.6,18.787L107.8,18.783L108,18.663L108.2,19.129L108.4,18.606L108.6,18.657L108.8,18.379L109,18.77L109.2,18.235L109.4,18.569L109.6,18.448L109.8,18.201L110,18.524L110.2,18.241L110.4,18.228L110.6,18.475L110.8,17.838L111,18.222L111.2,18.384L111.4,17.934L111.6,18.295L111.8,18.322L112,18.32L112.2,18.051L112.4,17.929L112.6,17.704L112.8,17.957L113,17.883L113.2,17.882L113.4,18.146L113.6,18.115L113.8,18.279L114,17.847L114.2,18.067L114.4,17.895L114.6,17.956L114.8,18.282L115,18.054L115.2,17.705L115.4,18.151L115.6,18.075L115.8,17.717L116,17.73L116.2,17.968L116.4,17.807L116.6,17.687L116.8,17.77L117,17.903L117.2,17.467L117.4,17.264L117.6,17.606L117.8,17.764L118,17.642L118.2,17.624L118.4,17.49L118.6,17.332L118.8,17.684L119,16.736L119.2,17.325L119.4,16.807L119.6,17.099L119.8,17.331L120,17.197L120.2,17.09L120.4,16.808L120.6,16.497L120.8,16.417L121,16.162L121.2,16.247L121.4,16.45L121.6,16.161L121.8,16.453L122,16.161L122.2,16.429L122.4,16.662L122.6,16.022L122.8,16.062L123,16.251L123.2,16.328L123.4,15.956L123.6,15.731L123.8,15.822L124,15.573L124.2,15.462L124.4,15.446L124.6,15.829L124.8,15.944L125,15.588L125.2,15.419L125.4,15.469L125.6,15.322L125.8,15.345L126,15.236L126.2,15.522L126.4,15.323L126.6,15.27L126.8,15.439L127,15.213L127.2,15.25L127.4,15.54L127.6,15.25L127.8,15.002L128,14.922L128.2,15.213L128.4,15.279L128.6,15.118L128.8,15.248L129,15.177L129.2,15.105L129.4,14.765L129.6,15.261L129.8,15.093L130,15.297L130.2,14.728L130.4,14.727L130.6,14.552L130.8,14.644L131,14.221L131.2,14.453L131.4,14.792L131.6,14.385L131.8,14.686L132,14.992L132.2,14.826L132.4,14.449L132.6,14.352L132.8,14.212L133,14.476L133.2,14.854L133.4,14.037L133.6,14.578L133.8,14.495L134,13.557L134.2,14.006L134.4,13.821L134.6,13.851L134.8,14.014L135,13.939L135.2,13.59L135.4,13.872L135.6,14.316L135.8,13.517L136,14.062L136.2,14.002L136.4,13.93L136.6,13.827L136.8,13.828L137,13.748L137.2,13.506L137.4,13.458L137.6,13.928L137.8,13.567L138,13.593L138.2,13.793L138.4,13.904L138.6,13.56L138.8,13.648L139,13.096L139.2,13.514L139.4,13.066L139.6,13.073L139.8,13.432L140,13.197L140.2,13.19L140.4,13.287L140.6,13.425L140.8,13.506L141,13.425L141.2,13.483L141.4,12.913L141.6,13.244L141.8,12.913L142,13.446L142.2,13.169L142.4,13.289L142.6,12.657L142.8,13.055L143,12.24L143.2,12.215L143.4,12.299L143.6,12.446L143.8,12.506L144,12.55L144.2,12.504L144.4,12.601L144.6,12.168L144.8,12.543L145,12.696L145.2,12.533L145.4,12.078L145.6,12.268L145.8,11.595L146,11.656L146.2,11.588L146.4,11.675L146.6,11.443L146.8,11.814L147,11.281L147.2,11.716L147.4,11.855L147.6,11.468L147.8,11.489L148,11.417L148.2,11.602L148.4,11.446L148.6,11.634L148.8,11.65L149,11.488L149.2,11.568L149.4,11.337L149.6,11.186L149.8,11.162L150,11.036L150.2,10.797L150.4,10.995L150.6,10.737L150.8,11.323L151,11.054L151.2,11.085L151.4,11.046L151.6,11.225L151.8,10.884L152,10.947L152.2,10.777L152.4,10.819L152.6,10.615L152.8,10.994L153,10.73L153.2,10.855L153.4,10.771L153.6,10.868L153.8,10.774L154,10.698L154.2,10.796L154.4,10.759L154.6,10.774L154.8,10.992L155,10.613L155.2,11.081L155.4,10.879L155.6,10.912L155.8,10.124L156,10.544L156.2,9.69L156.4,10.157L156.6,9.789L156.8,10.152L157,9.806L157.2,9.714L157.4,9.788L157.6,9.967L157.8,9.831L158,9.669L158.2,9.979L158.4,9.651L158.6,9.704L158.8,10.087L159,10.079L159.2,9.5L159.4,9.69L159.6,9.338L159.8,9.418L160,9.489L160.2,9.234L160.4,9.555L160.6,9.522L160.8,9.557L161,9.484L161.2,9.349L161.4,9.634L161.6,9.287L161.8,9.327L162,9.499L162.2,9.026L162.4,9.27L162.6,9.399L162.8,9.263L163,9.297L163.2,9.599L163.4,9.125L163.6,9.323L163.8,9.239L164,9.186L164.2,9.638L164.4,9.101L164.6,9.499L164.8,9.211L165,9.409L165.2,9.445L165.4,8.84L165.6,9.111L165.8,9.076L166,8.925L166.2,9.262L166.4,9.242L166.6,9.221L166.8,8.763L167,8.929L167.2,9.045L167.4,8.869L167.6,9.171L167.8,9.107L168,9.097L168.2,9.18L168.4,8.896L168.6,8.756L168.8,8.514L169,8.593L169.2,8.909L169.4,8.867L169.6,9.188L169.8,8.952L170,8.857L170.2,9.218L170.4,8.812L170.6,8.727L170.8,8.934L171,8.58L171.2,8.765L171.4,8.952L171.6,8.427L171.8,9.191L172,8.878L172.2,8.516L172.4,8.75L172.6,8.915L172.8,8.645L173,8.674L173.2,8.828L173.4,8.69L173.6,8.42L173.8,8.955L174,8.623L174.2,8.45L174.4,8.862L174.6,8.85L174.8,8.941L175,8.522L175.2,8.874L175.4,8.222L175.6,8.717L175.8,8.419L176,8.4L176.2,8.714L176.4,8.405L176.6,8.095L176.8,8.327L177,8.657L177.2,8.626L177.4,8.045L177.6,8.158L177.8,7.692L178,8.215L178.2,8.329L178.4,7.921L178.6,8.128L178.8,8.535L179,7.841L179.2,7.6L179.4,7.966L179.6,7.998L179.8,7.941L180,7.97L180.2,8.064L180.4,8.173L180.6,7.927L180.8,8.25L181,7.588L181.2,8.079L181.4,7.826L181.6,7.617L181.8,8.001L182,7.367L182.2,7.239L182.4,7.7L182.6,7.687L182.8,7.424L183,7.667L183.2,7.349L183.4,7.491L183.6,7.281L183.8,7.879L184,7.684L184.2,7.329L184.4,7.614L184.6,7.427L184.8,7.747L185,7.568L185.2,7.298L185.4,7.204L185.6,7.179L185.8,7.313L186,7.229L186.2,7.853L186.4,7.455L186.6,7.458L186.8,7.49L187,7.115L187.2,7.338L187.4,7.71L187.6,7.457L187.8,7.297L188,7.466L188.2,7.366L188.4,7.367L188.6,6.986L188.8,7.087L189,7.695L189.2,7.235L189.4,6.704L189.6,6.751L189.8,6.497L190,7.114L190.2,6.948L190.4,7.042L190.6,6.655L190.8,6.602L191,6.769L191.2,7.139L191.4,6.977L191.6,6.957L191.8,6.76L192,6.876L192.2,6.714L192.4,6.979L192.6,6.555L192.8,6.39L193,6.392L193.2,6.505L193.4,5.95L193.6,6.272L193.8,6.633L194,6.302L194.2,6.5L194.4,6.609L194.6,6.141L194.8,6.519L195,6.068L195.2,5.68L195.4,5.819L195.6,6.008L195.8,5.951L196,5.486L196.2,5.495L196.4,6.029L196.6,5.973L196.8,5.926L197,5.965L197.2,5.85L197.4,5.783L197.6,5.788L197.8,5.741L198,5.791L198.2,5.951L198.4,5.764L198.6,5.701L198.8,5.665L199,5.656L199.2,5.855L199.4,5.592L199.6,5.658L199.8,5.736L200,5.736" stroke="#6583ff" stroke-width="2"/></g></g><path class="foreground" aria-hidden="true" d="" display="none"/></g></g></g></svg>