<svg width="416" height="332" viewBox="0 0 416 332" fill="none" xmlns="http://www.w3.org/2000/svg">
<mask id="mask0_1_53" style="mask-type:alpha" maskUnits="userSpaceOnUse" x="0" y="0" width="416" height="332">
<rect width="416" height="332" fill="#D9D9D9"/>
</mask>
<g mask="url(#mask0_1_53)">
<path d="M324.54 56.5085L314.323 56.2409L313.722 51.6917L310.417 49.0157L310.116 46.3397L324.24 53.2973L324.54 56.5085ZM219.966 34.8331H214.557L210.35 32.9599L212.754 30.2839L217.863 31.3543L219.966 34.8331ZM305.008 36.1711L301.101 38.0442H297.195L293.288 41.523L286.978 38.5794L285.475 35.6358L285.776 29.7488L287.579 26.0023L293.589 23.594L296.293 26.8052L301.402 28.4108L299.899 32.9599L305.008 36.1711ZM164.975 18.5096L170.384 20.3828L175.192 24.6643L175.492 28.4108L170.384 32.6923L180 31.8895L182.404 35.1007L187.512 34.0302L201.035 38.847L210.651 36.4387L212.754 40.185L210.951 44.199L204.34 48.4806L208.547 51.6917L214.858 51.1565L225.676 53.5649L235.592 46.875L238.898 45.537L249.716 44.7341L265.041 32.6923L280.968 35.1007L285.475 40.185L296.594 45.8046L306.21 45.2694L310.116 50.6213L312.52 57.3112L318.23 60.79L326.644 62.128L328.747 69.0855L334.156 80.057L333.255 87.2822L327.545 92.0989L325.442 96.3805L330.25 100.127L340.166 105.746L344.373 110.296L342.57 117.253L348.58 123.408L350.984 128.492L348.881 135.45L346.477 138.393L352.186 146.689V150.97L358.797 153.379L363.605 161.942L362.403 168.097L357.595 177.73L354.891 179.603L350.684 177.998V175.589L346.176 171.575L339.565 170.505L337.161 172.111L341.669 176.124L335.959 177.73L325.442 181.744L312.22 184.42L310.417 187.631L307.111 187.364L302.303 189.237L300.5 191.913L294.49 192.716L292.086 196.194L285.776 195.124L277.963 196.73L274.657 198.335L268.948 205.293L263.238 199.941L261.736 201.814L269.248 210.912L276.16 214.391L277.963 218.672L274.357 223.222L278.564 227.236L283.973 234.461L290.884 239.813H294.791L303.505 246.77L311.018 250.784L314.924 255.066H318.831L327.545 260.953L329.348 262.826L328.747 270.319L324.841 272.727L317.929 270.319L315.826 278.079L312.821 280.755L304.106 282.896L294.791 287.713L292.988 291.191L300.5 298.684L300.801 302.163L298.998 305.642L304.106 306.444L305.008 311.529L304.106 315.543L298.998 314.472L295.392 312.064L294.791 309.12L291.485 307.782L283.973 309.12L279.465 306.98L273.455 306.177L273.155 309.923L256.026 311.261L244.307 315.275L241.001 317.683L229.582 319.021L225.375 313.937L217.262 312.867L208.848 313.134L208.247 318.219L205.242 322.5L200.434 323.838L200.734 320.359L197.128 319.557L194.424 315.81L183.906 311.529L181.803 312.867L175.192 309.656L159.866 303.501L162.871 307.782L151.753 308.318L148.447 305.909L146.043 306.444L141.836 303.768H137.93L134.023 306.98L134.624 310.994L126.811 310.458L116.895 312.064L108.481 311.796L105.476 310.994L102.17 307.515V303.501L103.973 298.149L103.372 291.727L104.274 287.713L107.279 282.896L111.486 268.178L122.003 258.009L121.703 254.531L116.895 252.925L102.471 250.784L96.4607 247.038L87.4457 248.643L81.1352 248.376L80.2338 245.967L76.0268 244.897L70.6177 246.77L60.1002 235.264L55.8932 234.996L57.6963 226.968L60.4007 224.56V220.813L51.9868 217.87L47.4793 213.588L46.5777 207.701L48.3807 203.152L55.2922 199.673L54.0902 194.321L48.9818 192.448L50.1838 188.434L41.1688 182.279L42.9718 175.857L37.2622 172.646L38.7647 170.505L45.3757 166.223L43.2722 163.012L47.1788 155.52V152.308L37.8632 141.337L39.9668 138.393L45.3757 136.52L52.2872 138.661L65.8097 135.182L67.9132 132.506L64.9082 130.098L65.8097 127.689L73.6227 123.408L75.4257 116.45L73.0218 113.774L65.2088 112.971L63.1052 110.296L64.9082 106.014L74.2238 106.282L77.5293 96.1129L79.6327 91.5637L79.3322 80.057L74.2238 76.3107L75.7263 69.0855L79.0318 65.3392L81.7363 64.2688L93.7563 63.466L107.279 63.7336L112.988 69.6207L111.185 72.8319L115.993 73.6347L118.698 67.2124L122.905 69.3531L126.21 69.0855L124.708 64.5364L125.309 60.2548L128.013 56.5085L137.93 58.114L148.748 57.3112L149.048 55.7057L140.634 54.3677L137.93 51.4241L137.329 40.9878L132.821 38.847L128.013 39.6498V35.6358L138.23 32.6923V30.0163L128.013 19.8476L127.412 15.566L135.526 15.8337L151.152 19.3124L160.467 17.4393L164.975 18.5096Z" fill="url(#paint0_linear_1_53)" stroke="#8E368F" stroke-width="0.1" stroke-linecap="round" stroke-linejoin="round"/>
<path d="M428.811 699.815L425.205 706.505L416.791 718.012L412.283 731.659L413.185 737.011L417.993 740.758L415.889 742.096L420.697 746.912L420.998 750.391L415.589 755.476L414.387 760.025L414.687 764.039L405.973 762.433L401.766 763.236L390.647 759.49L384.938 751.997L375.923 746.645H366.908L362.701 745.307L353.986 740.222L344.971 736.476L337.158 730.857L332.05 729.786L327.542 727.11H318.828L311.916 722.829L308.01 716.674L311.916 706.773L316.123 704.632L318.828 701.421L325.739 707.575L331.148 705.435L335.355 701.153L342.567 701.421L344.07 703.829L348.277 704.632L355.789 708.913L359.996 709.984L370.213 707.308L379.228 708.378L387.642 707.04L392.751 705.435L396.357 702.759L400.564 701.956L411.081 702.759L417.091 699.548L419.495 700.083L425.505 696.872L428.811 699.815ZM193.519 588.762L195.623 591.17L201.032 604.55L199.229 608.832L195.322 614.184L197.726 621.677L195.923 652.45L194.12 660.211L191.416 661.281L182.701 658.07L178.194 658.873L174.588 657.267L173.686 665.295L168.277 670.914L159.262 670.379L157.159 668.774L149.947 658.605L148.745 647.098L150.548 643.619V636.93L153.853 636.662V632.113L148.444 628.902V623.817L150.548 620.071L150.247 613.113L147.843 610.705L145.439 604.55L138.828 598.128L139.129 589.03L149.346 590.635L153.252 589.832L162.568 585.818L168.878 579.128L173.085 577.79L177.593 572.974L179.696 575.382L186.307 577.523L189.913 581.537L192.618 582.875L190.514 586.621L193.519 588.762ZM218.461 506.342L219.362 510.088L211.85 511.426L208.544 508.482L217.259 507.947L218.461 506.342ZM332.35 354.881L331.749 357.29L321.833 363.444L323.936 367.191L330.848 369.064L326.04 374.684L326.941 377.36L330.848 377.895L329.646 383.247L335.355 386.19L339.863 389.669L340.464 393.148L335.956 393.415L338.06 391.81L332.05 385.923L326.04 388.331L316.424 385.923L310.113 391.275L305.606 392.345L300.497 395.289L290.881 398.5L285.472 397.429L282.467 399.303L281.265 407.598L283.669 409.204L288.177 416.161L293.285 419.105L291.182 424.189L288.477 426.062L284.571 424.724L283.669 429.274L286.374 441.315L290.581 449.879L294.187 453.357L302.3 459.245L310.414 462.188L325.739 472.089L334.153 475.033L336.257 476.906L341.666 484.399L346.474 492.962L351.883 506.609L355.789 513.299L362.701 521.06L377.125 532.031L390.046 539.791L402.066 544.876L411.081 545.679L432.116 544.608L439.929 546.481L441.131 549.693L439.929 552.101L431.215 557.721V562.27L435.722 565.481L457.058 574.044L478.694 581.002L485.305 584.748L493.418 590.368L512.65 598.128L515.956 601.874L527.976 609.902L533.385 616.325L534.887 621.141L530.38 632.916L525.572 631.578L519.862 628.099L510.547 613.649L495.522 612.311L486.807 608.832L484.704 605.085L477.792 604.015L473.886 606.423L469.679 611.775L465.171 619.803L460.664 631.31V635.859L463.969 640.408L472.684 643.084L479.896 647.098L484.704 651.38L485.605 661.549L488.31 667.168L485.605 670.647L479.896 669.844L472.383 671.717L467.275 675.464L465.171 679.21L466.674 688.308L465.772 692.055L455.856 698.745L451.048 705.435L448.043 711.589H435.121L431.816 707.575L431.515 701.688L433.318 698.21L438.126 696.336L440.831 688.844L439.328 683.492L442.634 679.21L451.048 677.337V669.577L446.841 666.098L442.634 652.45L435.422 640.943L431.215 630.775L427.909 625.958L423.702 623.282L412.584 622.479L398.761 615.522L397.859 612.578L399.662 609.635L396.357 602.142L390.347 597.593L382.534 599.198L378.928 598.931L378.627 594.917L372.617 591.438L364.504 590.903L362.4 589.03L354.587 578.326L349.479 573.776L342.567 574.044L330.848 571.636L324.838 573.509L315.222 566.551L306.808 564.143L289.679 549.96L284.27 544.608L273.753 538.721L266.841 530.158L261.432 526.947L249.412 523.2L248.511 519.722L239.195 511.426L234.087 508.75L230.18 503.131L222.668 501.793L222.968 494.568L219.362 485.202L214.254 479.314L210.648 465.132L208.244 461.118L202.835 458.174L190.815 454.963L173.686 445.865L170.381 445.597L160.164 442.118L153.853 441.583L146.04 444.794L136.725 453.357L129.212 462.456L126.508 464.061L116.291 467.273L107.276 468.61L106.675 464.597L112.985 457.639L112.084 452.287L102.167 453.893L86.8418 447.47L84.1373 445.062L83.8368 441.315L81.7334 437.837L85.9404 431.147L88.3443 429.274L86.8418 424.724L77.2259 420.978L72.7184 412.682L75.1223 411.612L80.8318 412.147L85.9404 408.668L89.5464 407.866L91.9504 401.176L86.5414 396.894L81.4329 389.937L78.7284 388.331L78.4279 384.05L86.2409 379.5L90.4479 381.374L97.6598 380.036L105.473 377.36L114.788 379.5L122 375.754L126.808 369.867L125.005 365.853L135.222 358.092L138.227 359.698L138.828 366.388L146.04 371.74L152.651 373.346L151.449 376.557L155.356 379.768L158.06 383.514L161.666 381.641L159.563 377.092L160.164 374.416L166.775 367.458L168.277 364.515V356.754L174.287 356.487L176.691 362.106L182.701 364.247L191.416 361.304L193.519 361.571L197.726 366.656L201.332 365.853L196.825 356.487L198.628 351.67L202.534 350.867L205.539 353.276L211.249 353.811L209.746 348.994L211.249 340.699L220.264 341.501L222.968 343.642L229.279 344.713L232.584 343.642L236.19 337.755L240.397 336.15L250.614 335.347L259.93 335.882L274.053 331.868V338.023L283.369 347.389L286.674 348.727L312.517 352.741L324.537 353.543L332.35 354.881Z" fill="#FDEBFC" stroke="#8E368F" stroke-width="0.1" stroke-linecap="round" stroke-linejoin="round"/>
<path d="M245 238.083L166 214.333L142.3 238.083H126.5L102.8 166.833L126.5 174.75L142.3 166.833L110.7 143.083H126.5L181.8 63.9167L205.5 79.75L197.6 111.417L205.5 135.167V151H213.4L245 119.333V135.167L284.5 151L245 238.083Z" stroke="url(#paint1_linear_1_53)"/>
<path d="M166 217.208C167.586 217.208 168.87 215.92 168.87 214.333C168.87 212.747 167.586 211.458 166 211.458C164.414 211.458 163.13 212.747 163.13 214.333C163.13 215.92 164.414 217.208 166 217.208Z" fill="#7708CE" stroke="white"/>
<path d="M126.5 177.625C128.086 177.625 129.37 176.337 129.37 174.75C129.37 173.163 128.086 171.875 126.5 171.875C124.914 171.875 123.63 173.163 123.63 174.75C123.63 176.337 124.914 177.625 126.5 177.625Z" fill="#7708CE" stroke="white"/>
<path d="M181.8 66.7917C183.386 66.7917 184.67 65.5035 184.67 63.9167C184.67 62.3298 183.386 61.0417 181.8 61.0417C180.214 61.0417 178.93 62.3298 178.93 63.9167C178.93 65.5035 180.214 66.7917 181.8 66.7917Z" fill="#7708CE" stroke="white"/>
<path d="M245 138.042C246.586 138.042 247.87 136.753 247.87 135.167C247.87 133.58 246.586 132.292 245 132.292C243.414 132.292 242.13 133.58 242.13 135.167C242.13 136.753 243.414 138.042 245 138.042Z" fill="#7708CE" stroke="white"/>
<path d="M142.3 169.708C143.886 169.708 145.17 168.42 145.17 166.833C145.17 165.246 143.886 163.958 142.3 163.958C140.714 163.958 139.43 165.246 139.43 166.833C139.43 168.42 140.714 169.708 142.3 169.708Z" fill="#7708CE" stroke="white"/>
<path d="M205.5 82.625C207.086 82.625 208.37 81.3368 208.37 79.75C208.37 78.1632 207.086 76.875 205.5 76.875C203.914 76.875 202.63 78.1632 202.63 79.75C202.63 81.3368 203.914 82.625 205.5 82.625Z" fill="#7708CE" stroke="white"/>
<path d="M205.5 153.875C207.086 153.875 208.37 152.587 208.37 151C208.37 149.413 207.086 148.125 205.5 148.125C203.914 148.125 202.63 149.413 202.63 151C202.63 152.587 203.914 153.875 205.5 153.875Z" fill="#7708CE" stroke="white"/>
<path d="M205.5 138.042C207.086 138.042 208.37 136.753 208.37 135.167C208.37 133.58 207.086 132.292 205.5 132.292C203.914 132.292 202.63 133.58 202.63 135.167C202.63 136.753 203.914 138.042 205.5 138.042Z" fill="#7708CE" stroke="white"/>
<path d="M245 122.208C246.586 122.208 247.87 120.92 247.87 119.333C247.87 117.747 246.586 116.458 245 116.458C243.414 116.458 242.13 117.747 242.13 119.333C242.13 120.92 243.414 122.208 245 122.208Z" fill="#7708CE" stroke="white"/>
<path d="M102.8 169.708C104.386 169.708 105.67 168.42 105.67 166.833C105.67 165.246 104.386 163.958 102.8 163.958C101.214 163.958 99.93 165.246 99.93 166.833C99.93 168.42 101.214 169.708 102.8 169.708Z" fill="#7708CE" stroke="white"/>
<path d="M110.7 145.958C112.286 145.958 113.57 144.67 113.57 143.083C113.57 141.496 112.286 140.208 110.7 140.208C109.114 140.208 107.83 141.496 107.83 143.083C107.83 144.67 109.114 145.958 110.7 145.958Z" fill="#7708CE" stroke="white"/>
<path d="M197.6 114.292C199.186 114.292 200.47 113.003 200.47 111.417C200.47 109.83 199.186 108.542 197.6 108.542C196.014 108.542 194.73 109.83 194.73 111.417C194.73 113.003 196.014 114.292 197.6 114.292Z" fill="#7708CE" stroke="white"/>
<path d="M126.5 145.958C128.086 145.958 129.37 144.67 129.37 143.083C129.37 141.496 128.086 140.208 126.5 140.208C124.914 140.208 123.63 141.496 123.63 143.083C123.63 144.67 124.914 145.958 126.5 145.958Z" fill="#7708CE" stroke="white"/>
<path d="M126.5 240.958C128.086 240.958 129.37 239.67 129.37 238.083C129.37 236.497 128.086 235.208 126.5 235.208C124.914 235.208 123.63 236.497 123.63 238.083C123.63 239.67 124.914 240.958 126.5 240.958Z" fill="#7708CE" stroke="white"/>
<path d="M245 240.958C246.586 240.958 247.87 239.67 247.87 238.083C247.87 236.497 246.586 235.208 245 235.208C243.414 235.208 242.13 236.497 242.13 238.083C242.13 239.67 243.414 240.958 245 240.958Z" fill="#7708CE" stroke="white"/>
<path d="M142.3 240.958C143.886 240.958 145.17 239.67 145.17 238.083C145.17 236.497 143.886 235.208 142.3 235.208C140.714 235.208 139.43 236.497 139.43 238.083C139.43 239.67 140.714 240.958 142.3 240.958Z" fill="#7708CE" stroke="white"/>
<path d="M213.4 153.875C214.986 153.875 216.27 152.587 216.27 151C216.27 149.413 214.986 148.125 213.4 148.125C211.814 148.125 210.53 149.413 210.53 151C210.53 152.587 211.814 153.875 213.4 153.875Z" fill="#7708CE" stroke="white"/>
<path d="M284.5 153.875C286.086 153.875 287.37 152.587 287.37 151C287.37 149.413 286.086 148.125 284.5 148.125C282.914 148.125 281.63 149.413 281.63 151C281.63 152.587 282.914 153.875 284.5 153.875Z" fill="#7708CE" stroke="white"/>
<path d="M253.968 233.932V239.75H253.263V234.67H253.229L251.809 235.614V234.898L253.263 233.932H253.968Z" fill="black"/>
<path d="M172.922 216V215.489L174.843 213.386C175.068 213.14 175.254 212.926 175.4 212.744C175.545 212.561 175.653 212.388 175.723 212.227C175.795 212.064 175.831 211.894 175.831 211.716C175.831 211.511 175.782 211.334 175.684 211.185C175.587 211.035 175.454 210.92 175.286 210.838C175.117 210.757 174.928 210.716 174.718 210.716C174.494 210.716 174.299 210.762 174.133 210.855C173.968 210.946 173.84 211.074 173.749 211.239C173.66 211.403 173.615 211.597 173.615 211.818H172.945C172.945 211.477 173.024 211.178 173.181 210.92C173.338 210.663 173.552 210.462 173.823 210.318C174.096 210.174 174.401 210.102 174.74 210.102C175.081 210.102 175.383 210.174 175.647 210.318C175.91 210.462 176.116 210.656 176.266 210.901C176.416 211.145 176.49 211.417 176.49 211.716C176.49 211.93 176.452 212.139 176.374 212.344C176.298 212.546 176.166 212.773 175.976 213.023C175.789 213.271 175.528 213.574 175.195 213.932L173.888 215.33V215.375H176.593V216H172.922Z" fill="black"/>
<path d="M151.188 239.83C150.813 239.83 150.479 239.765 150.185 239.636C149.894 239.508 149.662 239.329 149.489 239.099C149.319 238.868 149.226 238.6 149.211 238.295H149.927C149.942 238.483 150.006 238.645 150.12 238.781C150.234 238.916 150.382 239.02 150.566 239.094C150.75 239.168 150.953 239.205 151.177 239.205C151.427 239.205 151.648 239.161 151.842 239.074C152.035 238.987 152.186 238.866 152.296 238.71C152.406 238.555 152.461 238.375 152.461 238.17C152.461 237.956 152.408 237.768 152.302 237.605C152.196 237.44 152.04 237.312 151.836 237.219C151.631 237.126 151.381 237.08 151.086 237.08H150.62V236.455H151.086C151.317 236.455 151.52 236.413 151.694 236.33C151.87 236.246 152.007 236.129 152.106 235.977C152.206 235.826 152.256 235.648 152.256 235.443C152.256 235.246 152.213 235.075 152.126 234.929C152.039 234.783 151.915 234.67 151.756 234.588C151.599 234.507 151.414 234.466 151.2 234.466C150.999 234.466 150.809 234.503 150.631 234.577C150.455 234.649 150.311 234.754 150.2 234.892C150.088 235.028 150.027 235.193 150.018 235.386H149.336C149.347 235.081 149.439 234.814 149.611 234.585C149.784 234.354 150.009 234.174 150.288 234.045C150.568 233.917 150.876 233.852 151.211 233.852C151.571 233.852 151.879 233.925 152.137 234.071C152.395 234.215 152.593 234.405 152.731 234.642C152.869 234.879 152.938 235.134 152.938 235.409C152.938 235.737 152.852 236.016 152.68 236.247C152.509 236.478 152.277 236.638 151.984 236.727V236.773C152.351 236.833 152.638 236.99 152.844 237.241C153.051 237.491 153.154 237.801 153.154 238.17C153.154 238.487 153.068 238.771 152.896 239.023C152.725 239.273 152.492 239.47 152.197 239.614C151.901 239.758 151.565 239.83 151.188 239.83Z" fill="black"/>
<path d="M133.286 238.557V237.977L135.843 233.932H136.263V234.83H135.979L134.047 237.886V237.932H137.49V238.557H133.286ZM136.025 239.75V238.381V238.111V233.932H136.695V239.75H136.025Z" fill="black"/>
<path d="M111.54 168.58C111.207 168.58 110.907 168.513 110.64 168.381C110.373 168.248 110.159 168.066 109.998 167.835C109.837 167.604 109.749 167.341 109.734 167.045H110.415C110.442 167.309 110.561 167.527 110.773 167.699C110.987 167.869 111.243 167.955 111.54 167.955C111.779 167.955 111.991 167.899 112.177 167.787C112.364 167.675 112.511 167.522 112.617 167.327C112.725 167.13 112.779 166.907 112.779 166.659C112.779 166.405 112.723 166.179 112.611 165.98C112.502 165.779 112.35 165.621 112.157 165.506C111.964 165.39 111.743 165.331 111.495 165.33C111.317 165.328 111.134 165.355 110.947 165.412C110.759 165.467 110.605 165.538 110.484 165.625L109.825 165.545L110.177 162.682H113.2V163.307H110.768L110.563 165.023H110.597C110.717 164.928 110.866 164.849 111.046 164.787C111.226 164.724 111.414 164.693 111.609 164.693C111.965 164.693 112.282 164.778 112.56 164.949C112.841 165.117 113.06 165.348 113.219 165.642C113.38 165.936 113.461 166.271 113.461 166.648C113.461 167.019 113.378 167.35 113.211 167.642C113.046 167.932 112.819 168.161 112.529 168.33C112.239 168.496 111.91 168.58 111.54 168.58Z" fill="black"/>
<path d="M135.354 176.496C135.115 176.492 134.877 176.447 134.638 176.36C134.4 176.273 134.182 176.126 133.985 175.919C133.788 175.711 133.63 175.43 133.51 175.076C133.391 174.72 133.331 174.273 133.331 173.735C133.331 173.22 133.38 172.763 133.476 172.366C133.573 171.966 133.713 171.63 133.897 171.357C134.08 171.082 134.302 170.874 134.561 170.732C134.823 170.59 135.117 170.519 135.445 170.519C135.771 170.519 136.061 170.584 136.314 170.715C136.57 170.844 136.778 171.024 136.939 171.255C137.1 171.486 137.204 171.752 137.252 172.053H136.559C136.494 171.792 136.369 171.575 136.184 171.402C135.998 171.23 135.752 171.144 135.445 171.144C134.994 171.144 134.639 171.34 134.38 171.732C134.122 172.124 133.992 172.674 133.99 173.383H134.036C134.142 173.222 134.268 173.084 134.414 172.971C134.561 172.855 134.724 172.766 134.902 172.704C135.08 172.641 135.269 172.61 135.468 172.61C135.801 172.61 136.106 172.693 136.383 172.86C136.659 173.025 136.881 173.253 137.047 173.544C137.214 173.834 137.297 174.167 137.297 174.542C137.297 174.902 137.217 175.231 137.056 175.53C136.895 175.828 136.668 176.064 136.377 176.241C136.087 176.415 135.746 176.5 135.354 176.496ZM135.354 175.871C135.593 175.871 135.807 175.812 135.996 175.692C136.187 175.573 136.338 175.413 136.448 175.212C136.56 175.011 136.615 174.788 136.615 174.542C136.615 174.301 136.561 174.082 136.454 173.885C136.347 173.687 136.201 173.528 136.013 173.411C135.828 173.294 135.615 173.235 135.377 173.235C135.197 173.235 135.029 173.271 134.874 173.343C134.719 173.413 134.582 173.509 134.465 173.633C134.349 173.756 134.258 173.897 134.192 174.056C134.126 174.213 134.093 174.379 134.093 174.553C134.093 174.784 134.147 175 134.255 175.201C134.365 175.402 134.514 175.563 134.704 175.687C134.895 175.81 135.112 175.871 135.354 175.871Z" fill="black"/>
<path d="M149.404 168.5L152.006 163.352V163.307H149.006V162.682H152.734V163.341L150.143 168.5H149.404Z" fill="black"/>
<path d="M119.486 144.83C119.096 144.83 118.751 144.76 118.452 144.622C118.154 144.482 117.922 144.29 117.756 144.045C117.589 143.799 117.507 143.519 117.509 143.205C117.507 142.958 117.555 142.731 117.654 142.523C117.752 142.312 117.886 142.137 118.057 141.997C118.229 141.855 118.422 141.765 118.634 141.727V141.693C118.355 141.621 118.134 141.465 117.969 141.224C117.804 140.982 117.723 140.706 117.725 140.398C117.723 140.102 117.797 139.838 117.949 139.605C118.101 139.372 118.309 139.188 118.574 139.054C118.841 138.92 119.145 138.852 119.486 138.852C119.823 138.852 120.124 138.92 120.389 139.054C120.654 139.188 120.863 139.372 121.014 139.605C121.168 139.838 121.245 140.102 121.247 140.398C121.245 140.706 121.161 140.982 120.994 141.224C120.83 141.465 120.611 141.621 120.338 141.693V141.727C120.548 141.765 120.738 141.855 120.906 141.997C121.075 142.137 121.209 142.312 121.31 142.523C121.41 142.731 121.461 142.958 121.463 143.205C121.461 143.519 121.376 143.799 121.208 144.045C121.041 144.29 120.809 144.482 120.511 144.622C120.216 144.76 119.874 144.83 119.486 144.83ZM119.486 144.205C119.749 144.205 119.976 144.162 120.168 144.077C120.359 143.991 120.507 143.871 120.611 143.716C120.715 143.561 120.768 143.379 120.77 143.17C120.768 142.951 120.711 142.757 120.6 142.588C120.488 142.42 120.335 142.287 120.142 142.19C119.951 142.094 119.732 142.045 119.486 142.045C119.238 142.045 119.016 142.094 118.821 142.19C118.628 142.287 118.476 142.42 118.364 142.588C118.254 142.757 118.2 142.951 118.202 143.17C118.2 143.379 118.25 143.561 118.352 143.716C118.457 143.871 118.605 143.991 118.798 144.077C118.992 144.162 119.221 144.205 119.486 144.205ZM119.486 141.443C119.694 141.443 119.879 141.402 120.04 141.318C120.203 141.235 120.331 141.118 120.423 140.969C120.516 140.819 120.564 140.644 120.565 140.443C120.564 140.246 120.517 140.075 120.426 139.929C120.335 139.781 120.209 139.668 120.048 139.588C119.887 139.507 119.7 139.466 119.486 139.466C119.268 139.466 119.078 139.507 118.915 139.588C118.752 139.668 118.626 139.781 118.537 139.929C118.448 140.075 118.404 140.246 118.406 140.443C118.404 140.644 118.449 140.819 118.54 140.969C118.633 141.118 118.761 141.235 118.923 141.318C119.086 141.402 119.274 141.443 119.486 141.443Z" fill="black"/>
<path d="M135.275 138.852C135.513 138.854 135.752 138.9 135.99 138.989C136.229 139.078 136.447 139.225 136.644 139.432C136.841 139.636 136.999 139.916 137.118 140.27C137.238 140.624 137.297 141.068 137.297 141.602C137.297 142.119 137.248 142.579 137.15 142.98C137.053 143.38 136.913 143.717 136.729 143.991C136.547 144.266 136.326 144.474 136.064 144.616C135.805 144.759 135.511 144.83 135.184 144.83C134.858 144.83 134.567 144.765 134.311 144.636C134.058 144.506 133.849 144.325 133.686 144.094C133.525 143.861 133.422 143.591 133.377 143.284H134.07C134.133 143.551 134.257 143.772 134.442 143.946C134.63 144.118 134.877 144.205 135.184 144.205C135.633 144.205 135.987 144.009 136.246 143.616C136.508 143.224 136.638 142.67 136.638 141.955H136.593C136.487 142.114 136.361 142.251 136.215 142.366C136.069 142.482 135.907 142.571 135.729 142.634C135.551 142.696 135.362 142.727 135.161 142.727C134.828 142.727 134.522 142.645 134.243 142.48C133.967 142.313 133.745 142.085 133.579 141.795C133.414 141.504 133.331 141.17 133.331 140.795C133.331 140.439 133.411 140.114 133.57 139.818C133.731 139.521 133.956 139.284 134.246 139.108C134.538 138.932 134.881 138.847 135.275 138.852ZM135.275 139.477C135.036 139.477 134.821 139.537 134.63 139.656C134.44 139.774 134.29 139.933 134.178 140.134C134.068 140.332 134.013 140.553 134.013 140.795C134.013 141.038 134.066 141.259 134.172 141.457C134.28 141.654 134.427 141.812 134.613 141.929C134.8 142.045 135.013 142.102 135.252 142.102C135.432 142.102 135.599 142.067 135.755 141.997C135.91 141.925 136.045 141.828 136.161 141.705C136.278 141.58 136.37 141.438 136.436 141.281C136.503 141.122 136.536 140.956 136.536 140.784C136.536 140.557 136.481 140.344 136.371 140.145C136.263 139.946 136.114 139.785 135.922 139.662C135.733 139.539 135.517 139.477 135.275 139.477Z" fill="black"/>
<path d="M190.768 59.7652V65.5833H190.063V60.5038H190.029L188.609 61.447V60.7311L190.063 59.7652H190.768ZM194.339 65.6629C193.911 65.6629 193.546 65.5464 193.245 65.3135C192.944 65.0786 192.714 64.7386 192.555 64.2936C192.396 63.8466 192.316 63.3068 192.316 62.6743C192.316 62.0455 192.396 61.5085 192.555 61.0635C192.716 60.6165 192.947 60.2756 193.248 60.0407C193.551 59.804 193.915 59.6856 194.339 59.6856C194.763 59.6856 195.126 59.804 195.427 60.0407C195.73 60.2756 195.961 60.6165 196.12 61.0635C196.281 61.5085 196.361 62.0455 196.361 62.6743C196.361 63.3068 196.282 63.8466 196.123 64.2936C195.964 64.7386 195.734 65.0786 195.432 65.3135C195.131 65.5464 194.767 65.6629 194.339 65.6629ZM194.339 65.0379C194.763 65.0379 195.093 64.8333 195.327 64.4243C195.562 64.0152 195.68 63.4318 195.68 62.6743C195.68 62.1705 195.626 61.7415 195.518 61.3873C195.412 61.0332 195.258 60.7633 195.057 60.5777C194.859 60.3921 194.619 60.2993 194.339 60.2993C193.918 60.2993 193.59 60.5066 193.353 60.9214C193.116 61.3343 192.998 61.9186 192.998 62.6743C192.998 63.178 193.051 63.6061 193.157 63.9583C193.263 64.3106 193.415 64.5786 193.614 64.7623C193.815 64.946 194.057 65.0379 194.339 65.0379Z" fill="black"/>
<path d="M214.468 75.5985V81.4167H213.763V76.3371H213.729L212.309 77.2803V76.5644L213.763 75.5985H214.468ZM218.186 75.5985V81.4167H217.482V76.3371H217.448L216.027 77.2803V76.5644L217.482 75.5985H218.186Z" fill="black"/>
<path d="M206.568 107.265V113.083H205.863V108.004H205.829L204.409 108.947V108.231L205.863 107.265H206.568ZM208.241 113.083V112.572L210.161 110.47C210.387 110.223 210.572 110.009 210.718 109.828C210.864 109.644 210.972 109.472 211.042 109.311C211.114 109.148 211.15 108.977 211.15 108.799C211.15 108.595 211.101 108.418 211.002 108.268C210.906 108.118 210.773 108.003 210.605 107.921C210.436 107.84 210.247 107.799 210.036 107.799C209.813 107.799 209.618 107.846 209.451 107.938C209.286 108.029 209.159 108.157 209.068 108.322C208.979 108.487 208.934 108.68 208.934 108.902H208.264C208.264 108.561 208.342 108.261 208.5 108.004C208.657 107.746 208.871 107.545 209.142 107.402C209.414 107.258 209.72 107.186 210.059 107.186C210.4 107.186 210.702 107.258 210.965 107.402C211.229 107.545 211.435 107.74 211.585 107.984C211.734 108.228 211.809 108.5 211.809 108.799C211.809 109.013 211.77 109.223 211.693 109.427C211.617 109.63 211.484 109.856 211.295 110.106C211.108 110.354 210.847 110.657 210.514 111.015L209.207 112.413V112.458H211.911V113.083H208.241Z" fill="black"/>
<path d="M214.468 131.015V136.833H213.763V131.754H213.729L212.309 132.697V131.981L213.763 131.015H214.468ZM218.107 136.913C217.732 136.913 217.398 136.848 217.104 136.72C216.812 136.591 216.58 136.412 216.408 136.183C216.238 135.952 216.145 135.684 216.13 135.379H216.846C216.861 135.566 216.925 135.728 217.039 135.865C217.152 135.999 217.301 136.103 217.485 136.177C217.668 136.251 217.872 136.288 218.096 136.288C218.346 136.288 218.567 136.244 218.76 136.157C218.954 136.07 219.105 135.949 219.215 135.794C219.325 135.638 219.38 135.458 219.38 135.254C219.38 135.04 219.327 134.851 219.221 134.688C219.115 134.524 218.959 134.395 218.755 134.302C218.55 134.209 218.3 134.163 218.005 134.163H217.539V133.538H218.005C218.236 133.538 218.438 133.496 218.613 133.413C218.789 133.33 218.926 133.212 219.025 133.061C219.125 132.909 219.175 132.731 219.175 132.526C219.175 132.33 219.132 132.158 219.044 132.012C218.957 131.866 218.834 131.753 218.675 131.671C218.518 131.59 218.332 131.549 218.118 131.549C217.918 131.549 217.728 131.586 217.55 131.66C217.374 131.732 217.23 131.837 217.118 131.975C217.007 132.112 216.946 132.276 216.936 132.47H216.255C216.266 132.165 216.358 131.898 216.53 131.669C216.703 131.437 216.928 131.258 217.206 131.129C217.487 131 217.794 130.936 218.13 130.936C218.49 130.936 218.798 131.009 219.056 131.154C219.313 131.298 219.511 131.489 219.65 131.725C219.788 131.962 219.857 132.218 219.857 132.492C219.857 132.82 219.771 133.099 219.598 133.33C219.428 133.562 219.196 133.722 218.902 133.811V133.856C219.27 133.917 219.557 134.073 219.763 134.325C219.97 134.575 220.073 134.884 220.073 135.254C220.073 135.57 219.987 135.854 219.814 136.106C219.644 136.356 219.411 136.553 219.115 136.697C218.82 136.841 218.484 136.913 218.107 136.913Z" fill="black"/>
<path d="M214.468 146.848V152.667H213.763V147.587H213.729L212.309 148.53V147.814L213.763 146.848H214.468ZM216.005 151.473V150.894L218.561 146.848H218.982V147.746H218.698L216.766 150.803V150.848H220.209V151.473H216.005ZM218.743 152.667V151.297V151.027V146.848H219.414V152.667H218.743Z" fill="black"/>
<path d="M222.368 146.848V152.667H221.663V147.587H221.629L220.209 148.53V147.814L221.663 146.848H222.368ZM225.859 152.746C225.526 152.746 225.226 152.68 224.959 152.547C224.692 152.415 224.478 152.233 224.317 152.002C224.156 151.771 224.068 151.508 224.052 151.212H224.734C224.761 151.475 224.88 151.693 225.092 151.866C225.306 152.036 225.562 152.121 225.859 152.121C226.098 152.121 226.31 152.065 226.496 151.954C226.683 151.842 226.83 151.688 226.936 151.493C227.044 151.296 227.098 151.074 227.098 150.826C227.098 150.572 227.042 150.346 226.93 150.147C226.82 149.946 226.669 149.788 226.476 149.672C226.282 149.557 226.062 149.498 225.814 149.496C225.636 149.494 225.453 149.522 225.265 149.579C225.078 149.634 224.924 149.705 224.802 149.792L224.143 149.712L224.496 146.848H227.518V147.473H225.086L224.882 149.189H224.916C225.035 149.095 225.185 149.016 225.365 148.954C225.545 148.891 225.732 148.86 225.927 148.86C226.283 148.86 226.601 148.945 226.879 149.116C227.159 149.284 227.379 149.515 227.538 149.809C227.699 150.102 227.78 150.437 227.78 150.814C227.78 151.186 227.696 151.517 227.53 151.809C227.365 152.098 227.138 152.328 226.848 152.496C226.558 152.663 226.228 152.746 225.859 152.746Z" fill="black"/>
<path d="M253.968 115.182V121H253.263V115.92H253.229L251.809 116.864V116.148L253.263 115.182H253.968ZM257.573 121.08C257.334 121.076 257.096 121.03 256.857 120.943C256.618 120.856 256.4 120.709 256.204 120.503C256.007 120.295 255.848 120.013 255.729 119.659C255.61 119.303 255.55 118.856 255.55 118.318C255.55 117.803 255.598 117.347 255.695 116.949C255.792 116.549 255.932 116.213 256.115 115.94C256.299 115.666 256.521 115.457 256.78 115.315C257.042 115.173 257.336 115.102 257.664 115.102C257.99 115.102 258.279 115.168 258.533 115.298C258.789 115.427 258.997 115.607 259.158 115.838C259.319 116.069 259.423 116.335 259.471 116.636H258.777C258.713 116.375 258.588 116.158 258.402 115.986C258.217 115.813 257.971 115.727 257.664 115.727C257.213 115.727 256.858 115.923 256.598 116.315C256.341 116.707 256.211 117.258 256.209 117.966H256.255C256.361 117.805 256.487 117.668 256.633 117.554C256.78 117.438 256.943 117.349 257.121 117.287C257.299 117.224 257.488 117.193 257.686 117.193C258.02 117.193 258.325 117.277 258.601 117.443C258.878 117.608 259.099 117.836 259.266 118.128C259.433 118.418 259.516 118.75 259.516 119.125C259.516 119.485 259.436 119.814 259.275 120.114C259.114 120.411 258.887 120.648 258.596 120.824C258.306 120.998 257.965 121.083 257.573 121.08ZM257.573 120.455C257.811 120.455 258.025 120.395 258.215 120.276C258.406 120.156 258.557 119.996 258.667 119.795C258.778 119.595 258.834 119.371 258.834 119.125C258.834 118.884 258.78 118.666 258.672 118.469C258.566 118.27 258.419 118.112 258.232 117.994C258.046 117.877 257.834 117.818 257.596 117.818C257.416 117.818 257.248 117.854 257.093 117.926C256.937 117.996 256.801 118.093 256.684 118.216C256.568 118.339 256.477 118.48 256.411 118.639C256.345 118.796 256.311 118.962 256.311 119.136C256.311 119.367 256.365 119.583 256.473 119.784C256.583 119.985 256.733 120.147 256.922 120.27C257.114 120.393 257.33 120.455 257.573 120.455Z" fill="black"/>
<path d="M253.968 131.015V136.833H253.263V131.754H253.229L251.809 132.697V131.981L253.263 131.015H253.968ZM255.823 136.833L258.425 131.686V131.64H255.425V131.015H259.152V131.674L256.561 136.833H255.823Z" fill="black"/>
<path d="M293.468 146.848V152.667H292.763V147.587H292.729L291.309 148.53V147.814L292.763 146.848H293.468ZM297.005 152.746C296.615 152.746 296.27 152.677 295.971 152.539C295.673 152.399 295.441 152.206 295.275 151.962C295.108 151.716 295.025 151.436 295.027 151.121C295.025 150.875 295.074 150.648 295.172 150.439C295.271 150.229 295.405 150.054 295.576 149.914C295.748 149.772 295.94 149.682 296.152 149.644V149.61C295.874 149.538 295.652 149.382 295.488 149.141C295.323 148.899 295.241 148.623 295.243 148.314C295.241 148.019 295.316 147.755 295.468 147.522C295.619 147.289 295.828 147.105 296.093 146.971C296.36 146.836 296.664 146.769 297.005 146.769C297.342 146.769 297.643 146.836 297.908 146.971C298.173 147.105 298.382 147.289 298.533 147.522C298.686 147.755 298.764 148.019 298.766 148.314C298.764 148.623 298.68 148.899 298.513 149.141C298.348 149.382 298.13 149.538 297.857 149.61V149.644C298.067 149.682 298.257 149.772 298.425 149.914C298.594 150.054 298.728 150.229 298.829 150.439C298.929 150.648 298.98 150.875 298.982 151.121C298.98 151.436 298.895 151.716 298.726 151.962C298.56 152.206 298.328 152.399 298.03 152.539C297.735 152.677 297.393 152.746 297.005 152.746ZM297.005 152.121C297.268 152.121 297.495 152.079 297.686 151.993C297.878 151.908 298.025 151.788 298.13 151.633C298.234 151.477 298.287 151.295 298.289 151.087C298.287 150.867 298.23 150.673 298.118 150.505C298.007 150.336 297.854 150.204 297.661 150.107C297.47 150.01 297.251 149.962 297.005 149.962C296.757 149.962 296.535 150.01 296.34 150.107C296.147 150.204 295.994 150.336 295.883 150.505C295.773 150.673 295.719 150.867 295.721 151.087C295.719 151.295 295.769 151.477 295.871 151.633C295.975 151.788 296.124 151.908 296.317 151.993C296.51 152.079 296.74 152.121 297.005 152.121ZM297.005 149.36C297.213 149.36 297.398 149.318 297.559 149.235C297.722 149.152 297.849 149.035 297.942 148.885C298.035 148.736 298.082 148.561 298.084 148.36C298.082 148.163 298.036 147.991 297.945 147.846C297.854 147.698 297.728 147.584 297.567 147.505C297.406 147.423 297.219 147.383 297.005 147.383C296.787 147.383 296.597 147.423 296.434 147.505C296.271 147.584 296.145 147.698 296.056 147.846C295.967 147.991 295.923 148.163 295.925 148.36C295.923 148.561 295.968 148.736 296.059 148.885C296.151 149.035 296.279 149.152 296.442 149.235C296.605 149.318 296.793 149.36 297.005 149.36Z" fill="black"/>
</g>
<defs>
<linearGradient id="paint0_linear_1_53" x1="55.5" y1="46.5" x2="309" y2="229.5" gradientUnits="userSpaceOnUse">
<stop stop-color="#ECE1E9"/>
<stop offset="1" stop-color="#9C3AB4"/>
</linearGradient>
<linearGradient id="paint1_linear_1_53" x1="193.65" y1="63.9167" x2="193.65" y2="238.083" gradientUnits="userSpaceOnUse">
<stop stop-color="white"/>
<stop offset="1" stop-color="#FDEBFC"/>
</linearGradient>
</defs>
</svg>
