<svg xmlns="http://www.w3.org/2000/svg" xmlns:xlink="http://www.w3.org/1999/xlink" version="1.1" class="marks" width="491" height="354" viewBox="0 0 491 354"><rect width="491" height="354" fill="#fff"/><g fill="none" stroke-miterlimit="10" transform="translate(85,11)"><g class="mark-group role-frame root" role="graphics-object" aria-roledescription="group mark container"><g transform="translate(0,0)"><path class="background" aria-hidden="true" d="M0.5,0.5h400v300h-400Z" stroke="#ddd"/><g><g class="mark-group role-axis" aria-hidden="true"><g transform="translate(0.5,300.5)"><path class="background" aria-hidden="true" d="M0,0h0v0h0Z" pointer-events="none"/><g><g class="mark-rule role-axis-grid" pointer-events="none"><line transform="translate(0,-300)" x2="0" y2="300" stroke="#ddd" stroke-width="1" opacity="1"/><line transform="translate(29,-300)" x2="0" y2="300" stroke="#ddd" stroke-width="1" opacity="1"/><line transform="translate(57,-300)" x2="0" y2="300" stroke="#ddd" stroke-width="1" opacity="1"/><line transform="translate(86,-300)" x2="0" y2="300" stroke="#ddd" stroke-width="1" opacity="1"/><line transform="translate(114,-300)" x2="0" y2="300" stroke="#ddd" stroke-width="1" opacity="1"/><line transform="translate(143,-300)" x2="0" y2="300" stroke="#ddd" stroke-width="1" opacity="1"/><line transform="translate(171,-300)" x2="0" y2="300" stroke="#ddd" stroke-width="1" opacity="1"/><line transform="translate(200,-300)" x2="0" y2="300" stroke="#ddd" stroke-width="1" opacity="1"/><line transform="translate(229,-300)" x2="0" y2="300" stroke="#ddd" stroke-width="1" opacity="1"/><line transform="translate(257,-300)" x2="0" y2="300" stroke="#ddd" stroke-width="1" opacity="1"/><line transform="translate(286,-300)" x2="0" y2="300" stroke="#ddd" stroke-width="1" opacity="1"/><line transform="translate(314,-300)" x2="0" y2="300" stroke="#ddd" stroke-width="1" opacity="1"/><line transform="translate(343,-300)" x2="0" y2="300" stroke="#ddd" stroke-width="1" opacity="1"/><line transform="translate(371,-300)" x2="0" y2="300" stroke="#ddd" stroke-width="1" opacity="1"/><line transform="translate(400,-300)" x2="0" y2="300" stroke="#ddd" stroke-width="1" opacity="1"/></g></g><path class="foreground" aria-hidden="true" d="" pointer-events="none" display="none"/></g></g><g class="mark-group role-axis" aria-hidden="true"><g transform="translate(0.5,0.5)"><path class="background" aria-hidden="true" d="M0,0h0v0h0Z" pointer-events="none"/><g><g class="mark-rule role-axis-grid" pointer-events="none"><line transform="translate(0,300)" x2="400" y2="0" stroke="#e1e8f0" stroke-width="1" opacity="1"/><line transform="translate(0,275)" x2="400" y2="0" stroke="#e1e8f0" stroke-width="1" opacity="1"/><line transform="translate(0,250)" x2="400" y2="0" stroke="#e1e8f0" stroke-width="1" opacity="1"/><line transform="translate(0,225)" x2="400" y2="0" stroke="#e1e8f0" stroke-width="1" opacity="1"/><line transform="translate(0,200)" x2="400" y2="0" stroke="#e1e8f0" stroke-width="1" opacity="1"/><line transform="translate(0,175)" x2="400" y2="0" stroke="#e1e8f0" stroke-width="1" opacity="1"/><line transform="translate(0,150)" x2="400" y2="0" stroke="#e1e8f0" stroke-width="1" opacity="1"/><line transform="translate(0,125)" x2="400" y2="0" stroke="#e1e8f0" stroke-width="1" opacity="1"/><line transform="translate(0,100)" x2="400" y2="0" stroke="#e1e8f0" stroke-width="1" opacity="1"/><line transform="translate(0,75)" x2="400" y2="0" stroke="#e1e8f0" stroke-width="1" opacity="1"/><line transform="translate(0,50)" x2="400" y2="0" stroke="#e1e8f0" stroke-width="1" opacity="1"/><line transform="translate(0,25)" x2="400" y2="0" stroke="#e1e8f0" stroke-width="1" opacity="1"/><line transform="translate(0,0)" x2="400" y2="0" stroke="#e1e8f0" stroke-width="1" opacity="1"/></g></g><path class="foreground" aria-hidden="true" d="" pointer-events="none" display="none"/></g></g><g class="mark-group role-axis" role="graphics-symbol" aria-roledescription="axis" aria-label="X-axis titled 'Number of generations' for a linear scale with values from 2,000 to 16,000"><g transform="translate(0.5,300.5)"><path class="background" aria-hidden="true" d="M0,0h0v0h0Z" pointer-events="none"/><g><g class="mark-rule role-axis-tick" pointer-events="none"><line transform="translate(0,0)" x2="0" y2="5" stroke="#888" stroke-width="1" opacity="1"/><line transform="translate(29,0)" x2="0" y2="5" stroke="#888" stroke-width="1" opacity="1"/><line transform="translate(57,0)" x2="0" y2="5" stroke="#888" stroke-width="1" opacity="1"/><line transform="translate(86,0)" x2="0" y2="5" stroke="#888" stroke-width="1" opacity="1"/><line transform="translate(114,0)" x2="0" y2="5" stroke="#888" stroke-width="1" opacity="1"/><line transform="translate(143,0)" x2="0" y2="5" stroke="#888" stroke-width="1" opacity="1"/><line transform="translate(171,0)" x2="0" y2="5" stroke="#888" stroke-width="1" opacity="1"/><line transform="translate(200,0)" x2="0" y2="5" stroke="#888" stroke-width="1" opacity="1"/><line transform="translate(229,0)" x2="0" y2="5" stroke="#888" stroke-width="1" opacity="1"/><line transform="translate(257,0)" x2="0" y2="5" stroke="#888" stroke-width="1" opacity="1"/><line transform="translate(286,0)" x2="0" y2="5" stroke="#888" stroke-width="1" opacity="1"/><line transform="translate(314,0)" x2="0" y2="5" stroke="#888" stroke-width="1" opacity="1"/><line transform="translate(343,0)" x2="0" y2="5" stroke="#888" stroke-width="1" opacity="1"/><line transform="translate(371,0)" x2="0" y2="5" stroke="#888" stroke-width="1" opacity="1"/><line transform="translate(400,0)" x2="0" y2="5" stroke="#888" stroke-width="1" opacity="1"/></g><g class="mark-text role-axis-label" pointer-events="none"><text text-anchor="start" transform="translate(0,15)" font-family="sans-serif" font-size="10px" fill="#000" opacity="1">2,000</text><text text-anchor="middle" transform="translate(28.57142857142857,15)" font-family="sans-serif" font-size="10px" fill="#000" opacity="0">3,000</text><text text-anchor="middle" transform="translate(57.14285714285714,15)" font-family="sans-serif" font-size="10px" fill="#000" opacity="1">4,000</text><text text-anchor="middle" transform="translate(85.71428571428571,15)" font-family="sans-serif" font-size="10px" fill="#000" opacity="0">5,000</text><text text-anchor="middle" transform="translate(114.28571428571428,15)" font-family="sans-serif" font-size="10px" fill="#000" opacity="1">6,000</text><text text-anchor="middle" transform="translate(142.85714285714286,15)" font-family="sans-serif" font-size="10px" fill="#000" opacity="0">7,000</text><text text-anchor="middle" transform="translate(171.42857142857142,15)" font-family="sans-serif" font-size="10px" fill="#000" opacity="1">8,000</text><text text-anchor="middle" transform="translate(200,15)" font-family="sans-serif" font-size="10px" fill="#000" opacity="0">9,000</text><text text-anchor="middle" transform="translate(228.57142857142856,15)" font-family="sans-serif" font-size="10px" fill="#000" opacity="1">10,000</text><text text-anchor="middle" transform="translate(257.14285714285717,15)" font-family="sans-serif" font-size="10px" fill="#000" opacity="0">11,000</text><text text-anchor="middle" transform="translate(285.7142857142857,15)" font-family="sans-serif" font-size="10px" fill="#000" opacity="1">12,000</text><text text-anchor="middle" transform="translate(314.2857142857143,15)" font-family="sans-serif" font-size="10px" fill="#000" opacity="0">13,000</text><text text-anchor="middle" transform="translate(342.85714285714283,15)" font-family="sans-serif" font-size="10px" fill="#000" opacity="1">14,000</text><text text-anchor="middle" transform="translate(371.42857142857144,15)" font-family="sans-serif" font-size="10px" fill="#000" opacity="0">15,000</text><text text-anchor="end" transform="translate(400,15)" font-family="sans-serif" font-size="10px" fill="#000" opacity="1">16,000</text></g><g class="mark-rule role-axis-domain" pointer-events="none"><line transform="translate(0,0)" x2="400" y2="0" stroke="#e1e8f0" stroke-width="1" opacity="1"/></g><g class="mark-text role-axis-title" pointer-events="none"><text text-anchor="middle" transform="translate(200,36)" font-family="sans-serif" font-size="11px" font-weight="400" fill="#1c2a3a" opacity="1">Number of generations</text></g></g><path class="foreground" aria-hidden="true" d="" pointer-events="none" display="none"/></g></g><g class="mark-group role-axis" role="graphics-symbol" aria-roledescription="axis" aria-label="Y-axis titled 'density' for a linear scale with values from 0.00000 to 0.00024"><g transform="translate(0.5,0.5)"><path class="background" aria-hidden="true" d="M0,0h0v0h0Z" pointer-events="none"/><g><g class="mark-rule role-axis-tick" pointer-events="none"><line transform="translate(0,300)" x2="-5" y2="0" stroke="#888" stroke-width="1" opacity="1"/><line transform="translate(0,275)" x2="-5" y2="0" stroke="#888" stroke-width="1" opacity="1"/><line transform="translate(0,250)" x2="-5" y2="0" stroke="#888" stroke-width="1" opacity="1"/><line transform="translate(0,225)" x2="-5" y2="0" stroke="#888" stroke-width="1" opacity="1"/><line transform="translate(0,200)" x2="-5" y2="0" stroke="#888" stroke-width="1" opacity="1"/><line transform="translate(0,175)" x2="-5" y2="0" stroke="#888" stroke-width="1" opacity="1"/><line transform="translate(0,150)" x2="-5" y2="0" stroke="#888" stroke-width="1" opacity="1"/><line transform="translate(0,125)" x2="-5" y2="0" stroke="#888" stroke-width="1" opacity="1"/><line transform="translate(0,100)" x2="-5" y2="0" stroke="#888" stroke-width="1" opacity="1"/><line transform="translate(0,75)" x2="-5" y2="0" stroke="#888" stroke-width="1" opacity="1"/><line transform="translate(0,50)" x2="-5" y2="0" stroke="#888" stroke-width="1" opacity="1"/><line transform="translate(0,25)" x2="-5" y2="0" stroke="#888" stroke-width="1" opacity="1"/><line transform="translate(0,0)" x2="-5" y2="0" stroke="#888" stroke-width="1" opacity="1"/></g><g class="mark-text role-axis-label" pointer-events="none"><text text-anchor="end" transform="translate(-13,304)" font-family="sans-serif" font-size="12px" fill="#000" opacity="1">0.00000</text><text text-anchor="end" transform="translate(-13,279)" font-family="sans-serif" font-size="12px" fill="#000" opacity="1">0.00002</text><text text-anchor="end" transform="translate(-13,253.99999999999997)" font-family="sans-serif" font-size="12px" fill="#000" opacity="1">0.00004</text><text text-anchor="end" transform="translate(-13,229)" font-family="sans-serif" font-size="12px" fill="#000" opacity="1">0.00006</text><text text-anchor="end" transform="translate(-13,204)" font-family="sans-serif" font-size="12px" fill="#000" opacity="1">0.00008</text><text text-anchor="end" transform="translate(-13,178.99999999999997)" font-family="sans-serif" font-size="12px" fill="#000" opacity="1">0.00010</text><text text-anchor="end" transform="translate(-13,154)" font-family="sans-serif" font-size="12px" fill="#000" opacity="1">0.00012</text><text text-anchor="end" transform="translate(-13,129.00000000000003)" font-family="sans-serif" font-size="12px" fill="#000" opacity="1">0.00014</text><text text-anchor="end" transform="translate(-13,103.99999999999997)" font-family="sans-serif" font-size="12px" fill="#000" opacity="1">0.00016</text><text text-anchor="end" transform="translate(-13,79)" font-family="sans-serif" font-size="12px" fill="#000" opacity="1">0.00018</text><text text-anchor="end" transform="translate(-13,53.999999999999986)" font-family="sans-serif" font-size="12px" fill="#000" opacity="1">0.00020</text><text text-anchor="end" transform="translate(-13,29.00000000000001)" font-family="sans-serif" font-size="12px" fill="#000" opacity="1">0.00022</text><text text-anchor="end" transform="translate(-13,4)" font-family="sans-serif" font-size="12px" fill="#000" opacity="1">0.00024</text></g><g class="mark-rule role-axis-domain" pointer-events="none"><line transform="translate(0,300)" x2="0" y2="-300" stroke="#888" stroke-width="1" opacity="1"/></g><g class="mark-text role-axis-title" pointer-events="none"><text text-anchor="middle" transform="translate(-66.376953125,150) rotate(-90) translate(0,-3)" font-family="sans-serif" font-size="12px" font-weight="400" fill="#1c2a3a" opacity="1">density</text></g></g><path class="foreground" aria-hidden="true" d="" pointer-events="none" display="none"/></g></g><g class="mark-area role-mark marks" role="graphics-object" aria-roledescription="area mark container"><path aria-label="Number of generations: 2149; density: 0.00000506072111607" role="graphics-symbol" aria-roledescription="area mark" d="M4.257,293.674L7.951,291.795L11.645,289.437L15.339,286.428L19.033,282.59L22.727,277.782L26.421,271.924L30.115,264.987L33.809,256.933L37.503,247.647L41.197,236.861L44.891,224.141L46.738,216.89L48.585,208.958L52.279,190.845L55.973,169.613L63.361,119.458L70.749,67.188L74.443,44.536L76.29,34.792L78.137,26.291L81.831,13.261L83.678,8.708L85.525,5.35L89.219,1.599L91.066,0.825L92.913,0.52L96.607,0.635L100.301,0.993L102.148,1.177L103.995,1.411L107.689,2.36L109.536,3.265L111.383,4.574L115.077,8.62L118.771,14.635L120.618,18.301L122.465,22.329L126.159,31.197L129.853,40.777L137.241,61.324L144.629,84.277L152.017,110.034L159.405,136.451L163.099,148.773L166.793,160.025L170.487,170.088L174.181,179.069L181.569,195.047L188.957,210.779L196.345,227.409L200.039,235.57L201.886,239.445L203.733,243.117L205.58,246.545L207.427,249.698L209.274,252.556L211.121,255.113L212.968,257.373L214.815,259.355L218.509,262.59L220.356,263.91L222.203,265.079L224.05,266.129L225.897,267.091L229.591,268.835L233.285,270.434L240.673,273.429L248.061,276.432L255.449,279.608L259.143,281.145L262.837,282.523L264.684,283.126L266.531,283.661L268.378,284.125L270.225,284.514L273.919,285.078L275.766,285.262L277.613,285.39L279.46,285.471L281.307,285.519L285.001,285.566L288.695,285.654L290.542,285.751L292.389,285.904L296.083,286.412L297.93,286.78L299.777,287.225L301.624,287.744L303.471,288.33L307.165,289.667L314.553,292.669L318.247,294.148L320.094,294.848L321.941,295.508L323.788,296.123L325.635,296.686L327.482,297.191L329.329,297.636L331.176,298.016L333.023,298.332L334.87,298.584L336.717,298.773L340.411,298.981L342.258,299.01L344.105,298.999L358.881,298.314L362.575,298.204L366.269,298.177L369.963,298.24L373.657,298.385L373.657,300L369.963,300L366.269,300L362.575,300L358.881,300L344.105,300L342.258,300L340.411,300L336.717,300L334.87,300L333.023,300L331.176,300L329.329,300L327.482,300L325.635,300L323.788,300L321.941,300L320.094,300L318.247,300L314.553,300L307.165,300L303.471,300L301.624,300L299.777,300L297.93,300L296.083,300L292.389,300L290.542,300L288.695,300L285.001,300L281.307,300L279.46,300L277.613,300L275.766,300L273.919,300L270.225,300L268.378,300L266.531,300L264.684,300L262.837,300L259.143,300L255.449,300L248.061,300L240.673,300L233.285,300L229.591,300L225.897,300L224.05,300L222.203,300L220.356,300L218.509,300L214.815,300L212.968,300L211.121,300L209.274,300L207.427,300L205.58,300L203.733,300L201.886,300L200.039,300L196.345,300L188.957,300L181.569,300L174.181,300L170.487,300L166.793,300L163.099,300L159.405,300L152.017,300L144.629,300L137.241,300L129.853,300L126.159,300L122.465,300L120.618,300L118.771,300L115.077,300L111.383,300L109.536,300L107.689,300L103.995,300L102.148,300L100.301,300L96.607,300L92.913,300L91.066,300L89.219,300L85.525,300L83.678,300L81.831,300L78.137,300L76.29,300L74.443,300L70.749,300L63.361,300L55.973,300L52.279,300L48.585,300L46.738,300L44.891,300L41.197,300L37.503,300L33.809,300L30.115,300L26.421,300L22.727,300L19.033,300L15.339,300L11.645,300L7.951,300L4.257,300Z" fill="#6583ff"/></g></g><path class="foreground" aria-hidden="true" d="" display="none"/></g></g></g></svg>