<svg xmlns="http://www.w3.org/2000/svg" xmlns:xlink="http://www.w3.org/1999/xlink" version="1.1" class="marks" width="491" height="354" viewBox="0 0 491 354"><rect width="491" height="354" fill="#fff"/><g fill="none" stroke-miterlimit="10" transform="translate(85,11)"><g class="mark-group role-frame root" role="graphics-object" aria-roledescription="group mark container"><g transform="translate(0,0)"><path class="background" aria-hidden="true" d="M0.5,0.5h400v300h-400Z" stroke="#ddd"/><g><g class="mark-group role-axis" aria-hidden="true"><g transform="translate(0.5,300.5)"><path class="background" aria-hidden="true" d="M0,0h0v0h0Z" pointer-events="none"/><g><g class="mark-rule role-axis-grid" pointer-events="none"><line transform="translate(0,-300)" x2="0" y2="300" stroke="#ddd" stroke-width="1" opacity="1"/><line transform="translate(44,-300)" x2="0" y2="300" stroke="#ddd" stroke-width="1" opacity="1"/><line transform="translate(89,-300)" x2="0" y2="300" stroke="#ddd" stroke-width="1" opacity="1"/><line transform="translate(133,-300)" x2="0" y2="300" stroke="#ddd" stroke-width="1" opacity="1"/><line transform="translate(178,-300)" x2="0" y2="300" stroke="#ddd" stroke-width="1" opacity="1"/><line transform="translate(222,-300)" x2="0" y2="300" stroke="#ddd" stroke-width="1" opacity="1"/><line transform="translate(267,-300)" x2="0" y2="300" stroke="#ddd" stroke-width="1" opacity="1"/><line transform="translate(311,-300)" x2="0" y2="300" stroke="#ddd" stroke-width="1" opacity="1"/><line transform="translate(356,-300)" x2="0" y2="300" stroke="#ddd" stroke-width="1" opacity="1"/><line transform="translate(400,-300)" x2="0" y2="300" stroke="#ddd" stroke-width="1" opacity="1"/></g></g><path class="foreground" aria-hidden="true" d="" pointer-events="none" display="none"/></g></g><g class="mark-group role-axis" aria-hidden="true"><g transform="translate(0.5,0.5)"><path class="background" aria-hidden="true" d="M0,0h0v0h0Z" pointer-events="none"/><g><g class="mark-rule role-axis-grid" pointer-events="none"><line transform="translate(0,300)" x2="400" y2="0" stroke="#e1e8f0" stroke-width="1" opacity="1"/><line transform="translate(0,270)" x2="400" y2="0" stroke="#e1e8f0" stroke-width="1" opacity="1"/><line transform="translate(0,240)" x2="400" y2="0" stroke="#e1e8f0" stroke-width="1" opacity="1"/><line transform="translate(0,210)" x2="400" y2="0" stroke="#e1e8f0" stroke-width="1" opacity="1"/><line transform="translate(0,180)" x2="400" y2="0" stroke="#e1e8f0" stroke-width="1" opacity="1"/><line transform="translate(0,150)" x2="400" y2="0" stroke="#e1e8f0" stroke-width="1" opacity="1"/><line transform="translate(0,120)" x2="400" y2="0" stroke="#e1e8f0" stroke-width="1" opacity="1"/><line transform="translate(0,90)" x2="400" y2="0" stroke="#e1e8f0" stroke-width="1" opacity="1"/><line transform="translate(0,60)" x2="400" y2="0" stroke="#e1e8f0" stroke-width="1" opacity="1"/><line transform="translate(0,30)" x2="400" y2="0" stroke="#e1e8f0" stroke-width="1" opacity="1"/><line transform="translate(0,0)" x2="400" y2="0" stroke="#e1e8f0" stroke-width="1" opacity="1"/></g></g><path class="foreground" aria-hidden="true" d="" pointer-events="none" display="none"/></g></g><g class="mark-group role-axis" role="graphics-symbol" aria-roledescription="axis" aria-label="X-axis titled 'Number of generations' for a linear scale with values from 2,000 to 20,000"><g transform="translate(0.5,300.5)"><path class="background" aria-hidden="true" d="M0,0h0v0h0Z" pointer-events="none"/><g><g class="mark-rule role-axis-tick" pointer-events="none"><line transform="translate(0,0)" x2="0" y2="5" stroke="#888" stroke-width="1" opacity="1"/><line transform="translate(44,0)" x2="0" y2="5" stroke="#888" stroke-width="1" opacity="1"/><line transform="translate(89,0)" x2="0" y2="5" stroke="#888" stroke-width="1" opacity="1"/><line transform="translate(133,0)" x2="0" y2="5" stroke="#888" stroke-width="1" opacity="1"/><line transform="translate(178,0)" x2="0" y2="5" stroke="#888" stroke-width="1" opacity="1"/><line transform="translate(222,0)" x2="0" y2="5" stroke="#888" stroke-width="1" opacity="1"/><line transform="translate(267,0)" x2="0" y2="5" stroke="#888" stroke-width="1" opacity="1"/><line transform="translate(311,0)" x2="0" y2="5" stroke="#888" stroke-width="1" opacity="1"/><line transform="translate(356,0)" x2="0" y2="5" stroke="#888" stroke-width="1" opacity="1"/><line transform="translate(400,0)" x2="0" y2="5" stroke="#888" stroke-width="1" opacity="1"/></g><g class="mark-text role-axis-label" pointer-events="none"><text text-anchor="start" transform="translate(0,15)" font-family="sans-serif" font-size="10px" fill="#000" opacity="1">2,000</text><text text-anchor="middle" transform="translate(44.44444444444444,15)" font-family="sans-serif" font-size="10px" fill="#000" opacity="0">4,000</text><text text-anchor="middle" transform="translate(88.88888888888889,15)" font-family="sans-serif" font-size="10px" fill="#000" opacity="1">6,000</text><text text-anchor="middle" transform="translate(133.33333333333331,15)" font-family="sans-serif" font-size="10px" fill="#000" opacity="0">8,000</text><text text-anchor="middle" transform="translate(177.77777777777777,15)" font-family="sans-serif" font-size="10px" fill="#000" opacity="1">10,000</text><text text-anchor="middle" transform="translate(222.22222222222223,15)" font-family="sans-serif" font-size="10px" fill="#000" opacity="0">12,000</text><text text-anchor="middle" transform="translate(266.66666666666663,15)" font-family="sans-serif" font-size="10px" fill="#000" opacity="1">14,000</text><text text-anchor="middle" transform="translate(311.11111111111114,15)" font-family="sans-serif" font-size="10px" fill="#000" opacity="0">16,000</text><text text-anchor="middle" transform="translate(355.55555555555554,15)" font-family="sans-serif" font-size="10px" fill="#000" opacity="1">18,000</text><text text-anchor="end" transform="translate(400,15)" font-family="sans-serif" font-size="10px" fill="#000" opacity="0">20,000</text></g><g class="mark-rule role-axis-domain" pointer-events="none"><line transform="translate(0,0)" x2="400" y2="0" stroke="#e1e8f0" stroke-width="1" opacity="1"/></g><g class="mark-text role-axis-title" pointer-events="none"><text text-anchor="middle" transform="translate(200,36)" font-family="sans-serif" font-size="11px" font-weight="400" fill="#1c2a3a" opacity="1">Number of generations</text></g></g><path class="foreground" aria-hidden="true" d="" pointer-events="none" display="none"/></g></g><g class="mark-group role-axis" role="graphics-symbol" aria-roledescription="axis" aria-label="Y-axis titled 'density' for a linear scale with values from 0.00000 to 0.00020"><g transform="translate(0.5,0.5)"><path class="background" aria-hidden="true" d="M0,0h0v0h0Z" pointer-events="none"/><g><g class="mark-rule role-axis-tick" pointer-events="none"><line transform="translate(0,300)" x2="-5" y2="0" stroke="#888" stroke-width="1" opacity="1"/><line transform="translate(0,270)" x2="-5" y2="0" stroke="#888" stroke-width="1" opacity="1"/><line transform="translate(0,240)" x2="-5" y2="0" stroke="#888" stroke-width="1" opacity="1"/><line transform="translate(0,210)" x2="-5" y2="0" stroke="#888" stroke-width="1" opacity="1"/><line transform="translate(0,180)" x2="-5" y2="0" stroke="#888" stroke-width="1" opacity="1"/><line transform="translate(0,150)" x2="-5" y2="0" stroke="#888" stroke-width="1" opacity="1"/><line transform="translate(0,120)" x2="-5" y2="0" stroke="#888" stroke-width="1" opacity="1"/><line transform="translate(0,90)" x2="-5" y2="0" stroke="#888" stroke-width="1" opacity="1"/><line transform="translate(0,60)" x2="-5" y2="0" stroke="#888" stroke-width="1" opacity="1"/><line transform="translate(0,30)" x2="-5" y2="0" stroke="#888" stroke-width="1" opacity="1"/><line transform="translate(0,0)" x2="-5" y2="0" stroke="#888" stroke-width="1" opacity="1"/></g><g class="mark-text role-axis-label" pointer-events="none"><text text-anchor="end" transform="translate(-13,304)" font-family="sans-serif" font-size="12px" fill="#000" opacity="1">0.00000</text><text text-anchor="end" transform="translate(-13,274)" font-family="sans-serif" font-size="12px" fill="#000" opacity="1">0.00002</text><text text-anchor="end" transform="translate(-13,244)" font-family="sans-serif" font-size="12px" fill="#000" opacity="1">0.00004</text><text text-anchor="end" transform="translate(-13,214)" font-family="sans-serif" font-size="12px" fill="#000" opacity="1">0.00006</text><text text-anchor="end" transform="translate(-13,184)" font-family="sans-serif" font-size="12px" fill="#000" opacity="1">0.00008</text><text text-anchor="end" transform="translate(-13,154)" font-family="sans-serif" font-size="12px" fill="#000" opacity="1">0.00010</text><text text-anchor="end" transform="translate(-13,124)" font-family="sans-serif" font-size="12px" fill="#000" opacity="1">0.00012</text><text text-anchor="end" transform="translate(-13,94.00000000000001)" font-family="sans-serif" font-size="12px" fill="#000" opacity="1">0.00014</text><text text-anchor="end" transform="translate(-13,63.999999999999986)" font-family="sans-serif" font-size="12px" fill="#000" opacity="1">0.00016</text><text text-anchor="end" transform="translate(-13,33.99999999999999)" font-family="sans-serif" font-size="12px" fill="#000" opacity="1">0.00018</text><text text-anchor="end" transform="translate(-13,4)" font-family="sans-serif" font-size="12px" fill="#000" opacity="1">0.00020</text></g><g class="mark-rule role-axis-domain" pointer-events="none"><line transform="translate(0,300)" x2="0" y2="-300" stroke="#888" stroke-width="1" opacity="1"/></g><g class="mark-text role-axis-title" pointer-events="none"><text text-anchor="middle" transform="translate(-66.376953125,150) rotate(-90) translate(0,-3)" font-family="sans-serif" font-size="12px" font-weight="400" fill="#1c2a3a" opacity="1">density</text></g></g><path class="foreground" aria-hidden="true" d="" pointer-events="none" display="none"/></g></g><g class="mark-area role-mark marks" role="graphics-object" aria-roledescription="area mark container"><path aria-label="Number of generations: 2391; density: 0.00000694992355602" role="graphics-symbol" aria-roledescription="area mark" d="M8.689,289.575L10.645,287.056L12.602,284.098L14.559,280.673L16.515,276.757L18.472,272.336L20.428,267.405L22.385,261.963L24.341,256.018L28.254,242.663L32.168,227.444L39.994,191.853L55.646,107.036L63.472,68.287L65.429,60.296L67.386,53.185L69.342,47.016L71.299,41.815L73.255,37.581L75.212,34.279L77.168,31.848L79.125,30.205L81.081,29.251L83.038,28.879L84.995,28.981L86.951,29.454L90.864,31.161L92.821,32.263L94.777,33.476L96.734,34.785L98.69,36.194L100.647,37.723L102.604,39.404L104.56,41.274L106.517,43.375L108.473,45.745L110.43,48.418L112.386,51.422L114.343,54.779L116.299,58.504L118.256,62.607L120.213,67.092L122.169,71.96L126.082,82.805L133.908,108.054L141.735,134.526L145.648,146.65L149.561,157.579L153.474,167.405L157.387,176.466L165.213,193.601L169.126,201.817L173.04,209.511L174.996,213.057L176.953,216.353L178.909,219.373L180.866,222.106L182.822,224.554L184.779,226.731L186.735,228.664L188.692,230.392L190.649,231.956L192.605,233.405L196.518,236.151L198.475,237.54L200.431,238.993L202.388,240.544L204.344,242.217L206.301,244.028L208.258,245.985L210.214,248.085L212.171,250.314L219.997,259.951L223.91,264.645L225.867,266.811L227.823,268.807L229.78,270.606L231.736,272.189L233.693,273.546L235.649,274.678L237.606,275.596L239.562,276.317L243.476,277.285L245.432,277.603L247.389,277.862L251.302,278.361L253.258,278.674L255.215,279.069L257.171,279.565L259.128,280.172L261.085,280.892L263.041,281.714L264.998,282.62L266.954,283.583L270.867,285.552L272.824,286.491L274.78,287.36L276.737,288.136L278.694,288.807L280.65,289.37L282.607,289.832L284.563,290.209L286.52,290.523L290.433,291.066L292.389,291.343L294.346,291.649L296.303,291.992L298.259,292.375L306.085,294.043L308.042,294.399L309.998,294.692L311.955,294.91L313.912,295.051L315.868,295.116L317.825,295.118L321.738,295.005L325.651,294.887L329.564,294.935L333.477,295.252L335.434,295.515L337.39,295.839L341.303,296.614L345.216,297.45L349.13,298.224L351.086,298.562L353.043,298.857L356.956,299.318L358.912,299.485L360.869,299.616L364.782,299.781L368.695,299.847L372.608,299.839L376.521,299.77L384.348,299.496L392.174,299.165L396.087,299.051L400,299.01L400,300L396.087,300L392.174,300L384.348,300L376.521,300L372.608,300L368.695,300L364.782,300L360.869,300L358.912,300L356.956,300L353.043,300L351.086,300L349.13,300L345.216,300L341.303,300L337.39,300L335.434,300L333.477,300L329.564,300L325.651,300L321.738,300L317.825,300L315.868,300L313.912,300L311.955,300L309.998,300L308.042,300L306.085,300L298.259,300L296.303,300L294.346,300L292.389,300L290.433,300L286.52,300L284.563,300L282.607,300L280.65,300L278.694,300L276.737,300L274.78,300L272.824,300L270.867,300L266.954,300L264.998,300L263.041,300L261.085,300L259.128,300L257.171,300L255.215,300L253.258,300L251.302,300L247.389,300L245.432,300L243.476,300L239.562,300L237.606,300L235.649,300L233.693,300L231.736,300L229.78,300L227.823,300L225.867,300L223.91,300L219.997,300L212.171,300L210.214,300L208.258,300L206.301,300L204.344,300L202.388,300L200.431,300L198.475,300L196.518,300L192.605,300L190.649,300L188.692,300L186.735,300L184.779,300L182.822,300L180.866,300L178.909,300L176.953,300L174.996,300L173.04,300L169.126,300L165.213,300L157.387,300L153.474,300L149.561,300L145.648,300L141.735,300L133.908,300L126.082,300L122.169,300L120.213,300L118.256,300L116.299,300L114.343,300L112.386,300L110.43,300L108.473,300L106.517,300L104.56,300L102.604,300L100.647,300L98.69,300L96.734,300L94.777,300L92.821,300L90.864,300L86.951,300L84.995,300L83.038,300L81.081,300L79.125,300L77.168,300L75.212,300L73.255,300L71.299,300L69.342,300L67.386,300L65.429,300L63.472,300L55.646,300L39.994,300L32.168,300L28.254,300L24.341,300L22.385,300L20.428,300L18.472,300L16.515,300L14.559,300L12.602,300L10.645,300L8.689,300Z" fill="#6583ff"/></g></g><path class="foreground" aria-hidden="true" d="" display="none"/></g></g></g></svg>