<svg width="416" height="332" viewBox="0 0 416 332" fill="none" xmlns="http://www.w3.org/2000/svg">
<mask id="mask0_1_53" style="mask-type:alpha" maskUnits="userSpaceOnUse" x="0" y="0" width="416" height="332">
<rect width="416" height="332" fill="#D9D9D9"/>
</mask>
<g mask="url(#mask0_1_53)">
<path d="M324.54 56.5085L314.323 56.2409L313.722 51.6917L310.417 49.0157L310.116 46.3397L324.24 53.2973L324.54 56.5085ZM219.966 34.8331H214.557L210.35 32.9599L212.754 30.2839L217.863 31.3543L219.966 34.8331ZM305.008 36.1711L301.101 38.0442H297.195L293.288 41.523L286.978 38.5794L285.475 35.6358L285.776 29.7488L287.579 26.0023L293.589 23.594L296.293 26.8052L301.402 28.4108L299.899 32.9599L305.008 36.1711ZM164.975 18.5096L170.384 20.3828L175.192 24.6643L175.492 28.4108L170.384 32.6923L180 31.8895L182.404 35.1007L187.512 34.0302L201.035 38.847L210.651 36.4387L212.754 40.185L210.951 44.199L204.34 48.4806L208.547 51.6917L214.858 51.1565L225.676 53.5649L235.592 46.875L238.898 45.537L249.716 44.7341L265.041 32.6923L280.968 35.1007L285.475 40.185L296.594 45.8046L306.21 45.2694L310.116 50.6213L312.52 57.3112L318.23 60.79L326.644 62.128L328.747 69.0855L334.156 80.057L333.255 87.2822L327.545 92.0989L325.442 96.3805L330.25 100.127L340.166 105.746L344.373 110.295L342.57 117.253L348.58 123.408L350.984 128.492L348.881 135.45L346.477 138.393L352.186 146.689V150.97L358.797 153.379L363.605 161.942L362.403 168.097L357.595 177.73L354.891 179.603L350.684 177.998V175.589L346.176 171.575L339.565 170.505L337.161 172.111L341.669 176.124L335.959 177.73L325.442 181.744L312.22 184.42L310.417 187.631L307.111 187.364L302.303 189.237L300.5 191.913L294.49 192.716L292.086 196.194L285.776 195.124L277.963 196.73L274.657 198.335L268.948 205.293L263.238 199.941L261.736 201.814L269.248 210.912L276.16 214.391L277.963 218.672L274.357 223.222L278.564 227.236L283.973 234.461L290.884 239.813H294.791L303.505 246.77L311.018 250.784L314.924 255.066H318.831L327.545 260.953L329.348 262.826L328.747 270.319L324.841 272.727L317.929 270.319L315.826 278.079L312.821 280.755L304.106 282.896L294.791 287.713L292.988 291.191L300.5 298.684L300.801 302.163L298.998 305.642L304.106 306.444L305.008 311.529L304.106 315.543L298.998 314.472L295.392 312.064L294.791 309.12L291.485 307.782L283.973 309.12L279.465 306.98L273.455 306.177L273.155 309.923L256.026 311.261L244.307 315.275L241.001 317.683L229.582 319.021L225.375 313.937L217.262 312.867L208.848 313.134L208.247 318.219L205.242 322.5L200.434 323.838L200.734 320.359L197.128 319.557L194.424 315.81L183.906 311.529L181.803 312.867L175.192 309.656L159.866 303.501L162.871 307.782L151.753 308.318L148.447 305.909L146.043 306.444L141.836 303.768H137.93L134.023 306.98L134.624 310.994L126.811 310.458L116.895 312.064L108.481 311.796L105.476 310.994L102.17 307.515V303.501L103.973 298.149L103.372 291.727L104.274 287.713L107.279 282.896L111.486 268.178L122.003 258.009L121.703 254.531L116.895 252.925L102.471 250.784L96.4607 247.038L87.4457 248.643L81.1352 248.376L80.2338 245.967L76.0268 244.897L70.6177 246.77L60.1002 235.264L55.8932 234.996L57.6963 226.968L60.4007 224.56V220.813L51.9868 217.87L47.4793 213.588L46.5777 207.701L48.3807 203.152L55.2922 199.673L54.0902 194.321L48.9818 192.448L50.1838 188.434L41.1688 182.279L42.9718 175.857L37.2622 172.646L38.7647 170.505L45.3757 166.223L43.2722 163.012L47.1788 155.52V152.308L37.8632 141.337L39.9668 138.393L45.3757 136.52L52.2872 138.661L65.8097 135.182L67.9132 132.506L64.9082 130.098L65.8097 127.689L73.6227 123.408L75.4257 116.45L73.0218 113.774L65.2088 112.971L63.1052 110.295L64.9082 106.014L74.2238 106.282L77.5293 96.1129L79.6327 91.5637L79.3322 80.057L74.2238 76.3107L75.7263 69.0855L79.0318 65.3392L81.7363 64.2688L93.7563 63.466L107.279 63.7336L112.988 69.6207L111.185 72.8319L115.993 73.6347L118.698 67.2124L122.905 69.3531L126.21 69.0855L124.708 64.5364L125.309 60.2548L128.013 56.5085L137.93 58.114L148.748 57.3112L149.048 55.7056L140.634 54.3677L137.93 51.4241L137.329 40.9878L132.821 38.847L128.013 39.6498V35.6358L138.23 32.6923V30.0163L128.013 19.8476L127.412 15.566L135.526 15.8337L151.152 19.3124L160.467 17.4393L164.975 18.5096Z" fill="url(#paint0_linear_1_53)" stroke="#8E368F" stroke-width="0.1" stroke-linecap="round" stroke-linejoin="round"/>
<path d="M428.811 699.815L425.205 706.505L416.791 718.012L412.283 731.659L413.185 737.011L417.993 740.758L415.889 742.096L420.697 746.912L420.998 750.391L415.589 755.476L414.387 760.025L414.687 764.039L405.973 762.433L401.766 763.236L390.647 759.49L384.938 751.997L375.923 746.645H366.908L362.701 745.307L353.986 740.222L344.971 736.476L337.158 730.856L332.05 729.786L327.542 727.11H318.828L311.916 722.829L308.01 716.674L311.916 706.773L316.123 704.632L318.828 701.421L325.739 707.575L331.148 705.435L335.355 701.153L342.567 701.421L344.07 703.829L348.277 704.632L355.789 708.913L359.996 709.984L370.213 707.308L379.228 708.378L387.642 707.04L392.751 705.435L396.357 702.759L400.564 701.956L411.081 702.759L417.091 699.548L419.495 700.083L425.505 696.872L428.811 699.815ZM193.519 588.762L195.623 591.17L201.032 604.55L199.229 608.832L195.322 614.184L197.726 621.677L195.923 652.45L194.12 660.211L191.416 661.281L182.701 658.07L178.194 658.873L174.588 657.267L173.686 665.295L168.277 670.914L159.262 670.379L157.159 668.774L149.947 658.605L148.745 647.098L150.548 643.619V636.93L153.853 636.662V632.113L148.444 628.902V623.817L150.548 620.071L150.247 613.113L147.843 610.705L145.439 604.55L138.828 598.128L139.129 589.03L149.346 590.635L153.252 589.832L162.568 585.818L168.878 579.128L173.085 577.79L177.593 572.974L179.696 575.382L186.307 577.523L189.913 581.537L192.618 582.875L190.514 586.621L193.519 588.762ZM218.461 506.342L219.362 510.088L211.85 511.426L208.544 508.482L217.259 507.947L218.461 506.342ZM332.35 354.881L331.749 357.29L321.833 363.444L323.936 367.191L330.848 369.064L326.04 374.684L326.941 377.36L330.848 377.895L329.646 383.247L335.355 386.19L339.863 389.669L340.464 393.148L335.956 393.415L338.06 391.81L332.05 385.923L326.04 388.331L316.424 385.923L310.113 391.275L305.606 392.345L300.497 395.289L290.881 398.5L285.472 397.429L282.467 399.303L281.265 407.598L283.669 409.204L288.177 416.161L293.285 419.105L291.182 424.189L288.477 426.062L284.571 424.724L283.669 429.274L286.374 441.315L290.581 449.879L294.187 453.357L302.3 459.245L310.414 462.188L325.739 472.089L334.153 475.033L336.257 476.906L341.666 484.399L346.474 492.962L351.883 506.609L355.789 513.299L362.701 521.06L377.125 532.031L390.046 539.791L402.066 544.876L411.081 545.679L432.116 544.608L439.929 546.481L441.131 549.693L439.929 552.101L431.215 557.721V562.27L435.722 565.481L457.058 574.044L478.694 581.002L485.305 584.748L493.418 590.368L512.65 598.128L515.956 601.874L527.976 609.902L533.385 616.325L534.887 621.141L530.38 632.916L525.572 631.578L519.862 628.099L510.547 613.649L495.522 612.311L486.807 608.832L484.704 605.085L477.792 604.015L473.886 606.423L469.679 611.775L465.171 619.803L460.664 631.31V635.859L463.969 640.408L472.684 643.084L479.896 647.098L484.704 651.38L485.605 661.549L488.31 667.168L485.605 670.647L479.896 669.844L472.383 671.717L467.275 675.464L465.171 679.21L466.674 688.308L465.772 692.055L455.856 698.745L451.048 705.435L448.043 711.589H435.121L431.816 707.575L431.515 701.688L433.318 698.21L438.126 696.336L440.831 688.844L439.328 683.492L442.634 679.21L451.048 677.337V669.576L446.841 666.098L442.634 652.45L435.422 640.943L431.215 630.775L427.909 625.958L423.702 623.282L412.584 622.479L398.761 615.522L397.859 612.578L399.662 609.635L396.357 602.142L390.347 597.593L382.534 599.198L378.928 598.931L378.627 594.917L372.617 591.438L364.504 590.903L362.4 589.03L354.587 578.326L349.479 573.776L342.567 574.044L330.848 571.636L324.838 573.509L315.222 566.551L306.808 564.143L289.679 549.96L284.27 544.608L273.753 538.721L266.841 530.158L261.432 526.947L249.412 523.2L248.511 519.722L239.195 511.426L234.087 508.75L230.18 503.131L222.668 501.793L222.968 494.568L219.362 485.202L214.254 479.314L210.648 465.132L208.244 461.118L202.835 458.174L190.815 454.963L173.686 445.865L170.381 445.597L160.164 442.118L153.853 441.583L146.04 444.794L136.725 453.357L129.212 462.456L126.508 464.061L116.291 467.273L107.276 468.61L106.675 464.597L112.985 457.639L112.084 452.287L102.167 453.893L86.8418 447.47L84.1373 445.062L83.8368 441.315L81.7334 437.837L85.9404 431.147L88.3443 429.274L86.8418 424.724L77.2259 420.978L72.7184 412.682L75.1223 411.612L80.8318 412.147L85.9404 408.668L89.5464 407.866L91.9504 401.176L86.5414 396.894L81.4329 389.937L78.7284 388.331L78.4279 384.05L86.2409 379.5L90.4479 381.374L97.6598 380.036L105.473 377.36L114.788 379.5L122 375.754L126.808 369.867L125.005 365.853L135.222 358.092L138.227 359.698L138.828 366.388L146.04 371.74L152.651 373.346L151.449 376.557L155.356 379.768L158.06 383.514L161.666 381.641L159.563 377.092L160.164 374.416L166.775 367.458L168.277 364.515V356.754L174.287 356.487L176.691 362.106L182.701 364.247L191.416 361.304L193.519 361.571L197.726 366.656L201.332 365.853L196.825 356.487L198.628 351.67L202.534 350.867L205.539 353.276L211.249 353.811L209.746 348.994L211.249 340.699L220.264 341.501L222.968 343.642L229.279 344.713L232.584 343.642L236.19 337.755L240.397 336.15L250.614 335.347L259.93 335.882L274.053 331.868V338.023L283.369 347.389L286.674 348.727L312.517 352.741L324.537 353.543L332.35 354.881Z" fill="#FDEBFC" stroke="#8E368F" stroke-width="0.1" stroke-linecap="round" stroke-linejoin="round"/>
<path d="M165.5 218.054C167.094 218.054 168.385 216.761 168.385 215.167C168.385 213.572 167.094 212.279 165.5 212.279C163.906 212.279 162.615 213.572 162.615 215.167C162.615 216.761 163.906 218.054 165.5 218.054Z" fill="white" stroke="#7708CE"/>
<path d="M125.75 178.263C127.344 178.263 128.635 176.969 128.635 175.375C128.635 173.781 127.344 172.488 125.75 172.488C124.156 172.488 122.865 173.781 122.865 175.375C122.865 176.969 124.156 178.263 125.75 178.263Z" fill="white" stroke="#7708CE"/>
<path d="M181.4 66.8458C182.994 66.8458 184.285 65.5526 184.285 63.9583C184.285 62.3641 182.994 61.0708 181.4 61.0708C179.806 61.0708 178.515 62.3641 178.515 63.9583C178.515 65.5526 179.806 66.8458 181.4 66.8458Z" fill="white" stroke="#7708CE"/>
<path d="M245 138.471C246.594 138.471 247.885 137.178 247.885 135.583C247.885 133.989 246.594 132.696 245 132.696C243.406 132.696 242.115 133.989 242.115 135.583C242.115 137.178 243.406 138.471 245 138.471Z" fill="white" stroke="#7708CE"/>
<path d="M141.65 170.304C143.244 170.304 144.535 169.011 144.535 167.417C144.535 165.822 143.244 164.529 141.65 164.529C140.056 164.529 138.765 165.822 138.765 167.417C138.765 169.011 140.056 170.304 141.65 170.304Z" fill="white" stroke="#7708CE"/>
<path d="M205.25 82.7625C206.844 82.7625 208.135 81.4692 208.135 79.875C208.135 78.2808 206.844 76.9875 205.25 76.9875C203.656 76.9875 202.365 78.2808 202.365 79.875C202.365 81.4692 203.656 82.7625 205.25 82.7625Z" fill="white" stroke="#7708CE"/>
<path d="M205.25 154.388C206.844 154.388 208.135 153.094 208.135 151.5C208.135 149.906 206.844 148.613 205.25 148.613C203.656 148.613 202.365 149.906 202.365 151.5C202.365 153.094 203.656 154.388 205.25 154.388Z" fill="white" stroke="#7708CE"/>
<path d="M205.25 138.471C206.844 138.471 208.135 137.178 208.135 135.583C208.135 133.989 206.844 132.696 205.25 132.696C203.656 132.696 202.365 133.989 202.365 135.583C202.365 137.178 203.656 138.471 205.25 138.471Z" fill="white" stroke="#7708CE"/>
<path d="M245 122.554C246.594 122.554 247.885 121.261 247.885 119.667C247.885 118.072 246.594 116.779 245 116.779C243.406 116.779 242.115 118.072 242.115 119.667C242.115 121.261 243.406 122.554 245 122.554Z" fill="white" stroke="#7708CE"/>
<path d="M101.9 170.304C103.494 170.304 104.785 169.011 104.785 167.417C104.785 165.822 103.494 164.529 101.9 164.529C100.306 164.529 99.015 165.822 99.015 167.417C99.015 169.011 100.306 170.304 101.9 170.304Z" fill="white" stroke="#7708CE"/>
<path d="M109.85 146.429C111.444 146.429 112.735 145.136 112.735 143.542C112.735 141.947 111.444 140.654 109.85 140.654C108.256 140.654 106.965 141.947 106.965 143.542C106.965 145.136 108.256 146.429 109.85 146.429Z" fill="white" stroke="#7708CE"/>
<path d="M197.3 114.596C198.894 114.596 200.185 113.303 200.185 111.708C200.185 110.114 198.894 108.821 197.3 108.821C195.706 108.821 194.415 110.114 194.415 111.708C194.415 113.303 195.706 114.596 197.3 114.596Z" fill="white" stroke="#7708CE"/>
<path d="M125.75 146.429C127.344 146.429 128.635 145.136 128.635 143.542C128.635 141.947 127.344 140.654 125.75 140.654C124.156 140.654 122.865 141.947 122.865 143.542C122.865 145.136 124.156 146.429 125.75 146.429Z" fill="white" stroke="#7708CE"/>
<path d="M125.75 241.929C127.344 241.929 128.635 240.636 128.635 239.042C128.635 237.447 127.344 236.154 125.75 236.154C124.156 236.154 122.865 237.447 122.865 239.042C122.865 240.636 124.156 241.929 125.75 241.929Z" fill="white" stroke="#7708CE"/>
<path d="M245 241.929C246.594 241.929 247.885 240.636 247.885 239.042C247.885 237.447 246.594 236.154 245 236.154C243.406 236.154 242.115 237.447 242.115 239.042C242.115 240.636 243.406 241.929 245 241.929Z" fill="white" stroke="#7708CE"/>
<path d="M141.65 241.929C143.244 241.929 144.535 240.636 144.535 239.042C144.535 237.447 143.244 236.154 141.65 236.154C140.056 236.154 138.765 237.447 138.765 239.042C138.765 240.636 140.056 241.929 141.65 241.929Z" fill="white" stroke="#7708CE"/>
<path d="M213.2 154.388C214.794 154.388 216.085 153.094 216.085 151.5C216.085 149.906 214.794 148.613 213.2 148.613C211.606 148.613 210.315 149.906 210.315 151.5C210.315 153.094 211.606 154.388 213.2 154.388Z" fill="white" stroke="#7708CE"/>
<path d="M284.75 154.388C286.344 154.388 287.635 153.094 287.635 151.5C287.635 149.906 286.344 148.613 284.75 148.613C283.156 148.613 281.865 149.906 281.865 151.5C281.865 153.094 283.156 154.388 284.75 154.388Z" fill="white" stroke="#7708CE"/>
</g>
<defs>
<linearGradient id="paint0_linear_1_53" x1="55.5" y1="46.5" x2="309" y2="229.5" gradientUnits="userSpaceOnUse">
<stop stop-color="#ECE1E9"/>
<stop offset="1" stop-color="#9C3AB4"/>
</linearGradient>
</defs>
</svg>
