<svg width="400" height="240">
  <defs>
    <linearGradient id="gradient" x1="0%" y1="0%" x2="100%" y2="0%">
      <stop offset="0%" stop-color="#DDB7E8"></stop>
      <stop offset="100%" stop-color="#3F297F"></stop>
    </linearGradient>
  </defs>
  <circle cx="100" cy="200" r="3" fill="#4291c2"></circle><circle cx="50" cy="150" r="3" fill="#4291c2"></circle><circle cx="120" cy="10" r="3" fill="#4291c2"></circle><circle cx="200" cy="100" r="3" fill="#4291c2"></circle><circle cx="70" cy="140" r="3" fill="#4291c2"></circle><circle cx="150" cy="30" r="3" fill="#4291c2"></circle><circle cx="150" cy="120" r="3" fill="#4291c2"></circle><circle cx="150" cy="100" r="3" fill="#4291c2"></circle><circle cx="200" cy="80" r="3" fill="#4291c2"></circle><circle cx="20" cy="140" r="3" fill="#4291c2"></circle><circle cx="30" cy="110" r="3" fill="#4291c2"></circle><circle cx="140" cy="70" r="3" fill="#4291c2"></circle><circle cx="50" cy="110" r="3" fill="#4291c2"></circle><circle cx="50" cy="230" r="3" fill="#4291c2"></circle><circle cx="200" cy="230" r="3" fill="#4291c2"></circle><circle cx="70" cy="230" r="3" fill="#4291c2"></circle><circle cx="160" cy="120" r="3" fill="#4291c2"></circle><circle cx="250" cy="120" r="3" fill="#4291c2"></circle>
  <path d="M 200,230 100,200 70,230 50,230 20,140 50,150 70,140 30,110 50,110 120,10 150,30 140,70 150,100 150,120 160,120 200,80 200,100 250,120 200,230" stroke="#4eace6" stroke-width="1" fill="none"></path><text x="208" y="234" fill="black">1</text> <text x="108" y="204" fill="black">2</text> <text x="78" y="234" fill="black">3</text> <text x="58" y="234" fill="black">4</text> <text x="28" y="144" fill="black">5</text> <text x="58" y="154" fill="black">6</text> <text x="78" y="144" fill="black">7</text> <text x="38" y="114" fill="black">8</text> <text x="58" y="114" fill="black">9</text> <text x="128" y="14" fill="black">10</text> <text x="158" y="34" fill="black">11</text> <text x="148" y="74" fill="black">12</text> <text x="158" y="104" fill="black">13</text> <text x="158" y="124" fill="black">14</text> <text x="168" y="124" fill="black">15</text> <text x="208" y="84" fill="black">16</text> <text x="208" y="104" fill="black">17</text> <text x="258" y="124" fill="black">18</text>
</svg>